<?xml version="1.0" encoding="UTF-8"?>
<svg id="Layer_2" xmlns="http://www.w3.org/2000/svg" viewBox="0 0 438.03 127">
  <defs>
    <style>
      .cls-1, .cls-2 {
        fill: #fff;
      }

      .cls-2 {
        fill-rule: evenodd;
      }

      .cls-3 {
        isolation: isolate;
      }

      .cls-4 {
        fill: none;
        stroke: #fff;
        stroke-miterlimit: 10;
        stroke-width: .83px;
      }
    </style>
  </defs>
  <g id="Layer_1-2" data-name="Layer_1">
    <g>
      <g>
        <path class="cls-2" d="M432.68,40.51c10.66,17.86,4.91,41.04-12.83,51.78-3.08,1.86-6.31,3.22-9.6,4.11l.04.83,2.26,7.58-16.22-9.37,8.75-15.68,2.35,7.86.22.74c2.89-.88,5.71-2.13,8.41-3.77,15.4-9.31,21.78-28,16.25-44.47"/>
        <path class="cls-2" d="M399.47,97.78c-9.68-2.55-17.5-8.16-22.86-17.13-5.12-8.58-6.46-18.39-4.5-27.46l.56.43,8.44,2.56-10.18-15.58-14.7,8.04,7.39,2.24.54.11c-2.26,9.32-1.02,19.5,4.28,28.37,6.79,11.39,18.51,17.89,30.77,18.32"/>
        <path class="cls-2" d="M367.93,41.72c2.46-2.78,5.37-5.24,8.71-7.25,14.22-8.6,31.81-6.61,43.75,3.69l-.53.4-6.59,6.42,18.84-1.1-.17-17.1-5.46,5.32-.16.4c-11.91-11.36-30.3-13.85-45.05-4.93-5.91,3.58-10.49,8.53-13.57,14.21l-.18.32"/>
        <path class="cls-1" d="M197.47,66.3c.24.65.25,12.02.01,12.95l-.02.09,7.02.04.04-1.34-.09.02c-1.05.2-2.18.15-3.26.1,0,0-.97-.03-1.24-.03l.03-4.94,3.79.03.72.07.04-1.28-.09.02c-.95.24-2.22.17-3.34.11,0,0-.89-.03-1.15-.04l.03-4.78,3.83.03c.23,0,.42.03.58.09l.1.04.04-.09v-1.19l-7.05-.03v.14"/>
        <path class="cls-1" d="M214.39,70.14c-.6-.92-1.49-1.36-2.8-1.36-1.12,0-2.08.44-2.82,1.26v-.99l-2.33-.03.05.13c.22.72.22,9.31,0,10.11l-.03.09,2.39.04-.02-.09c-.22-.98-.14-3.58-.08-5.49l.04-1.67c0-1.19,1.03-1.73,2.05-1.73,1.12,0,1.61.51,1.61,1.65v6.59l-.08.68.07.05h2.36l-.04-.14c-.26-.89-.18-3.46-.12-5.33l.04-1.62c0-1.2.75-1.89,2.05-1.89,1.18,0,1.64.47,1.64,1.65v6.59l-.09.69.12.04h2.26l-.02-.09c-.22-.97-.14-3.79-.08-5.85l.03-1.72c0-1.96-1.04-2.95-3.09-2.95-1.28,0-2.16.39-3.12,1.36"/>
        <path class="cls-1" d="M222.82,67.3c0,.67.49,1.04,1.39,1.04.61,0,1.33-.28,1.33-1.06,0-.74-.7-1-1.35-1s-1.37.27-1.37,1.02"/>
        <path class="cls-1" d="M222.96,69.09l.08.67v8.89l-.09.68.07.05h2.26l.02-.03s.05-.07-.04-.71v-8.88l.08-.63v-.08s-2.36-.04-2.36-.04l-.02.08"/>
        <path class="cls-1" d="M232.54,68.81c-1.17.05-2,.31-2.49,1.23v-.99l-2.25-.03.02.09c.2.94.16,9.38-.05,10.15l-.02.09,2.39.04-.02-.09c-.21-.96-.14-3.24-.09-4.9l.04-1.57c0-.81.2-1.41.6-1.79.36-.35.87-.51,1.53-.48h.4l.03-1.74h-.08"/>
        <path class="cls-1" d="M242.56,77.77c-.18.13-.39.27-.58.27-.22,0-.51-.08-.51-.77v-6.03c0-2.23-2.41-2.46-3.45-2.46-1.3,0-2.28.24-3.6.87l-.05.02v.07s.35,1.46.35,1.46l.13-.09c.88-.67,1.59-1.05,2.63-1.05.86,0,1.77.43,1.77,1.36s-1.06,1.27-2.29,1.63c-1.71.48-3.65,1.04-3.65,3.51,0,1.8,1.17,3.01,2.91,3.01,1.31,0,2.22-.43,3.13-1.45.2.77.57,1.45,1.77,1.45.63,0,1.21-.29,1.58-.53l.03-.02.02-1.18v-.2l-.2.14M239.24,75.86c0,1.22-.96,2.18-2.19,2.18-.94,0-1.58-.68-1.58-1.69,0-1.52,1.33-2.01,2.61-2.49,0,0,.86-.37,1.16-.49v2.49Z"/>
        <path class="cls-1" d="M244.35,67.06h-.07s-.03.08-.03.08v1.9l-1.5-.03-.04,1.13,1.57.03-.03,7.29c0,1.43.66,2.09,2.07,2.09.62,0,1.23-.14,1.78-.4l.04-.02.02-1.13v-.18l-.15.09c-.28.16-.58.3-.88.3-.43,0-.65-.27-.65-.82v-7.25l1.63.03.03-1.13-1.69-.03.03-1.32.05-.73v-.03l-.02-.03s-.06-.06-2.15.16"/>
        <path class="cls-1" d="M257.9,77.12l-.13.11c-.62.53-1.64,1.17-2.9,1.17-2.91,0-3.27-2.54-3.28-4.48l7.11.03v-.08c-.03-1.53-.53-5.09-4.52-5.09-3.02,0-4.89,2.09-4.89,5.47s1.93,5.32,5.3,5.32c1.33,0,2.3-.24,3.59-.87.05-.06.06-.09-.24-1.4l-.04-.17M254.08,69.92c1.33,0,2.09,1,2.28,2.94l-4.72-.03c.3-1.9,1.14-2.91,2.44-2.91Z"/>
        <path class="cls-1" d="M259.93,71.88c0,1.94,1.57,2.58,2.96,3.13,1.11.44,2.06.83,2.06,1.76,0,1.09-.97,1.59-1.87,1.59-1.14,0-1.98-.5-2.91-1.24l-.08-.07-.07.08-.38,1.49.05.03c1.08.59,2.25.9,3.37.9,1.97,0,4.08-.88,4.08-3.34,0-2.03-1.62-2.64-3.06-3.19-1.07-.41-1.99-.76-1.99-1.61,0-.96.9-1.45,1.79-1.45.76,0,1.57.3,2.48.94l.08.06.06-.08.36-1.35-.06-.02c-1.09-.49-2.11-.73-3.12-.73-1.87,0-3.76.96-3.76,3.11"/>
        <path class="cls-1" d="M272.42,66.24v1.31h.08c.9-.15,1.81-.12,2.69-.09l.95.02-.03,11.17-.08.64v.09s.11,0,.11,0h2.49l-.02-.14-.08-.59v-11.2l2.76.03.86.09.04-1.38-9.75-.03-.03.07"/>
        <path class="cls-1" d="M287.62,68.81c-1.18.05-2.01.31-2.5,1.23v-.99l-2.25-.03.02.09c.2.94.16,9.38-.06,10.15l-.02.09,2.39.04-.03-.09c-.21-.95-.14-3.24-.08-4.9l.04-1.57c0-.81.2-1.41.6-1.79.36-.35.87-.51,1.53-.48h.39l.03-1.74h-.07"/>
        <path class="cls-1" d="M297.63,77.77c-.18.13-.39.27-.58.27-.22,0-.51-.08-.51-.77v-6.03c0-2.23-2.41-2.46-3.45-2.46-1.3,0-2.28.24-3.61.87l-.05.02v.07s.35,1.46.35,1.46l.12-.09c.88-.67,1.59-1.05,2.63-1.05.86,0,1.78.43,1.78,1.36s-1.06,1.27-2.29,1.62c-1.71.49-3.65,1.05-3.65,3.51,0,1.8,1.17,3.01,2.91,3.01,1.3,0,2.22-.43,3.13-1.45.2.77.57,1.45,1.77,1.45.64,0,1.21-.29,1.58-.53l.04-.02v-1.18s.01-.2.01-.2l-.19.13M294.31,75.86c0,1.22-.96,2.18-2.19,2.18-.94,0-1.58-.68-1.58-1.69,0-1.52,1.33-2.01,2.61-2.49,0,0,.86-.37,1.16-.49v2.49Z"/>
        <path class="cls-1" d="M301.22,70.25v-1.2l-2.25-.03.02.09c.19.88.14,9.52-.04,10.15l-.03.1.09.04h2.31l-.02-.09c-.21-.97-.14-3.3-.08-4.99l.04-1.58c0-1.45.86-2.32,2.31-2.32,1.19,0,1.88.63,1.88,1.71v6.54l-.09.68.07.05h2.31l-.02-.09c-.21-1.03-.14-3.73-.08-5.69l.04-1.77c0-1.91-1.25-3.05-3.35-3.05-1.43,0-2.33.44-3.08,1.47"/>
        <path class="cls-1" d="M309.5,71.88c0,1.94,1.57,2.58,2.96,3.13,1.11.44,2.06.83,2.06,1.76,0,1.09-.97,1.59-1.87,1.59-1.14,0-1.98-.5-2.9-1.24l-.09-.07-.07.08-.38,1.49.05.03c1.09.59,2.25.9,3.37.9,1.97,0,4.08-.88,4.08-3.34,0-2.03-1.62-2.64-3.06-3.19-1.06-.41-1.98-.76-1.98-1.61,0-.96.9-1.45,1.79-1.45.76,0,1.56.3,2.47.94l.09.06.06-.08.37-1.35-.06-.02c-1.1-.49-2.12-.73-3.13-.73-1.87,0-3.77.96-3.77,3.11"/>
        <path class="cls-1" d="M323.33,68.78c-1.17,0-2.17.54-2.91,1.52v-1.25l-2.25-.03.02.09c.16.84.13,12.55-.03,13.2l-.02.09,2.37.04-.02-.09c-.09-.4-.14-.88-.14-1.46l.06-1.48s.02-.7.04-1.02c.7.77,1.59,1.19,2.6,1.19,3.84,0,4.14-4.21,4.14-5.51s-.28-5.27-3.86-5.27M322.64,78.28c-2,0-2.23-2.28-2.23-3.99,0-1.87.27-4.03,2.35-4.03,1.42,0,2.11,1.29,2.11,3.94,0,1.86-.39,4.09-2.23,4.09Z"/>
        <path class="cls-1" d="M333.4,68.78c-2.93,0-4.83,2.06-4.83,5.25,0,2.67,1.28,5.53,4.85,5.53s4.85-2.78,4.85-5.37c0-3.34-1.86-5.41-4.87-5.41M333.42,78.51c-2.4,0-2.52-3.65-2.52-4.39s.12-4.28,2.52-4.28,2.53,3.31,2.53,4.32c0,.73-.12,4.35-2.53,4.35Z"/>
        <path class="cls-1" d="M344.84,68.81c-1.18.05-2,.31-2.49,1.23v-.99l-2.25-.03v.09c.22.93.18,9.38-.03,10.15l-.02.09,2.39.04-.02-.09c-.21-.95-.14-3.24-.09-4.9l.04-1.57c0-.81.2-1.41.6-1.79.36-.34.87-.51,1.53-.48h.39l.04-1.74h-.08"/>
        <path class="cls-1" d="M347.39,67.06h-.06s-.03.08-.03.08v1.9l-1.5-.03-.04,1.13,1.57.03-.03,7.29c0,1.43.66,2.09,2.07,2.09.63,0,1.22-.13,1.78-.4l.04-.02.02-1.13v-.18l-.16.09c-.27.16-.57.3-.88.3-.43,0-.65-.27-.65-.82v-7.25l1.63.03.03-1.13-1.69-.03.03-1.32.04-.73v-.03l-.02-.03s-.06-.06-2.15.16"/>
        <path class="cls-1" d="M343.26,52.4c0,2.91-1.53,5.09-4.65,5.09h-7.26c-3.2,0-4.65-2.28-4.65-5.25s1.63-5.15,4.63-5.15c3.16,0,4.67,2.36,4.67,5.3v5.09c0,2.91-1.53,5.09-4.65,5.09h-3.61v-.84h3.61c2.13,0,2.58-2.63,2.58-4.28v-5.09c0-1.64-.43-4.43-2.58-4.43s-2.58,2.77-2.58,4.39c0,1.15.3,3.02,1.81,3.02h8.8c1.51,0,1.81-1.87,1.81-3.02"/>
        <path class="cls-1" d="M238.9,52.4c0,2.91-1.53,5.09-4.65,5.09h-3.15c-3.19,0-4.65-2.28-4.65-5.25v-7.14c0-.2-.01-.41-.07-.63h2.22c-.06.22-.08.43-.08.63v7.23c0,1.15.3,3.02,1.81,3.02h4.68c1.5,0,1.8-1.87,1.8-3.02"/>
        <path class="cls-1" d="M222.31,52.38v5.09c0,1.64-.45,4.27-2.58,4.27h-3.61v.84h3.61c3.12,0,4.65-2.19,4.65-5.09v-5.09c0-1.13-.22-2.18-.68-3.04h-1.97c.45.94.58,2.15.58,3.02"/>
        <path class="cls-1" d="M256.68,61.27h-1.64c-.16-.43-.26-.47-.26-.93,0-1.23.74-1.05,1.6-1.05l-.13-.78c-1.4,0-2.15-.11-2.15,1.74,0,.35,0,.35.11.6l.54.42h-.53c-.46,0-.91-.1-1.34-.26l-.08.19.5.64c.33.07.67.12,1.01.12h2.46l-.09-.69"/>
        <path class="cls-1" d="M217.08,45.11c0-.2-.02-.41-.08-.63h2.22c-.06.22-.08.43-.08.63v11.76c0,.2.02.41.08.62h-2.22c.06-.21.08-.43.08-.62v-11.76"/>
        <path class="cls-1" d="M322.57,45.11c0-.2-.03-.41-.08-.63h2.22c-.06.22-.08.43-.08.63v11.76c0,.2.02.41.08.62h-2.22c.06-.21.08-.43.08-.62v-11.76"/>
        <path class="cls-1" d="M302.89,47.95c0-.19-.02-.41-.08-.62h2.22c-.06.21-.08.43-.08.62v7.25c0,.19.02.41.08.62h-2.22c.06-.22.08-.43.08-.62v-7.25"/>
        <path class="cls-1" d="M291.34,45.36c0-.19-.02-.41-.08-.62h2.22c-.06.21-.08.43-.08.62v9.84c0,.19.02.41.08.62h-2.22c.06-.22.08-.43.08-.62v-9.84"/>
        <path class="cls-1" d="M251.58,45.36c0-.19-.02-.41-.08-.62h2.22c-.06.21-.08.43-.08.62v9.84c0,.19.02.41.08.62h-2.22c.06-.22.08-.43.08-.62v-9.84"/>
        <path class="cls-1" d="M262.63,44.48c-.06.22-.08.43-.08.63v11.76c0,.2.02.41.08.62h-2.22c.05-.21.07-.43.07-.62v-11.55c0-.2-.02-.41-.07-.62l2.22-.22"/>
        <path class="cls-1" d="M241.46,46.94c-3,0-4.63,2.28-4.63,5.15v.15c0,2.97,1.45,5.25,4.65,5.25s4.65-2.28,4.65-5.25-1.51-5.3-4.67-5.3M244.05,52.34c0,.79-.14,1.92-.72,2.55-.97,1.06-2.67,1.04-3.69.02-.59-.63-.74-1.78-.74-2.57v-.16c0-1.62.44-4.39,2.58-4.39s2.57,2.79,2.57,4.43v.11Z"/>
        <path class="cls-1" d="M345.82,46.94c-3,0-4.63,2.28-4.63,5.15v.15c0,2.97,1.45,5.25,4.65,5.25s4.65-2.28,4.65-5.25-1.51-5.3-4.67-5.3M348.42,52.34c0,.79-.14,1.92-.72,2.55-.97,1.06-2.68,1.04-3.7.02-.59-.63-.74-1.78-.74-2.57v-.16c0-1.62.45-4.39,2.58-4.39s2.58,2.79,2.58,4.43v.11Z"/>
        <path class="cls-1" d="M298.17,45.15c0-.19.02-.41.08-.62l-2.22.21c.06.22.08.43.08.63v7.02c0,1.15-.3,3.03-1.81,3.03h-7.33l.86,2.13h5.7c3.2,0,4.65-2.29,4.65-5.25v-7.14"/>
        <path class="cls-1" d="M258.41,45.15c0-.19.02-.41.08-.62l-2.22.21c.06.22.08.43.08.63v7.02c0,1.15-.3,3.03-1.81,3.03h-7.33l.86,2.13h5.7c3.2,0,4.65-2.29,4.65-5.25v-7.14"/>
        <path class="cls-1" d="M205.77,48.23c0,.68-.62.96-1.2.96-.64,0-1.26-.2-1.26-.94,0-.68.66-.91,1.24-.91s1.22.21,1.22.9"/>
        <path class="cls-1" d="M209.26,48.23c0,.68-.62.96-1.2.96-.64,0-1.26-.2-1.26-.94,0-.68.66-.91,1.24-.91s1.22.21,1.22.9"/>
        <path class="cls-1" d="M275.94,48.23c0,.68-.62.96-1.2.96-.64,0-1.26-.2-1.26-.94,0-.68.66-.91,1.24-.91s1.22.21,1.22.9"/>
        <path class="cls-1" d="M279.43,48.23c0,.68-.62.96-1.21.96-.64,0-1.26-.2-1.26-.94,0-.68.65-.91,1.24-.91s1.22.21,1.22.9"/>
        <path class="cls-1" d="M283.1,52.23v.11c0,1.15-.3,3.02-1.81,3.02h-8.38c-1.28,0-4.18-.12-4.18-1.93v-4.08l-.99.02v4.04c0,3.36,2.94,4.07,5.72,4.07h7.07c3.2,0,4.65-2.28,4.65-5.25v-2.24c0-.19.01-.41.07-.62h-2.22c.05.21.08.43.08.62v2.23"/>
        <path class="cls-1" d="M212.92,52.23v.11c0,1.15-.3,3.02-1.81,3.02h-8.38c-1.28,0-4.18-.12-4.18-1.93v-4.08l-.99.02v4.04c0,3.36,2.94,4.07,5.71,4.07h7.07c3.2,0,4.65-2.28,4.65-5.25v-2.24c0-.19,0-.41.07-.62h-2.22c.06.21.08.43.08.62v2.23"/>
        <path class="cls-1" d="M304.94,55.17v-3.32c0-2.32,1.27-3.67,3.59-3.67h7.31c2.13,0,2.58,2.53,2.58,4.15,0,1.15-.3,3.02-1.81,3.02h-16.63c-1.51,0-1.81-1.87-1.81-3.02h-1.53c0,2.91.98,5.15,4.1,5.15h15.39c3.02,0,4.36-2.24,4.36-5.03v-.22c0-2.86-1.63-4.91-4.63-4.91l-7.48-.11c-3.22,0-4.48,2.28-4.48,5.24v2.9"/>
      </g>
      <g>
        <g>
          <path class="cls-1" d="M113.12,20.28c-.21-1.05-1.95-1.6-3.07-2.02h-.07c-2.23-.77-4.6-1.32-7.04-1.6-.14-.07-.28-.07-.42-.07l-2.44-1.05c-1.12-.56-2.16-.98-3.49-1.12-3-.28-5.93.35-8.92,1.05-3.76.91-7.39,1.95-10.46,2.93-1.12.35-2.23.7-3.35,1.05-.21.07-.42.14-.63.21,0,0-.07.07-.14.07,0,0-.14.07-.21.07l-2.23.7-.42.28c-2.58.77-5.3,1.46-7.88,2.09-1.53.35-3.14.77-4.74,1.19-4.25,1.19-9.83,2.37-15.55,1.74-2.23-.21-4.04-.7-5.65-1.46-.49-.21-.56-.28-.98-.56l-17.22-10.95c-1.88-1.19-4.6-.63-5.72-.28-1.25.42-2.44.98-3.49,1.74-.14.14-.28.28-.28.42s0,.28.07.35l10.32,13.8c-.07.14-.28.56-.84.84L.25,43.57c-.28.28-.28.49-.21.63.21.49,1.25.63,1.67.63h.07c.49-.07.91-.14,1.39-.21,2.02-.21,4.04-.49,5.72-1.6l14.29-9.13c0,.07.07.14.14.21l.35.42c.35.42,1.32.42,1.81.35.28-.07.84-.14.98-.49,0-.07.07-.28-.07-.42-.42-.49-.77-.98-1.19-1.46-.07-.14-.21-.28-.28-.42-.56-.7-1.88-.63-2.51-.21l-15.76,10.18c-.49.35-1.05.56-1.6.7l16.03-12.48c1.32-1.05.42-2.37.42-2.37-3.28-4.32-6.55-8.71-9.83-13.04.98-.63,2.09-1.05,3.07-1.19.77-.14,1.12.07,1.74.49l6.14,3.9c2.23,1.46,4.53,2.93,6.83,4.39l3.56,2.23c.56.35,1.19.7,1.95,1.05,2.51,1.12,5.58,1.67,9.48,1.74h1.53c.84,0,1.67-.07,2.44-.07,1.81-.14,3.56-.35,5.23-.7.84-.14,1.67-.35,2.51-.56,2.65-.77,5.37-1.46,8.09-2.16,2.09-.56,4.18-1.12,6.27-1.67l.21-.07,3.56-1.12.14-.07c.07,0,.14-.07.21-.07.28-.07.63-.21.91-.28,3-.98,5.93-1.88,8.78-2.65,2.37-.7,5.09-1.39,7.81-1.88.84-.14,2.02-.35,2.93-.35h.21q.28,0,.49.07h.14c.14,0,.28.07.42.07s.28,0,.42.07c.21.07.35.14.56.21.21.14.42.28.7.35.35.21.77.35,1.12.49.28.14.49.21.77.35.7.28,1.32.56,2.09.63,1.46.21,3,.49,4.6.91h.28q.07,0,.14.07c.14,0,.21.07.42.07.98.28,2.44.7,2.93,1.25l.07.07s.07.21-.21.49c-.35.28-.21.63-.07.77.42.49,1.95.63,2.44.14.42-.49.7-1.05.56-1.53Z"/>
          <path class="cls-1" d="M84.05,34.65c-.56-.21-1.25-.14-1.74.14l-19.52,10.32-.63.42c-6.62,3.56-13.18,7.04-19.8,10.6-1.67.91-3.35,1.81-5.09,2.72-.28.14-.49.28-.77.42-1.05.56-2.16.98-3.21,1.12h-.91l15.97-9.69c.49-.07.98-.14,1.46-.42l19.8-11.92c.63-.42,1.12-1.05,1.6-1.67.14-.21.35-.42.49-.63.21-.35.21-.56.14-.7s-.28-.42-.77-.49c-.49-.07-1.39,0-1.74.42l-1.46,1.67-.07.07s-.07.07-.14.14l-.56.35c-1.6.98-3.21,1.95-4.81,2.93l-1.53.91c-1.74,1.05-3.49,2.09-5.16,3.14l-7.53,4.53c-.49.07-1.05.21-1.53.49l-1.6.98c-2.09,1.19-4.11,2.44-6.14,3.7l-9.76,5.93c-.28.21-.42.49-.42.77s.21.49.56.63c1.19.35,2.23.63,3.42.63h.91c1.6-.21,3.21-.7,4.88-1.6l24.75-13.25.91-.56,20.15-10.74c.28-.14.42-.42.42-.7s-.21-.49-.56-.63Z"/>
        </g>
        <g class="cls-3">
          <path class="cls-1" d="M19.49,89.44h-8.44l-1.25,2.3h-1.05l5.93-11.22h1.19l5.93,11.22h-1.05l-1.25-2.3ZM19,88.54l-3.7-7.04-3.76,7.04h7.46Z"/>
          <path class="cls-1" d="M24.86,91.81h-1.05v-11.22h1.05v11.22Z"/>
          <path class="cls-1" d="M38.73,91.81l-3.35-4.39c-.35,0-.77.07-1.12.07h-5.02v4.39h-1.05v-11.22h6.07c1.81,0,3.21.28,4.18.84s1.39,1.39,1.39,2.44h0c0,.91-.28,1.6-.84,2.16s-1.39.98-2.51,1.19l3.42,4.53h-1.19ZM34.27,86.52c1.46,0,2.58-.21,3.35-.7.77-.42,1.12-1.12,1.12-1.95h0c0-.77-.35-1.39-1.12-1.81-.77-.42-1.88-.63-3.35-.63h-5.02v5.02h5.02v.07Z"/>
          <path class="cls-1" d="M49.4,81.5v3.83h9.41v.91h-9.41v4.6h10.46v.91h-11.5v-11.22h11.43v.91l-10.39.07h0Z"/>
          <path class="cls-1" d="M72.34,91.81l-4.81-5.02-4.67,5.02h-1.32l5.3-5.65-5.16-5.58h1.25l4.53,4.88,4.6-4.88h1.32l-5.23,5.51,5.44,5.72h-1.25Z"/>
          <path class="cls-1" d="M87.39,84.01h0c0,2.44-1.88,3.7-5.58,3.7h-4.95v4.04h-1.05v-11.22h6c3.76.07,5.58,1.19,5.58,3.49ZM86.35,84.01c0-.84-.35-1.46-1.12-1.88s-1.88-.63-3.42-.63h-4.95v5.37h4.95c1.53,0,2.65-.21,3.42-.7.77-.49,1.12-1.19,1.12-2.16h0Z"/>
          <path class="cls-1" d="M91.23,90.35c-1.19-.98-1.81-2.44-1.81-4.32v-.07c0-1.74.63-3.14,1.81-4.11,1.19-.98,2.86-1.46,5.09-1.46s3.9.49,5.09,1.46c1.19.98,1.81,2.3,1.81,4.11v.07c0,1.88-.63,3.28-1.81,4.32-1.19.98-2.86,1.53-5.09,1.53s-3.9-.49-5.09-1.53ZM100.57,89.72c.98-.84,1.53-2.09,1.53-3.63v-.07c0-1.46-.49-2.65-1.53-3.42-.98-.77-2.44-1.19-4.32-1.19s-3.28.42-4.25,1.19c-.98.77-1.53,1.95-1.53,3.42v.07c0,1.6.49,2.79,1.53,3.63.98.84,2.44,1.25,4.25,1.25s3.35-.42,4.32-1.25Z"/>
        </g>
        <g class="cls-3">
          <path class="cls-1" d="M21.23,104.29h1.05l4.67,10.53h-1.53l-1.39-3.07h-4.46l-1.32,3.07h-1.53l4.53-10.53ZM23.46,110.36l-1.67-3.76-1.53,3.76h3.21Z"/>
          <path class="cls-1" d="M31.69,114.82h-3.56v-10.46h2.72c.84,0,1.53.14,2.02.35.49.21.84.56,1.12.98.28.42.35.91.35,1.39,0,1.05-.56,1.74-1.6,2.23.77.14,1.39.49,1.81.98s.7,1.05.7,1.74c0,.56-.14,1.05-.42,1.46s-.7.77-1.19,1.05-1.12.28-1.95.28ZM30.92,105.69h-1.25v3.14h.98c.77,0,1.39-.14,1.67-.49s.49-.7.49-1.19c.07-.98-.56-1.46-1.88-1.46ZM31.06,110.15h-1.39v3.35h1.46c.84,0,1.39-.07,1.67-.21.28-.14.56-.35.7-.63.21-.28.28-.56.28-.84,0-.35-.07-.63-.28-.91s-.42-.49-.77-.56-.98-.21-1.67-.21Z"/>
          <path class="cls-1" d="M44.1,104.36h1.53v5.93c0,.84-.07,1.39-.21,1.81-.14.42-.28.77-.42,1.05s-.35.49-.63.7c-.84.7-1.88,1.05-3.28,1.05s-2.44-.35-3.28-1.05c-.28-.21-.49-.49-.63-.77s-.35-.63-.42-.98-.14-1.05-.14-1.88v-5.93h1.53v5.93c0,.98.14,1.67.35,2.02s.56.7,1.05.91.98.35,1.6.35c.91,0,1.6-.21,2.16-.7.28-.28.49-.56.63-.91.14-.35.21-.91.21-1.74v-5.79h-.07Z"/>
          <path class="cls-1" d="M51.91,114.75v-10.46h3.56c1.39,0,2.58.21,3.35.63.84.42,1.46,1.05,1.95,1.88.49.84.77,1.74.77,2.72,0,.7-.14,1.39-.42,2.02-.28.63-.63,1.19-1.19,1.67-.49.49-1.12.91-1.74,1.12-.42.14-.77.28-1.12.28-.35.07-.98.07-1.88.07h-3.28v.07h0ZM55.32,105.69h-1.88v7.81h1.95c.77,0,1.32-.07,1.74-.14.42-.07.77-.21,1.05-.42.28-.14.56-.35.77-.56.77-.77,1.12-1.67,1.12-2.86,0-1.12-.35-2.02-1.12-2.72-.28-.28-.63-.49-.98-.63s-.7-.28-1.05-.35c-.42-.14-.91-.14-1.6-.14Z"/>
          <path class="cls-1" d="M70.8,104.36h1.46v10.46h-1.46v-4.53h-5.86v4.53h-1.46v-10.46h1.46v4.53h5.86v-4.53Z"/>
          <path class="cls-1" d="M77.91,104.29h1.05l4.67,10.53h-1.46l-1.39-3.07h-4.46l-1.32,3.07h-1.53l4.46-10.53ZM80.14,110.36l-1.67-3.76-1.53,3.76h3.21Z"/>
          <path class="cls-1" d="M88.37,114.82h-3.56v-10.46h2.72c.84,0,1.53.14,2.02.35s.84.56,1.12.98c.28.42.35.91.35,1.39,0,1.05-.56,1.74-1.6,2.23.77.14,1.39.49,1.81.98.42.49.7,1.05.7,1.74,0,.56-.14,1.05-.42,1.46-.28.42-.7.77-1.19,1.05s-1.19.28-1.95.28ZM87.6,105.69h-1.25v3.14h.98c.77,0,1.39-.14,1.67-.49s.49-.7.49-1.19c.07-.98-.63-1.46-1.88-1.46ZM87.74,110.15h-1.39v3.35h1.46c.84,0,1.39-.07,1.67-.21s.56-.35.7-.63.28-.56.28-.84c0-.35-.07-.63-.28-.91s-.42-.49-.77-.56-.98-.21-1.67-.21Z"/>
          <path class="cls-1" d="M93.46,104.36h1.46v10.46h-1.46v-10.46Z"/>
        </g>
      </g>
      <line class="cls-4" x1="155.31" y1="127" x2="155.31"/>
    </g>
  </g>
</svg>