<?xml version="1.0" encoding="UTF-8"?><svg id="Layer_2" xmlns="http://www.w3.org/2000/svg" viewBox="0 0 107.67 75.61"><defs><style>.cls-1{fill:#0a0b0b;}</style></defs><g id="Layer_2-2"><path class="cls-1" d="m107.67,58.36c0-3.67-1.78-6.14-5.27-7.35-2.34-.81-3.34-2.21-3.34-4.7,0-7.41.02-14.82-.02-22.24,0-1.34-.11-2.69-.34-4.01-1.92-11.11-13.92-17.91-24.48-13.9-7.4,2.81-12.4,9.91-12.45,17.84-.05,7.41-.01,14.82-.01,22.24,0,.13-.01.25-.02.38-.29-1.23-.58-2.46-.89-3.69-.89-3.52-2-6.99-2.25-10.63-.16-2.35-.12-4.72-.25-7.08-.11-1.9-.23-3.81-.45-5.7-.24-1.98-.6-3.95-1.2-5.88-.06-.19-.03-.45.05-.64.9-2.16.39-3.77-1.6-5.01-.32-.2-.64-.43-.87-.71-1.77-2.23-3.96-3.93-6.52-5.14C43.47.11,38.96-.36,34.3.25c-4.48.59-8.45,2.32-11.67,5.55-.91.91-1.78,1.83-2.89,2.54-1.4.9-1.85,2.36-1.22,3.87.32.77.27,1.4.08,2.17-1.19,4.66-1.46,9.43-1.49,14.21-.03,4-.6,7.88-1.68,11.71-.77,2.73-1.69,5.43-2.3,8.19-.67,2.99-1.07,6.03-1.61,9.16-.55.16-1.29.35-2.01.58-3.31,1.06-6.18,2.73-7.86,5.94-1.52,2.9-1.63,6.02-1.64,9.23h2.41c.05-1.3.09-2.55.18-3.78.23-2.93,1.21-5.49,3.72-7.26,1.47-1.03,3.11-1.7,4.84-2.14,4.03-1.03,8.03-2.15,11.76-4.05.19-.1.56.02.78.15,1.26.75,2.44,1.69,3.77,2.26,2.13.91,4.36,1.58,6.66,2.4v7.31c0,2.01-.01,4.01,0,6.02.01,1,.83,1.56,1.7,1.2.62-.26.73-.77.73-1.37,0-3.94,0-7.87,0-11.81v-1.32c.17-.02.22-.04.27-.04,5.62.13,10.73-1.36,15.23-4.79.16-.12.53-.12.71-.02,2.63,1.41,5.43,2.37,8.3,3.17,2,.56,4.02,1.06,5.95,1.81,3.4,1.32,5.43,3.86,5.82,7.53.2,1.86.21,3.75.29,5.62.02.55.18,1.09.75,1.18.42.07.97-.04,1.3-.29.26-.19.38-.72.38-1.09,0-.06,0-.13,0-.19,0-1.46-.03-2.92-.14-4.38-.15-2-.63-3.78-1.43-5.33.06.02.12.04.18.06,4.03,1.48,8.05,1.59,12.09.13,2.02-.73,4.02-1.5,6.04-2.25,4-1.5,8.12-2.37,12.51-2.52,0,2.74,0,5.36,0,7.99,0,1.55-.01,3.11,0,4.66.01.91.6,1.54,1.39,1.56.82.02,1.43-.63,1.47-1.58,0-.15,0-.3,0-.45,0-4.48,0-8.97,0-13.45ZM50.22,6.67c-4.05-.18-8.24-.52-12.42-.52-4.16,0-8.33.33-12.35.52,5.86-5.74,19.07-5.61,24.77,0Zm-29.1,3.78c.46-.33,1.01-.63,1.56-.7,5.03-.71,10.05-1.46,15.11-1.15,5.15-.3,10.18.44,15.21,1.15.54.08,1.09.41,1.53.76.59.46.4,1.41-.32,1.65-.42.14-.92.2-1.34.11-6.39-1.32-12.85-1.4-19.33-1.19-3.66.11-7.29.44-10.88,1.21-.4.08-.87,0-1.26-.13-.76-.27-.91-1.23-.26-1.7Zm-2.26,25.18c.3-3.26.36-6.53.66-9.79.31-3.46.78-6.9,1.19-10.35.04-.32.16-.63.18-.73,1.68-.22,3.15-.4,4.62-.6,5.53-.79,11.08-.81,16.65-.67,3.59.1,7.13.53,10.65,1.19.53.1,1.1.01,1.83.01.27,1.65.66,3.34.79,5.04.29,3.67.49,7.34.63,11.02.12,3.12.68,6.15,1.44,9.15.03.12.06.24.15.57-.22-.28-.33-.39-.41-.52-2.3-3.48-3.42-7.32-3.47-11.49-.03-2.36-.16-4.72-.11-7.08.04-1.93-.83-3.24-2.41-4.18-2.12-1.26-4.46-1.51-6.84-1.28-1.2.12-2.4.38-3.58.69-1.86.49-3.67.5-5.56.11-1.98-.41-4-.72-6.01-.82-1.84-.09-3.62.42-5.2,1.46-1.41.93-2.13,2.18-2.16,3.94-.06,3.53-.18,7.05-.46,10.57-.23,3.01-1.68,5.6-3.32,8.08-.02.03-.09.04-.17.08.31-1.48.76-2.93.9-4.4Zm24.57,9.08c-3.06,1.84-6.27,2.06-9.35.92-3.67-1.36-6.69-3.81-8.18-7.69-.26-.68-.51-1.37-.77-2.05l.17-.16c.66.55,1.37,1.05,1.96,1.66,1.57,1.63,3.43,1.92,5.52,1.4.81-.2,1.62-.4,2.43-.62,1.75-.49,3.49-.47,5.25.03,1.12.32,2.26.54,3.41.76,1.34.25,2.57-.03,3.66-.87.88-.68,1.76-1.36,2.74-2.11-.05.24-.07.39-.11.53-1.18,3.61-3.44,6.23-6.72,8.2Zm3.12,5.87c-5.77,2.54-11.67,2.5-17.52-.05.11-1.59.2-3.06.31-4.6,5.63,3.94,11.27,4.05,16.89-.14.11,1.6.21,3.11.33,4.79Zm.96-15.59c-1.45,1.55-3.02,1.83-5,1.17-3.11-1.04-6.27-1.13-9.4.06-.51.2-1.09.23-1.64.33-.68.12-1.3,0-1.84-.49-.34-.3-.72-.56-1.06-.86-1.35-1.22-2.79-2.28-4.54-2.49.11-3.97.24-7.82.32-11.67.02-.84.51-1.3,1.12-1.67,1.73-1.04,3.64-1.21,5.59-.98.9.1,1.8.29,2.68.53,2.84.8,5.65.68,8.48-.11,1.98-.56,3.99-.73,6.01-.2.51.14,1.01.33,1.49.56.99.48,1.47,1.18,1.49,2.39.05,3.47.25,6.95.43,10.42.03.52-.04.78-.6.9-1.4.32-2.6,1.1-3.55,2.12Zm-23.14,14.54c-.47,1.07-.98,2.11-1.43,3.19-.26.63-.66,1.07-1.28,1.31-2.35.92-4.71,1.85-7.06,2.77-.13.05-.29.05-.6.1.23-1.57.46-3.06.66-4.56.26-1.92,1.02-3.61,2.05-5.25,1.88-3.01,3.64-6.09,5.44-9.15.22-.37.37-.77.59-1.22.41.97.7,1.92,1.18,2.75.77,1.33,1.68,2.59,2.52,3.88.15.22.35.47.36.71.03,1.52.01,3.04,0,4.57,0,.14-.07.29-.13.53-.26-.14-.43-.25-.61-.32-.74-.3-1.36-.01-1.68.71Zm25.72,5.02c-2.85,2.06-6.02,3.35-9.51,3.79-5.46.68-10.47-.54-15.02-3.66-.55-.38-.68-.7-.31-1.27.3-.46.51-.99.76-1.49.02-.04.08-.06.11-.09,7.76,4.08,15.53,4.09,23.38-.02.33.68.71,1.37.99,2.09.06.15-.21.51-.41.66Zm3.15-1.09c-.22-.13-.41-.38-.53-.61-.48-.92-.92-1.86-1.37-2.8-.67-1.39-1.02-1.53-2.46-.91-.04-.26-.1-.5-.12-.75-.02-.33.02-.66-.01-.99-.21-2.22.12-4.17,1.7-6,1.1-1.28,1.64-3.05,2.31-4.38,1.93,3.25,3.89,6.74,6.04,10.11,1.23,1.92,1.81,3.99,2.14,6.18.16,1.1.3,2.2.47,3.45-2.94-.9-5.65-1.87-8.17-3.3Zm45.93,3.83c-4.37.67-8.45,2.31-12.53,3.92-2.78,1.09-5.61,1.82-8.56,1.15-1.94-.44-3.83-1.13-5.68-1.86-1.24-.49-2.48-.95-3.73-1.37-.29-.14-.58-.27-.89-.4-1.26-.52-2.58-.9-3.89-1.36-.09-.87-.09-1.8-.29-2.68-.24-1.08-.49-2.15-.73-3.23,1.05-1.22,1.66-2.8,1.81-4.79.21.26.37.44.51.63,3.38,4.68,8.02,7.21,13.66,8,.52.07,1.07.02,1.6-.06.88-.14,1.4-.74,1.38-1.49-.02-.8-.6-1.26-1.57-1.41-1.64-.25-3.34-.37-4.91-.89-6.36-2.11-10.67-8.14-10.72-14.84-.03-4.18-.03-8.37,0-12.55.07-8,5.77-14.65,13.65-15.95,8.39-1.39,16.84,4.92,17.71,13.38.29,2.84.18,5.73.19,8.59,0,2.81.11,5.63-.17,8.42-.51,4.85-3,8.61-7.04,11.33-.17.12-.36.22-.53.34-.84.57-1.08,1.33-.64,2.05.46.75,1.29.89,2.19.35,2.24-1.34,4.09-3.09,5.61-5.2.14-.19.27-.39.37-.52.38,1.15.63,2.35,1.16,3.42.91,1.84,2.51,2.91,4.45,3.5,1.46.45,2.48,1.36,2.99,2.85-1.85.23-3.63.41-5.39.68Z"/><path class="cls-1" d="m92.93,38.79c.11-.53.19-1.06.25-1.6v-4.9h0s0-.07,0-.1v-3.67c-.12-1.1-.25-2.18-.37-3.28-1.42-5.19-6.2-9.06-11.58-9.28-6.48-.26-12.1,3.79-13.35,9.89-.8,3.91-.61,7.94-.18,11.87.67,6.09,5.98,10.8,12.03,11.05,6.33.26,11.94-3.88,13.2-9.98Zm-13.47-20.09c3.36-.3,6.18.86,8.61,3.51h-15.29c1.84-2.15,4.06-3.28,6.68-3.51Zm.02,27.17c-5.06-.53-9.01-4.66-9.09-9.66-.05-3.04-.03-6.09.16-9.12.12-1.99.28-1.98,2.27-1.98h7.61c2.87,0,5.73.02,8.6-.01.59,0,.89.17.99.73.1.53.3,1.05.31,1.58.09,3.66.55,7.36-.26,10.97-1.07,4.77-5.79,8-10.59,7.5Z"/><path class="cls-1" d="m96.21,65.28c-.84-.01-1.44.61-1.45,1.58-.02,1.79-.02,3.58,0,5.38,0,.96.63,1.61,1.45,1.59.82-.02,1.39-.66,1.41-1.64.01-.87,0-1.73,0-2.6s.01-1.79,0-2.69c-.02-.99-.57-1.61-1.41-1.63Z"/><path class="cls-1" d="m39.01,63.42c-.66,0-1.22.54-1.22,1.2,0,.66.54,1.22,1.2,1.22.66,0,1.22-.55,1.22-1.21,0-.66-.54-1.22-1.21-1.22Z"/><path class="cls-1" d="m39.01,69.51c-.66,0-1.22.54-1.22,1.2,0,.66.54,1.22,1.2,1.22.66,0,1.22-.55,1.22-1.21,0-.66-.54-1.22-1.21-1.22Z"/></g></svg>