<?xml version="1.0" encoding="UTF-8"?><svg id="Layer_2" xmlns="http://www.w3.org/2000/svg" viewBox="0 0 94.25 94.24"><defs><style>.cls-1{fill:#0a0b0b;}</style></defs><g id="Layer_2-2"><path class="cls-1" d="m20.25,94.24c-2.85-1.45-3.97-3.83-3.61-6.93.17-1.45-.3-2.25-1.67-2.95-2.47-1.26-3.43-3.6-3.44-6.28-.03-12.7-.01-25.4-.01-38.1,0-1.05.18-2.09,1.53-2.03,1.24.05,1.3,1.04,1.3,2.02,0,7.85,0,15.71,0,23.56,0,.66,0,1.32,0,2.16,2.89,0,5.57.06,8.26-.02,2.04-.06,3.37.67,4.08,2.66.61,1.73,1.44,3.38,2.14,5.07.9,2.17.26,3.15-2.04,3.16-4.09.02-8.19,0-12.26,0-.52,4.14,1.05,6.01,4.95,6.01,18.41.01,36.81.01,55.22,0,3.95,0,5.43-1.7,5.08-6.01-3.64,0-7.3,0-10.96,0-.67,0-1.35.04-2.02-.01-1.4-.11-2.15-1.08-1.65-2.39.9-2.34,1.77-4.72,3.03-6.87.49-.83,1.95-1.45,3.02-1.53,2.8-.21,5.63-.07,8.7-.07v-2.08c0-15.89,0-31.78,0-47.67,0-4.04-1.34-5.36-5.43-5.36-18.22,0-36.44,0-54.66,0-4.18,0-5.44,1.29-5.44,5.53,0,5.28,0,10.55,0,15.83,0,1.02.04,2.16-1.29,2.22-1.44.07-1.55-1.11-1.55-2.21,0-3.36,0-6.72,0-10.2h-3.07c-.03.61-.08,1.26-.08,1.9,0,4.54-.01,9.08,0,13.62,0,1.48-.12,3.02-1.73,3.51-1.93.59-4.04.89-5.78-.52-.52-.42-.81-1.39-.82-2.11C-.02,32.63,0,27.11.03,21.59c.01-1.82,1.03-2.76,2.9-2.8,2.76-.05,5.51-.06,8.27-.1.05,0,.1-.07.29-.22.15-3.05-.42-6.4,2.33-8.96,2.74-2.54,6.13-1.47,9.42-1.89,0-.86-.03-1.64,0-2.42C23.36,2.1,25.43.02,28.51.01c12.39-.02,24.79-.02,37.18,0,3.09,0,5.19,2.06,5.32,5.13.03.79,0,1.58,0,2.47,3.23.46,6.64-.66,9.38,1.87,2.76,2.55,2.29,5.88,2.36,9.3,2.55,0,4.99.09,7.42-.03,1.64-.08,2.98.29,4.08,1.5v19.14c-1.47,1.7-4.27,2.35-6.5,1.49-2.08-.81-1.86-2.64-1.86-4.35,0-4.29,0-8.58,0-12.87,0-.65-.05-1.29-.08-1.9h-3.07c0,.9,0,1.69,0,2.47,0,17.71,0,35.43,0,53.14,0,2.94-.72,5.57-3.47,7-1.38.72-1.83,1.51-1.66,2.95.36,3.1-.76,5.47-3.61,6.93h-12.15c-4.17-1.61-3.81-5.3-3.74-8.72h-22.02c.17,3.57.38,7.11-3.7,8.72h-12.15ZM67.95,7.65c.57-3.65.18-4.93-3.9-4.84-6.81.15-13.62.04-20.43.04-4.97,0-9.94-.02-14.91.01-1.85.01-2.55.74-2.61,2.54-.02.72,0,1.44,0,2.24h41.84Zm-34.78,77.91h-13.67c0,1.07,0,1.99,0,2.91.03,2.23.71,2.92,3,2.95,1.9.03,3.8,0,5.7,0,5.16,0,5.6-.51,4.98-5.86Zm27.76-.08c0,1.11-.02,2.02,0,2.94.05,2.35.64,2.96,2.94,3,1.84.03,3.68,0,5.52,0,5.44,0,5.58-.15,5.31-5.56,0-.1-.11-.2-.2-.38h-13.57Zm-46.5-11.85h11.41c-.67-1.56-1.22-2.97-1.88-4.33-.17-.35-.69-.74-1.06-.75-2.79-.06-5.59-.03-8.46-.03v5.11Zm65.34.04v-5.16c-2.85,0-5.59-.03-8.33.03-.39,0-.95.33-1.12.67-.69,1.4-1.26,2.86-1.94,4.46h11.39ZM5.43,38.23v-16.5h-2.44v16.5h2.44Zm83.41-16.5v16.45h2.47v-16.45h-2.47Z"/><path class="cls-1" d="m47.22,18.78c8.65,0,17.29,0,25.94,0,2.85,0,4.03,1.13,4.04,4,.02,9.69.02,19.38,0,29.07,0,2.68-1.28,3.99-3.95,3.99-17.42.02-34.84.02-52.25,0-2.66,0-3.93-1.31-3.94-4-.03-9.69-.02-19.38,0-29.07,0-2.87,1.18-4,4.04-4,8.71,0,17.42,0,26.13,0Zm-27.34,2.96c0,10.18.01,20.12-.02,30.05,0,1.37.85,1.23,1.72,1.23,16.99,0,33.99-.02,50.98.03,1.49,0,1.86-.45,1.85-1.88-.06-9.26-.03-18.53-.04-27.79,0-.53-.07-1.06-.11-1.64H19.88Z"/><path class="cls-1" d="m61.24,64.05c-1.85,0-3.4.13-4.9-.06-.65-.08-1.21-.85-1.81-1.3.53-.48,1.04-1.32,1.61-1.37,1.88-.17,3.8-.16,5.69,0,1.86.16,2.87,1.71,2.16,3.45-1.43,3.51-2.96,6.99-4.64,10.38-.34.69-1.53,1.35-2.33,1.36-6.56.11-13.12.12-19.68-.01-.88-.02-2.15-.82-2.55-1.61-1.63-3.22-3.04-6.54-4.42-9.88-.83-2,.21-3.69,2.37-3.73,5.46-.09,10.92-.08,16.37.03.58.01,1.14.94,1.71,1.44-.62.43-1.23,1.23-1.85,1.25-5.21.1-10.42.06-15.93.06,1.4,3.17,2.7,6.18,4.09,9.14.16.33.91.53,1.38.54,5.76.04,11.53.05,17.29-.02.53,0,1.33-.42,1.54-.87,1.34-2.8,2.54-5.67,3.91-8.8Z"/><path class="cls-1" d="m47.12,13.26c4.59,0,9.19,0,13.78,0,1.09,0,2.3-.03,2.28,1.42-.02,1.23-1.1,1.44-2.17,1.44-9.25,0-18.5,0-27.75,0-1.06,0-2.15-.19-2.18-1.42-.04-1.44,1.16-1.44,2.26-1.43,4.59.02,9.19,0,13.78,0Z"/><path class="cls-1" d="m47.05,70.3c-1.96,0-3.93.11-5.87-.06-.63-.06-1.19-.85-1.79-1.3.59-.48,1.16-1.36,1.76-1.38,3.97-.12,7.95-.12,11.93,0,.61.02,1.61.81,1.7,1.37.19,1.2-.84,1.4-1.85,1.39-1.96-.02-3.92,0-5.87,0Z"/><path class="cls-1" d="m24.68,12.64c.66.95,1.37,1.53,1.3,1.99-.07.52-.86,1.29-1.33,1.29-.47,0-1.24-.79-1.3-1.31-.06-.47.66-1.03,1.33-1.97Z"/><path class="cls-1" d="m69.62,12.64c.65.95,1.35,1.54,1.28,2-.08.52-.87,1.29-1.34,1.28-.47,0-1.23-.81-1.3-1.33-.06-.47.67-1.03,1.35-1.96Z"/></g></svg>