<?xml version="1.0" encoding="UTF-8"?><svg id="Layer_2" xmlns="http://www.w3.org/2000/svg" viewBox="0 0 84.26 84.29"><defs><style>.cls-1{fill:#0a0b0b;}</style></defs><g id="Layer_2-2"><path class="cls-1" d="m66.65,84.29H3.95c-.22-.09-.44-.19-.67-.28C1.27,83.27,0,81.49,0,79.36,0,56.73,0,34.11,0,11.48c0-2.23,1.47-4.17,3.63-4.7.73-.18,1.52-.16,2.28-.18,1.52-.02,3.05,0,4.56,0C10.83,2.43,12.63.19,15.63.02c1.49-.09,2.83.27,3.99,1.21,1.71,1.36,2.26,3.21,2.11,5.3h14.74c.27-3.98,2.04-6.25,5.01-6.5,1.41-.12,2.73.18,3.88,1.02,1.88,1.36,2.49,3.3,2.37,5.49h14.68c.42-4.13,2.15-6.31,5.11-6.51,1.42-.1,2.72.21,3.87,1.07,1.83,1.36,2.43,3.28,2.33,5.51,1.96,0,3.82,0,5.68,0,1.33,0,2.52.45,3.37,1.45.62.73.99,1.66,1.48,2.5v56.13c-.38.43-.73.87-1.13,1.27-5.06,5.07-10.13,10.14-15.2,15.2-.4.4-.85.76-1.27,1.14ZM3.29,25.03h1.08c21.45,0,42.89,0,64.34,0,.27,0,.55-.01.82,0,.96.05,1.62.79,1.57,1.75-.05,1-.76,1.54-2.02,1.54-21.55,0-43.11,0-64.66,0-.35,0-.69,0-1.05,0v44.69h1.04c6.83,0,13.66,0,20.49,0,.33,0,.66,0,.99.03.91.1,1.55.76,1.57,1.61.02.85-.66,1.6-1.58,1.7-.27.03-.55.01-.82.01-6.91,0-13.82,0-20.73,0-.32,0-.63,0-1,0,0,.85,0,1.59,0,2.33,0,1.77.53,2.3,2.31,2.3,19.28,0,38.56,0,57.84,0,.29,0,.59,0,.96,0,0-.38,0-.68,0-.97,0-3.37,0-6.75,0-10.12,0-3.42,2.06-5.46,5.49-5.47,3.37,0,6.75,0,10.12,0,.29,0,.58,0,.95,0,0-.42,0-.75,0-1.07,0-17.03,0-34.07,0-51.1,0-.19,0-.38,0-.58-.05-1.12-.7-1.78-1.82-1.79-1.62-.02-3.24,0-4.85,0-.18,0-.36.04-.58.07,0,1.31.03,2.57,0,3.83-.11,4.24-4.69,6.86-8.37,4.76-1.92-1.1-2.85-2.82-2.85-5.03,0-1.2,0-2.39,0-3.57h-14.77c0,1.38.03,2.69,0,4-.1,3.39-3.46,5.97-6.75,5.21-2.67-.62-4.38-2.72-4.44-5.47-.02-1.25,0-2.5,0-3.75h-14.79c0,1.28,0,2.5,0,3.73-.01,3.13-2.46,5.6-5.56,5.6-3.15,0-5.61-2.45-5.62-5.63,0-1.23,0-2.45,0-3.74-1.97,0-3.85-.04-5.73.02-.88.03-1.45.75-1.5,1.67-.03.6,0,1.21,0,1.81,0,3.84,0,7.67,0,11.63Zm64.5,53.23c3.49-3.49,6.98-6.98,10.45-10.45-2.96,0-6.02-.02-9.08.01-.74,0-1.35.65-1.35,1.41-.03,3.04-.01,6.08-.01,9.03ZM18.43,9.67c0-1.29.01-2.57,0-3.86-.01-.93-.35-1.71-1.2-2.18-1.59-.88-3.37.23-3.4,2.17-.03,2.52-.02,5.04,0,7.56,0,1.56.99,2.65,2.33,2.62,1.32-.03,2.25-1.08,2.27-2.6.01-1.23,0-2.46,0-3.7Zm21.39-.02c0,1.29,0,2.57,0,3.86.01,1.39.96,2.42,2.22,2.47,1.22.04,2.3-.91,2.33-2.27.06-2.71.06-5.42,0-8.13-.03-1.35-1.12-2.31-2.34-2.26-1.27.05-2.21,1.08-2.22,2.47-.01,1.29,0,2.57,0,3.86Zm26-.04c0,1.34-.01,2.68,0,4.02.02,1.28.95,2.27,2.17,2.34,1.16.07,2.29-.81,2.32-2.07.08-2.84.08-5.69,0-8.53-.03-1.25-1.17-2.13-2.33-2.05-1.22.08-2.14,1.06-2.16,2.35-.02,1.31,0,2.63,0,3.94Z"/><path class="cls-1" d="m39.53,46.43v3.91c.28.01.54.04.81.04,1.59,0,3.18-.01,4.77,0,1.65.02,3.05,1.36,3.1,3.02.04,1.48.04,2.96,0,4.44-.04,1.69-1.44,3.05-3.13,3.07-1.92.02-3.84.02-5.76,0-1.69-.02-3.09-1.4-3.1-3.09-.02-3.87-.02-7.73,0-11.6,0-1.65,1.4-3.05,3.04-3.07,2.41-.03,4.82-.02,7.24,0,1,0,1.7.68,1.72,1.61.02.96-.7,1.67-1.73,1.68-2,.01-4,0-6,0-.3,0-.59,0-.94,0Zm0,11.13h5.33v-3.82h-5.33v3.82Z"/><path class="cls-1" d="m28.93,57.62v-3.95c-1.2,0-2.37,0-3.54,0-1.15,0-2.3.01-3.45,0-.96-.02-1.69-.75-1.68-1.65,0-.9.74-1.62,1.71-1.63,2.3-.01,4.59,0,6.95,0v-3.95c-.31,0-.6,0-.9,0-2.03,0-4.06.01-6.08,0-.96,0-1.69-.76-1.67-1.66.01-.88.72-1.61,1.63-1.62,2.47-.02,4.93-.03,7.4,0,1.56.02,2.94,1.4,2.95,2.97.03,3.95.03,7.89,0,11.84-.01,1.56-1.41,2.93-2.98,2.95-2.44.03-4.88.02-7.32,0-.97,0-1.69-.74-1.69-1.64,0-.91.73-1.63,1.7-1.64,2.3-.01,4.6,0,6.97,0Z"/><path class="cls-1" d="m60.76,57.62v-3.95c-1.4,0-2.79-.09-4.17.02-3.2.24-4.72-1.27-4.45-4.5.08-1.01,0-2.03.03-3.04.06-1.67,1.42-2.99,3.09-3.01,2.39-.02,4.77-.01,7.16,0,1.01,0,1.77.76,1.75,1.68-.03.9-.76,1.6-1.74,1.6-2.28.01-4.55,0-6.89,0v3.95c1.36,0,2.75,0,4.14,0,3.58,0,4.5.92,4.5,4.53,0,.91.02,1.81,0,2.72-.04,1.94-1.41,3.28-3.35,3.29-2.28,0-4.55,0-6.83,0-1.15,0-1.82-.63-1.82-1.65,0-1.02.68-1.63,1.83-1.64,1.97,0,3.95,0,5.92,0,.27,0,.54,0,.85,0Z"/><path class="cls-1" d="m34.01,74.65c.03.87-.76,1.69-1.64,1.72-.88.03-1.7-.75-1.73-1.63-.03-.9.72-1.67,1.64-1.69.92-.02,1.7.7,1.73,1.61Z"/><path class="cls-1" d="m76.01,28.32c-.94,0-1.64-.74-1.63-1.68.02-.94.75-1.63,1.7-1.61.9.03,1.59.73,1.59,1.64,0,.94-.72,1.66-1.66,1.65Z"/></g></svg>