<?xml version="1.0" encoding="UTF-8"?>
<svg id="Layer_2" xmlns="http://www.w3.org/2000/svg" viewBox="0 0 197.17 86.63">
  <defs>
    <style>
      .cls-1 {
        fill: #c6242d;
      }
    </style>
  </defs>
  <g id="Layer_2-2" data-name="Layer_2">
    <g>
      <polygon points="4.08 78.73 4.08 79.93 0 79.93 0 74.03 4 74.03 4 75.23 1.34 75.23 1.34 76.37 3.63 76.37 3.63 77.48 1.34 77.48 1.34 78.73 4.08 78.73"/>
      <polygon points="9.47 79.93 9.47 76.4 8.21 78.97 7.49 78.97 6.23 76.4 6.23 79.93 4.89 79.93 4.89 74.03 6.35 74.03 7.85 77.11 9.36 74.03 10.81 74.03 10.81 79.93 9.47 79.93"/>
      <rect x="11.92" y="74.03" width="1.34" height="5.9"/>
      <g>
        <path d="M14.37,79.93v-5.9h2.61c.27,0,.52.06.76.17.23.12.43.27.6.46.17.19.3.4.4.64.1.24.14.48.14.72,0,.18-.02.36-.07.53-.04.17-.11.33-.19.48-.08.15-.18.28-.3.4-.12.12-.25.22-.4.3l1.27,2.19h-1.51l-1.11-1.9h-.87v1.9h-1.34ZM15.71,76.84h1.23c.16,0,.29-.08.41-.23.11-.15.17-.35.17-.59s-.07-.44-.2-.58c-.13-.14-.27-.22-.42-.22h-1.18v1.61Z"/>
        <path d="M21.33,74.03h1.21l2.12,5.9h-1.37l-.45-1.32h-1.81l-.44,1.32h-1.37l2.12-5.9ZM22.61,77.67l-.68-2.09-.69,2.09h1.37Z"/>
        <polygon points="29.07 75.23 27.31 75.23 27.31 79.93 25.97 79.93 25.97 75.23 24.19 75.23 24.19 74.03 29.07 74.03 29.07 75.23"/>
        <polygon points="33.8 78.73 33.8 79.93 29.72 79.93 29.72 74.03 33.73 74.03 33.73 75.23 31.06 75.23 31.06 76.37 33.35 76.37 33.35 77.48 31.06 77.48 31.06 78.73 33.8 78.73"/>
        <path d="M37.97,75.76s-.07-.06-.17-.12-.22-.12-.37-.19c-.15-.07-.31-.12-.48-.17-.17-.05-.35-.07-.52-.07-.48,0-.72.16-.72.49,0,.1.03.18.08.25.05.07.13.13.23.18.1.05.23.1.38.15.15.04.33.09.53.15.28.08.53.16.75.25.22.09.41.2.57.34.16.14.27.3.36.49.08.19.13.43.13.7,0,.33-.06.61-.18.84-.12.23-.28.42-.49.56-.2.14-.43.24-.69.31-.26.06-.53.1-.81.1-.21,0-.43-.02-.65-.05-.22-.03-.44-.08-.65-.15-.21-.06-.42-.14-.62-.23-.2-.09-.38-.19-.55-.31l.59-1.19s.09.08.21.16c.12.08.27.15.45.23.18.08.37.15.59.21.22.06.44.09.66.09.47,0,.71-.15.71-.44,0-.11-.04-.2-.11-.27-.07-.07-.17-.14-.29-.2-.13-.06-.27-.11-.45-.16-.17-.05-.36-.11-.56-.17-.27-.08-.5-.17-.69-.27-.2-.1-.36-.21-.49-.34-.13-.13-.22-.27-.29-.44s-.09-.36-.09-.58c0-.31.06-.58.17-.82.11-.24.27-.44.47-.6.2-.16.42-.29.68-.37.26-.08.53-.12.82-.12.2,0,.4.02.6.06.2.04.38.09.56.15.18.06.35.13.5.21.16.08.3.16.43.23l-.59,1.13Z"/>
        <polygon points="45.61 75.23 43.85 75.23 43.85 79.93 42.51 79.93 42.51 75.23 40.73 75.23 40.73 74.03 45.61 74.03 45.61 75.23"/>
        <path d="M46.26,79.93v-5.9h2.61c.27,0,.52.06.76.17.23.12.43.27.6.46.17.19.3.4.4.64.1.24.14.48.14.72,0,.18-.02.36-.07.53-.04.17-.11.33-.19.48-.08.15-.18.28-.3.4-.12.12-.25.22-.4.3l1.27,2.19h-1.51l-1.11-1.9h-.87v1.9h-1.34ZM47.6,76.84h1.23c.16,0,.29-.08.41-.23.11-.15.17-.35.17-.59s-.07-.44-.2-.58c-.13-.14-.27-.22-.42-.22h-1.18v1.61Z"/>
        <path d="M53.22,74.03h1.21l2.12,5.9h-1.37l-.45-1.32h-1.81l-.44,1.32h-1.37l2.12-5.9ZM54.5,77.67l-.68-2.09-.69,2.09h1.37Z"/>
        <polygon points="58.46 76.56 58.46 79.93 57.12 79.93 57.12 74.03 58.16 74.03 60.87 77.5 60.87 74.03 62.21 74.03 62.21 79.93 61.13 79.93 58.46 76.56"/>
        <path d="M66.8,75.76s-.07-.06-.17-.12-.22-.12-.37-.19c-.15-.07-.31-.12-.48-.17-.17-.05-.35-.07-.52-.07-.48,0-.72.16-.72.49,0,.1.03.18.08.25.05.07.13.13.23.18.1.05.23.1.38.15.15.04.33.09.53.15.28.08.53.16.75.25.22.09.41.2.57.34.16.14.27.3.36.49.08.19.13.43.13.7,0,.33-.06.61-.18.84-.12.23-.28.42-.49.56-.2.14-.43.24-.69.31-.26.06-.53.1-.81.1-.21,0-.43-.02-.65-.05-.22-.03-.44-.08-.65-.15-.21-.06-.42-.14-.62-.23-.2-.09-.38-.19-.55-.31l.59-1.19s.09.08.21.16c.12.08.27.15.45.23.18.08.37.15.59.21.22.06.44.09.66.09.47,0,.71-.15.71-.44,0-.11-.04-.2-.11-.27-.07-.07-.17-.14-.29-.2-.13-.06-.27-.11-.45-.16-.17-.05-.36-.11-.56-.17-.27-.08-.5-.17-.69-.27-.2-.1-.36-.21-.49-.34-.13-.13-.22-.27-.29-.44-.06-.17-.09-.36-.09-.58,0-.31.06-.58.17-.82.11-.24.27-.44.47-.6.2-.16.42-.29.68-.37.26-.08.53-.12.82-.12.2,0,.4.02.6.06.2.04.38.09.56.15.18.06.35.13.5.21.16.08.3.16.43.23l-.59,1.13Z"/>
        <path d="M68.34,79.93v-5.9h2.47c.28,0,.53.06.76.17.23.12.43.27.6.46.17.19.3.4.39.64.1.24.14.48.14.72,0,.26-.05.51-.13.75s-.22.45-.38.64c-.16.19-.36.34-.58.45-.23.11-.48.17-.76.17h-1.18v1.9h-1.34ZM69.68,76.84h1.09c.16,0,.29-.07.41-.21.11-.14.17-.34.17-.61,0-.14-.02-.26-.05-.36-.04-.1-.08-.18-.14-.25-.06-.07-.13-.12-.2-.15-.08-.03-.15-.05-.23-.05h-1.05v1.61Z"/>
        <path d="M75.97,79.98c-.43,0-.82-.09-1.18-.26-.35-.17-.66-.4-.91-.68-.25-.28-.45-.6-.58-.96-.14-.36-.21-.73-.21-1.11s.07-.76.22-1.12c.14-.36.35-.68.6-.95.26-.27.57-.49.92-.66.35-.16.74-.25,1.16-.25s.82.09,1.18.26c.35.17.66.4.91.68.25.28.44.6.58.96.14.36.2.73.2,1.1s-.07.76-.22,1.12c-.14.36-.34.68-.6.95-.26.27-.56.49-.92.66-.35.17-.74.25-1.16.25M74.46,76.99c0,.23.03.45.1.66.07.21.16.4.29.57.13.17.29.3.48.4.19.1.41.15.65.15s.48-.05.67-.16c.19-.11.35-.24.47-.41.13-.17.22-.36.28-.57.06-.21.09-.43.09-.65s-.03-.45-.1-.66c-.07-.21-.16-.4-.29-.56-.13-.16-.29-.29-.48-.39-.19-.1-.4-.14-.65-.14s-.48.05-.67.15c-.19.1-.35.24-.47.4-.13.17-.22.36-.29.57-.06.21-.09.43-.09.65"/>
        <path d="M79.64,79.93v-5.9h2.61c.27,0,.52.06.76.17.23.12.43.27.6.46.17.19.3.4.4.64.1.24.14.48.14.72,0,.18-.02.36-.07.53-.04.17-.11.33-.19.48-.08.15-.18.28-.3.4-.12.12-.25.22-.4.3l1.27,2.19h-1.51l-1.11-1.9h-.87v1.9h-1.34ZM80.98,76.84h1.23c.16,0,.29-.08.41-.23.11-.15.17-.35.17-.59s-.07-.44-.2-.58c-.13-.14-.27-.22-.42-.22h-1.18v1.61Z"/>
        <polygon points="89.44 75.23 87.67 75.23 87.67 79.93 86.33 79.93 86.33 75.23 84.56 75.23 84.56 74.03 89.44 74.03 89.44 75.23"/>
        <polygon points="95.96 75.23 94.19 75.23 94.19 79.93 92.85 79.93 92.85 75.23 91.08 75.23 91.08 74.03 95.96 74.03 95.96 75.23"/>
        <path d="M97.78,74.03h1.21l2.12,5.9h-1.37l-.45-1.32h-1.81l-.44,1.32h-1.37l2.12-5.9ZM99.06,77.67l-.68-2.09-.69,2.09h1.37Z"/>
        <polygon points="102.68 74.03 103.95 76.07 105.21 74.03 106.66 74.03 104.65 77.02 106.59 79.93 105.15 79.93 103.95 77.98 102.74 79.93 101.29 79.93 103.23 77.02 101.23 74.03 102.68 74.03"/>
        <rect x="107.32" y="74.03" width="1.34" height="5.9"/>
        <path class="cls-1" d="M196.15,31.11c-4.92-21.41-26.28-34.78-47.69-29.86-19.52,4.49-32.35,22.62-30.74,42.01l55.21-31.23s4.77,8.87-7.56,15.75c-12.34,6.88-27.85,16.05-27.85,16.05,0,0-2.69,1.5-1.19,4.19l31.59-18.13s5.64,7.95-8.53,15.86c-14.17,7.91-22.34,12.97-22.34,12.97,0,0-1.4,1.81.3,3.62l27.19-15.68s4.23,8.59-10.28,16.39c-3.78,2.03-6.17,5.14-7.65,8.56-.87,2.01-1.43,4.12-1.78,6.18-.5,3-.56,5.9-.45,8.21l.4.63c.08-3.12,1.41-5.83,3.01-7.98,5.88,1.47,12.19,1.6,18.5.15,21.41-4.92,34.78-26.28,29.86-47.69"/>
        <g>
          <path d="M5.9,21c1.88,0,3.29-.62,4.21-1.9.73-1.02,1.1-2.37,1.1-4.07s-.37-3.02-1.1-4.04c-.91-1.25-2.33-1.88-4.21-1.88s-3.27.62-4.18,1.88c-.76,1.02-1.12,2.37-1.12,4.04s.37,3.05,1.12,4.07c.91,1.28,2.3,1.9,4.18,1.9ZM5.9,11.2c1.91,0,2.88,1.28,2.88,3.83s-.97,3.88-2.88,3.88-2.82-1.3-2.82-3.88.94-3.83,2.82-3.83Z"/>
          <path d="M4.09,6.93c.76,0,1.39-.63,1.39-1.35s-.63-1.33-1.39-1.33-1.33.6-1.33,1.33.6,1.35,1.33,1.35Z"/>
          <path d="M7.65,6.93c.71,0,1.33-.63,1.33-1.35s-.63-1.33-1.33-1.33-1.36.6-1.36,1.33.63,1.35,1.36,1.35Z"/>
          <path d="M24.17,21h79.67v-3.07c0-2.53-.34-4.48-1.02-5.81-1.02-1.9-2.85-2.87-5.49-2.87-2.12,0-4.03.86-5.78,2.55l1.78,1.64c1.23-1.33,2.56-2.01,4-2.01,1.7,0,2.85.73,3.42,2.19.37.89.55,2.32.55,4.3v.94h-10.74v-.05H21.11v-9.56l-2.48.73v10.32c0,2.19-1.28,3.54-3.4,3.54-1.49,0-2.8-.34-3.97-.99l1.18,2.45c.76.47,1.67.7,2.8.7,3.37,0,5.52-1.98,5.86-5h3.08Z"/>
          <path d="M95.95,24.65c0,.73.6,1.35,1.33,1.35s1.36-.63,1.36-1.35-.63-1.33-1.36-1.33-1.33.6-1.33,1.33Z"/>
          <path d="M107.08,2.32v-.52c0-.6.21-.91.63-.91.29,0,.52.13.71.39l.57-.73c-.37-.37-.76-.55-1.2-.55-1.12,0-1.67.6-1.67,1.8v.52h-.73l-.55.89h4.31v-.89h-2.07Z"/>
          <polygon points="108.31 4.19 105.83 4.98 105.83 21 108.31 21 108.31 4.19"/>
          <path d="M11.57,33.18c.73,0,1.36-.6,1.36-1.35s-.63-1.36-1.36-1.36-1.33.63-1.33,1.36.63,1.35,1.33,1.35Z"/>
          <path d="M8.07,30.47c-.73,0-1.33.63-1.33,1.36s.6,1.35,1.33,1.35,1.36-.6,1.36-1.35-.63-1.36-1.36-1.36Z"/>
          <path d="M16.82,38.52c0,1.69-.86,2.55-2.61,2.55H5.4c-1.73,0-2.59-.86-2.59-2.55v-4.87l-2.46,2.5v2.63c0,2.68,1.88,4.48,4.71,4.48h9.28c3.06,0,4.91-1.75,4.91-4.48v-7.27l-2.43.65v6.36Z"/>
          <path d="M38.2,43.26h28.54c.1-2.5.16-3.6.16-3.31,0-2.24-.39-4.01-1.2-5.32-1.28-2.06-3.22-3.07-5.75-3-2.9.08-5.18,1.35-6.82,3.86-.81,1.2-1.39,2.48-1.73,3.86v-5.58l-2.48.7v6.59h-12.49c-1.75,0-2.61-.83-2.61-2.53v-12.14c-1.23.31-2.06.52-2.46.6v11.46c0,1.75-.86,2.61-2.59,2.61h-.99v-13.55l-2.48.73v12.82h-2.64l-1.15,2.19h7.42c1.59,0,2.82-.47,3.71-1.38.86.91,2.09,1.38,3.63,1.38h1.93ZM54.93,36.56c1.54-1.77,3.22-2.66,5.07-2.66,1.52,0,2.67.63,3.48,1.88.65,1.07.97,2.4.97,4.01,0,.44-.03.86-.08,1.28h-11.66c.1-1.48.84-2.97,2.22-4.51Z"/>
          <polygon points="69.34 43.26 71.82 43.26 71.82 26.45 69.34 27.23 69.34 43.26"/>
          <path d="M94.85,43.26h1.18c1.73,0,3.01-.47,3.84-1.38.91.91,2.12,1.38,3.63,1.38,1.78,0,3.11-.6,3.97-1.77.71-.96,1.07-2.24,1.07-3.8s-.37-2.87-1.07-3.86c-.86-1.17-2.2-1.75-3.97-1.75s-3.14.57-4,1.75c-.71.99-1.07,2.27-1.07,3.86v.83c0,1.75-.86,2.61-2.56,2.61h-.39v-.05h-9.04v.05h-2.22c.03-1.3.05-2.37.05-3.18,0-4.06-1.67-6.1-4.99-6.1-1.78,0-3.14.65-4.05,1.93-.76,1.07-1.15,2.45-1.15,4.17,0,1.56.44,2.81,1.33,3.75.94,1.02,2.3,1.54,4.05,1.56h2.04c-.21,1.54-1.41,2.81-3.06,2.84-1.28.05-2.64-.26-4.1-.91l1.1,2.4c.71.44,1.73.68,3.06.68,1.54,0,2.8-.5,3.79-1.51.92-.91,1.46-2.06,1.7-3.49h10.87ZM103.5,34.19c1.7,0,2.56,1.17,2.56,3.49s-.86,3.47-2.56,3.47-2.59-1.15-2.59-3.47.86-3.49,2.59-3.49ZM81.75,41.12h-2.3c-1.93,0-2.9-1.07-2.9-3.18,0-2.63.92-3.93,2.72-3.93,1.07,0,1.8.44,2.17,1.3.23.55.34,1.41.34,2.63l-.03,3.18Z"/>
          <path d="M16.78,60.78c0,1.69-.86,2.55-2.61,2.55H5.36c-1.73,0-2.59-.86-2.59-2.55v-4.87l-2.46,2.5v2.63c0,2.68,1.88,4.48,4.71,4.48h9.28c3.06,0,4.91-1.75,4.91-4.48v-7.27l-2.43.65v6.36Z"/>
          <path d="M12.89,54.08c0-.73-.63-1.35-1.36-1.35s-1.33.62-1.33,1.35.63,1.35,1.33,1.35,1.36-.6,1.36-1.35Z"/>
          <path d="M9.39,54.08c0-.73-.63-1.35-1.36-1.35s-1.33.62-1.33,1.35.6,1.35,1.33,1.35,1.36-.6,1.36-1.35Z"/>
          <polygon points="21.46 65.52 23.95 65.52 23.95 48.71 21.46 49.49 21.46 65.52"/>
          <path d="M31.63,64.81c0,2.19-1.28,3.54-3.4,3.54-1.49,0-2.8-.34-3.97-.99l1.18,2.45c.76.47,1.67.7,2.8.7,1.8,0,3.24-.52,4.29-1.59,1.07-1.07,1.6-2.45,1.6-4.2v-10.97l-2.48.73v10.32Z"/>
          <path d="M84.25,54.34c-1.8,0-3.14.57-4,1.75-.71.99-1.07,2.27-1.07,3.86v.83c0,1.75-.86,2.61-2.56,2.61h-.39v-.05h-36.1c-.86,0-1.28-.42-1.28-1.25v-13.37l-2.48.78v12.66c0,2.01,1.23,3.36,3.45,3.36h36.96c1.73,0,3.01-.47,3.84-1.38.92.91,2.12,1.38,3.63,1.38,1.78,0,3.11-.6,3.97-1.77.71-.96,1.07-2.24,1.07-3.8s-.37-2.87-1.07-3.86c-.86-1.17-2.2-1.75-3.97-1.75ZM84.25,63.41c-1.73,0-2.59-1.15-2.59-3.47s.86-3.49,2.59-3.49,2.56,1.17,2.56,3.49-.86,3.47-2.56,3.47Z"/>
          <path d="M101.4,60.72c0,1.75-.86,2.61-2.59,2.61h-.99v-13.55l-2.48.73v12.82h-2.64l-1.15,2.19h7.42c1.49,0,2.67-.44,3.56-1.3.89-.86,1.33-1.98,1.33-3.31v-12.38l-2.46.73v11.46Z"/>
          <path d="M95.78,69.19c0-.6.21-.91.63-.91.29,0,.52.13.71.39l.58-.73c-.37-.36-.76-.55-1.2-.55-1.1,0-1.65.6-1.65,1.8v.5h-.76l-.55.91h4.31v-.91h-2.07v-.5Z"/>
          <polygon points="106.1 65.52 108.58 65.52 108.58 48.71 106.1 49.49 106.1 65.52"/>
        </g>
      </g>
    </g>
  </g>
</svg>