<?xml version="1.0" encoding="UTF-8"?>
<svg id="Layer_2" xmlns="http://www.w3.org/2000/svg" viewBox="0 0 261.8 28.8">
  <defs>
    <style>
      .cls-1 {
        fill: #249267;
      }

      .cls-2 {
        fill: #c6242d;
      }
    </style>
  </defs>
  <g id="Layer_2-2" data-name="Layer_2">
    <g>
      <g>
        <g>
          <path d="M3.42,13.94c-1.05,0-1.88-.32-2.5-.95-.61-.64-.92-1.5-.92-2.6,0-.41.04-.87.13-1.41s.2-.98.33-1.35h1.46c-.18.88-.28,1.76-.28,2.62,0,.67.16,1.21.47,1.63s.73.63,1.25.63h6.55v-7.46h1.55v8.89H3.42ZM4.15,5.04c-.29,0-.53-.09-.73-.26-.2-.17-.3-.45-.3-.84s.1-.67.3-.84c.2-.17.44-.26.73-.26.31,0,.56.09.74.28s.28.46.28.82-.09.62-.27.81-.43.29-.74.29ZM7.3,5.04c-.32,0-.56-.1-.75-.29s-.28-.46-.28-.81.09-.62.27-.81.43-.29.75-.29.58.1.76.3.27.47.27.8-.09.6-.27.8-.43.3-.76.3Z"/>
          <path d="M14.85,0h1.62v13.93h-1.62V0Z"/>
          <path d="M19.12,12.51h6.08c-.24-1.64-.69-3.04-1.36-4.2-.67-1.16-1.63-2.15-2.87-3l.59-1.39c1.4.73,2.55,1.82,3.43,3.27.88,1.44,1.48,3.23,1.79,5.35v1.4h-7.65v-1.43Z"/>
          <path d="M29.42,0h1.62v13.93h-1.62V0Z"/>
          <path d="M37.26,13.94v.44c0,1.24-.28,2.21-.84,2.91-.56.7-1.36,1.06-2.42,1.06-.58,0-1.2-.17-1.86-.52l.47-1.23c.3.13.54.22.73.26s.4.06.62.06c.55,0,.98-.22,1.28-.67s.46-1.04.46-1.77V5.05h1.54v7.46h2.26c.07,0,.1.02.1.07v1.27c0,.06-.03.09-.1.09h-2.26ZM36.76,3.3c-.32,0-.56-.1-.75-.29s-.28-.46-.28-.81.09-.62.27-.81.43-.29.75-.29.58.1.76.3.27.47.27.8-.09.6-.27.8-.43.3-.76.3Z"/>
          <path d="M39.34,13.94c-.06,0-.09-.03-.09-.09v-1.27s.03-.07.09-.07h2.27c-.45-1.18-.68-2.23-.68-3.13,0-1.09.22-2.07.66-2.92.45-.38.96-.67,1.53-.9s1.18-.33,1.8-.33c.76,0,1.43.17,2.01.51.58.34,1.02.82,1.33,1.44.31.62.46,1.33.46,2.11s-.13,1.5-.38,2.16c.26.4.55.68.88.83.32.16.75.23,1.28.23h.09c.07,0,.1.02.1.07v1.27c0,.06-.03.09-.1.09h-.09c-.65,0-1.2-.09-1.66-.27-.46-.18-.9-.49-1.32-.92-.39.41-.84.71-1.35.9s-1.05.29-1.61.29h-5.22ZM42.56,9.06c0,.57.05,1.12.15,1.67s.28,1.14.54,1.78h1.29c.81,0,1.44-.28,1.87-.83s.65-1.36.65-2.41c0-.77-.21-1.4-.63-1.89-.42-.49-.93-.73-1.53-.73-.39,0-.77.07-1.14.21-.37.14-.7.32-.99.55-.1.26-.16.52-.19.78s-.04.56-.04.88Z"/>
          <path d="M50.4,13.94c-.06,0-.09-.03-.09-.09v-1.27s.03-.07.09-.07h2.41V0h1.62v12.5h2.38c.06,0,.09.02.09.07v1.27c0,.06-.03.09-.09.09h-6.41Z"/>
          <path d="M56.63,13.94c-.06,0-.09-.03-.09-.09v-1.27s.03-.07.09-.07h2.41V0h1.62v13.93h-4.03Z"/>
          <path d="M74.52,13.94c-1.46,0-2.6-.37-3.42-1.11s-1.22-1.78-1.22-3.12c0-1.44.45-2.58,1.36-3.41.9-.83,2.12-1.24,3.65-1.24h1.2v-1.16h1.56v8.61h2.08c.06,0,.09.02.09.07v1.27c0,.06-.03.09-.09.09h-5.21ZM76.09,12.51v-6.04h-1.15c-1.09,0-1.94.28-2.54.85-.6.56-.9,1.35-.9,2.37,0,.91.26,1.61.78,2.1.52.48,1.25.73,2.2.73h1.61ZM73.57,2.2c-.29,0-.53-.09-.73-.26s-.3-.45-.3-.84.1-.67.3-.84.44-.26.73-.26c.31,0,.56.09.74.28s.28.46.28.82-.09.62-.27.81c-.18.19-.43.29-.74.29ZM76.73,2.2c-.32,0-.56-.1-.75-.29s-.28-.46-.28-.81.09-.62.27-.81c.18-.19.43-.29.75-.29s.58.1.76.3.27.47.27.8-.09.6-.27.8-.43.3-.76.3Z"/>
          <path d="M79.55,13.94c-.06,0-.09-.03-.09-.09v-1.27s.03-.07.09-.07h2.96v-7.46h1.62v7.46h2.74c.06,0,.09.02.09.07v1.27c0,.06-.03.09-.09.09h-7.32ZM81.79,17.61c-.29,0-.53-.09-.73-.26-.2-.17-.3-.45-.3-.84s.1-.67.3-.84c.2-.17.44-.26.73-.26.31,0,.56.09.74.28s.28.46.28.82-.09.62-.27.81-.43.29-.74.29ZM84.95,17.61c-.32,0-.56-.1-.75-.29s-.28-.46-.28-.81.09-.62.27-.81.43-.29.75-.29.58.1.76.3.27.47.27.8-.09.6-.27.8-.43.3-.76.3Z"/>
          <path d="M86.69,13.94c-.06,0-.09-.03-.09-.09v-1.27s.03-.07.09-.07h2.41v-7.46h1.62v7.46h2.38c.06,0,.09.02.09.07v1.27c0,.06-.03.09-.09.09h-6.41ZM89.85,3.3c-.32,0-.56-.1-.75-.29s-.28-.46-.28-.81.09-.62.27-.81.43-.29.75-.29.58.1.76.3.27.47.27.8-.09.6-.27.8-.43.3-.76.3Z"/>
          <path d="M92.91,13.94c-.06,0-.09-.03-.09-.09v-1.27s.03-.07.09-.07h2.23V0h1.55v8.98c.57-1.37,1.29-2.4,2.15-3.09.86-.69,1.83-1.04,2.91-1.04,1.38,0,2.42.38,3.13,1.13.71.75,1.06,1.93,1.06,3.53v4.42h-13.02ZM104.38,12.51v-2.91c0-1.13-.24-1.96-.74-2.49-.49-.53-1.23-.8-2.22-.8-1.87,0-3.45,1.56-4.73,4.69v1.5h7.69Z"/>
          <path d="M115.82,14.38c0,1.25-.37,2.22-1.1,2.92-.73.7-1.77,1.05-3.12,1.05-1.24,0-2.34-.31-3.29-.94l.73-1.23c.39.21.8.38,1.21.52s.88.21,1.38.21c.83,0,1.47-.22,1.94-.67s.7-1.04.7-1.78v-.53h-1.79c-1.3,0-2.3-.36-3.01-1.07-.71-.72-1.07-1.75-1.07-3.11,0-1.44.45-2.58,1.36-3.43.91-.85,2.13-1.28,3.65-1.28h2.39v7.46h1.5c.06,0,.09.02.09.07v1.27c0,.06-.03.09-.09.09h-1.5v.44ZM114.26,12.51v-6.04h-.78c-1.08,0-1.93.29-2.53.86-.6.57-.9,1.38-.9,2.41,0,.96.21,1.66.62,2.1s1.04.67,1.88.67h1.72Z"/>
          <path d="M117.14,13.94c-.06,0-.09-.03-.09-.09v-1.27s.03-.07.09-.07h2.41V0h1.62v13.93h-4.03Z"/>
          <path d="M124.82,0h1.62v13.93h-1.62V0Z"/>
        </g>
        <g>
          <path d="M5.96,28.72l-.77-1.74H1.64l-.76,1.74H0l3.18-6.91h.46l3.19,6.91h-.88ZM3.41,22.95l-1.47,3.34h2.94l-1.47-3.34Z"/>
          <path d="M8.68,28.02h3.82v.7h-4.66v-6.91h.84v6.22Z"/>
          <path d="M26.57,21.8l-2.65,6.91h-.38l-2.12-5.52-2.12,5.52h-.38l-2.66-6.91h.9l1.97,5.36,2.09-5.36h.39l2.08,5.36,1.97-5.36h.9Z"/>
          <path d="M31.69,28.72l-.77-1.74h-3.55l-.76,1.74h-.88l3.18-6.91h.46l3.19,6.91h-.88ZM29.14,22.95l-1.47,3.34h2.94l-1.47-3.34Z"/>
          <path d="M37.89,21.8v.72h-2.36v6.2h-.85v-6.2h-2.35v-.72h5.57Z"/>
          <path d="M43.57,28.72l-.77-1.74h-3.55l-.76,1.74h-.88l3.18-6.91h.46l3.19,6.91h-.88ZM41.02,22.95l-1.47,3.34h2.94l-1.47-3.34Z"/>
          <path d="M50.52,21.8h.83v6.91h-.44l-4.61-5.34v5.34h-.84v-6.91h.44l4.62,5.34v-5.34Z"/>
          <path d="M53.81,28h4.17v.72h-4.98v-6.91h4.78v.72h-3.97v2.49h3.36v.71h-3.36v2.29Z"/>
          <path d="M63.89,21.8h.97l-2.7,4.54v2.37h-.84v-2.37l-2.7-4.54h.96l2.16,3.67,2.15-3.67Z"/>
          <path d="M69.99,28.72l-.77-1.74h-3.55l-.76,1.74h-.88l3.18-6.91h.46l3.19,6.91h-.88ZM67.44,22.95l-1.47,3.34h2.94l-1.47-3.34Z"/>
          <path d="M80.33,28.72l-.77-1.74h-3.55l-.76,1.74h-.88l3.18-6.91h.46l3.19,6.91h-.88ZM77.78,22.95l-1.47,3.34h2.94l-1.47-3.34Z"/>
          <path d="M87.69,21.8v4.14c0,.81-.25,1.49-.77,2.03-.51.54-1.22.8-2.13.8s-1.62-.26-2.13-.79c-.5-.54-.75-1.22-.75-2.04v-4.14h.82v3.96c0,1.38.73,2.25,2.06,2.25s2.09-.86,2.09-2.25v-3.96h.81Z"/>
          <path d="M94.78,26.92l.64.54c-.67.82-1.69,1.31-2.81,1.31-1.01,0-1.86-.34-2.57-1.03-.7-.69-1.05-1.51-1.05-2.48s.35-1.79,1.05-2.48c.71-.7,1.56-1.04,2.57-1.04,1.1,0,2.14.5,2.81,1.32l-.64.54c-.51-.67-1.3-1.08-2.17-1.08-.77,0-1.43.26-1.96.79-.54.52-.8,1.17-.8,1.94s.26,1.42.8,1.94c.54.52,1.19.78,1.96.78.87,0,1.66-.4,2.17-1.07Z"/>
          <path d="M101.89,21.8v.72h-2.36v6.2h-.85v-6.2h-2.35v-.72h5.57Z"/>
          <path d="M104,21.8v6.91h-.85v-6.91h.85Z"/>
          <path d="M111.56,22.79c.71.69,1.06,1.51,1.06,2.48s-.35,1.79-1.06,2.48c-.71.69-1.57,1.03-2.58,1.03s-1.86-.34-2.57-1.03c-.71-.69-1.06-1.51-1.06-2.48s.35-1.79,1.06-2.48c.71-.69,1.56-1.03,2.57-1.03s1.87.34,2.58,1.03ZM108.98,28c.77,0,1.43-.26,1.96-.79.55-.54.82-1.19.82-1.94s-.27-1.4-.82-1.93c-.54-.54-1.19-.8-1.96-.8s-1.43.26-1.97.8c-.54.54-.81,1.18-.81,1.93s.27,1.39.81,1.93c.55.54,1.2.8,1.97.8Z"/>
          <path d="M119.02,21.8h.83v6.91h-.44l-4.61-5.34v5.34h-.84v-6.91h.44l4.62,5.34v-5.34Z"/>
          <path d="M125.73,25.53c.48.28.71.72.71,1.3s-.23,1.09-.69,1.44c-.46.34-1.08.52-1.86.52-.58,0-1.05-.04-1.4-.12-.35-.08-.79-.25-1.33-.52l.31-.65c.47.23.87.38,1.19.45.33.07.75.11,1.25.11,1.03,0,1.67-.44,1.67-1.18,0-.67-.59-.98-1.81-1.27-.65-.16-1-.25-1.49-.47-.68-.3-1.02-.72-1.05-1.5,0-.57.22-1.03.65-1.38.44-.35,1.03-.53,1.77-.53.93,0,1.76.18,2.51.54l-.35.67c-.29-.15-.64-.26-1.05-.34-.4-.09-.77-.14-1.11-.14-.98,0-1.57.46-1.57,1.14s.61.96,1.92,1.28c.78.19,1.26.34,1.73.65Z"/>
        </g>
      </g>
      <g>
        <polygon points="163.26 0 179.04 28.8 190.28 28.8 196.91 16.71 203.54 28.8 215.56 28.8 231.25 0 220.1 0 209.54 19.28 199 0 187.76 0 191.29 6.45 184.66 18.55 174.5 0 163.26 0"/>
        <polygon class="cls-2" points="234.77 0 219 28.8 230.23 28.8 240.36 10.2 243.93 16.71 240.39 16.71 236.47 23.91 247.86 23.89 250.55 28.8 261.8 28.8 246.02 0 234.77 0"/>
        <polygon class="cls-1" points="148.44 0 132.67 28.8 143.9 28.8 154.03 10.2 157.6 16.71 154.05 16.71 150.14 23.91 161.53 23.89 164.22 28.8 175.46 28.8 159.68 0 148.44 0"/>
      </g>
    </g>
  </g>
</svg>