<?xml version="1.0" encoding="UTF-8"?>
<svg id="Layer_2" xmlns="http://www.w3.org/2000/svg" viewBox="0 0 222.86 82.42">
  <defs>
    <style>
      .cls-1 {
        fill: #4f5252;
      }

      .cls-2 {
        fill: none;
        stroke: #fff;
        stroke-miterlimit: 10;
        stroke-width: .76px;
      }

      .cls-3 {
        fill: #04bdd0;
      }

      .cls-4 {
        fill: #24b24b;
      }
    </style>
  </defs>
  <g id="Layer_2-2" data-name="Layer_2">
    <g>
      <g>
        <path class="cls-4" d="M5.6,36.47c.89-1.48,1.77-2.86,3.16-4.54l.49-.63.4-.35c.27-.29.63-.51.99-.73.33-.25.81-.36,1.19-.57.46-.13.91-.29,1.41-.38,2.01-.39,4.41-.48,7.03-.37,2.64.1,5.5.35,8.69.31.79-.02,1.78-.06,2.53-.12l1.15-.1.18-.02.1-.02.19-.04.38-.08.77-.18.77-.19.65-.24,1.31-.5c.83-.35,1.58-.72,2.39-1.09,2.86-1.51,5.81-3.07,8.85-4.67,5.95-3.01,12.26-5.88,19.11-8.1,6.78-2.28,14.14-4.13,21.53-5.33l1.4-.25,1.46-.19,2.93-.38,2.94-.37,2.78-.18,2.87-.19c.96-.08,1.92-.13,2.88-.09,1.92.03,3.85.01,5.77.07,7.68.39,15.29,1.82,22.49,4.22,7.2,2.43,13.91,5.86,20.18,9.72,1.58.99,3.14,1.97,4.69,2.94.8.49,1.59.98,2.38,1.46.76.48,1.78,1,2.65,1.47.44.21.83.35,1.25.53l.31.13.15.06.08.03s.34.13.24.08l.69.17c.92.22,1.83.44,2.73.66,1.8.37,3.54.57,5.27.85,6.89.87,13.38,1.27,19.38,1.59,5.98.26,11.55.36,16.38.27,2.17-.08,4.06.87,5.38,2.26,1.34,1.38,2.21,3.06,2.84,4.61,1.24,3.15,1.64,5.87,1.89,7.69.23,1.83.25,2.81.25,2.81l.98.66s-.13-1.68-.25-3.57c-.16-1.88-.38-4.67-1.51-8.09-.58-1.69-1.4-3.58-2.9-5.32-.75-.86-1.7-1.66-2.84-2.23-1.14-.58-2.47-.9-3.81-.94-4.88-.15-10.26-.51-16.2-1.06-5.92-.6-12.33-1.32-18.98-2.5-3.28-.71-6.74-1.18-9.61-2.67-.67-.44-1.27-.75-2.03-1.26-.74-.5-1.48-.99-2.23-1.49-1.52-1.04-3.06-2.09-4.61-3.14-6.29-4.21-13.26-8.14-20.84-11.03-7.58-2.86-15.71-4.72-23.93-5.45-2.06-.15-4.11-.23-6.17-.35-1.03-.08-2.06-.07-3.08-.04l-3.08.06-3.16.07-2.96.23-2.95.22-1.47.11-1.52.19c-8.16.83-15.91,2.45-23.32,4.85-7.37,2.4-14.21,5.68-20.25,9.26-2.92,1.77-5.76,3.49-8.51,5.15-.63.35-1.29.75-1.89,1.07l-.87.42-.43.21-.36.11c-.2.07-.55.18-.63.24l-1.13.2c-.76.13-1.28.18-1.98.26-2.78.25-5.65.33-8.46.55-2.81.23-5.62.52-8.28,1.47-.66.23-1.32.55-1.95.85-.62.4-1.25.69-1.79,1.18-.56.45-1.08.91-1.5,1.48-.23.3-.41.46-.67.87-.14.23-.27.46-.4.69-1.05,1.73-1.97,3.79-2.61,5.44-1.31,3.35-1.96,6.06-2.39,7.91-.41,1.85-.57,2.85-.57,2.85l.79.22s.36-.92,1.14-2.61c.79-1.68,1.92-4.17,3.67-7.09Z"/>
        <path class="cls-4" d="M11.73,59.14c-1.84.27-3.51.53-5,.8-1.49.26-2.84.48-4.02.68v19.4c0,1.12.4,1.52,1.55,1.52h15.45c1.12,0,1.52-.4,1.52-1.52v-3.29c0-1.16-.4-1.52-1.52-1.52h-9.86v-3.47h7.62c1.16,0,1.55-.4,1.55-1.55v-3.25c0-1.12-.4-1.52-1.55-1.52h-7.62v-3.21h9.53c1.16,0,1.55-.4,1.55-1.55v-2.94c-1.14.16-2.24.31-3.31.48-2.11.33-4.07.66-5.91.93Z"/>
        <path class="cls-4" d="M25.05,57.32s0,.05,0,.08v22.67c0,1.12.4,1.48,1.55,1.48h3.68c1.16,0,1.55-.36,1.55-1.48v-5.13c0-2.49-.18-4.3-1.48-9.5h.36c.36,1.27,1.48,4.59,2.24,5.96l2.13,4.08c.4.79.76,1.05,1.73,1.05h2.42c.98,0,1.34-.32,1.73-1.05l2.02-4.08c.76-1.48,2.06-4.77,2.42-5.96h.4c-1.37,4.8-1.59,7.08-1.59,9.46v5.16c0,1.12.36,1.48,1.52,1.48h3.93c1.16,0,1.55-.36,1.55-1.48v-22.67c0-1.16-.4-1.52-1.55-1.52h-3.61c-1.19,0-1.52.18-2.02,1.16l-5.96,11.66-5.96-11.7c-.15-.26-.29-.46-.44-.61-2.14.28-4.2.6-6.18.87-.15.02-.29.04-.45.06Z"/>
        <path class="cls-4" d="M57.12,55.92h4.26c.8,0,1.44.65,1.44,1.44v22.74c0,.8-.65,1.44-1.44,1.44h-4.26c-.8,0-1.44-.65-1.44-1.44v-22.75c0-.8.65-1.44,1.44-1.44Z"/>
        <path class="cls-4" d="M84.74,73.61c-.29-.58-.61-1.08-.97-1.55,2.46-1.37,3.9-3.9,3.9-7.44,0-5.6-3.54-8.7-8.99-8.7h-10.29c-1.16,0-1.55.4-1.55,1.52v22.6c0,1.12.4,1.52,1.55,1.52h4.08c1.16,0,1.52-.4,1.52-1.52v-7.01h.83c1.48,0,2.09.62,2.71,1.84l2.31,4.95c.58,1.26,1.41,1.73,3.32,1.73h3.9c1.19,0,1.44-.79.94-1.77l-3.25-6.17ZM77.88,67h-3.9v-4.77h3.9c1.55,0,2.38.9,2.38,2.35s-.87,2.42-2.38,2.42Z"/>
        <path class="cls-4" d="M107.7,57.11c-.36-.94-.83-1.19-1.88-1.19h-4.12c-1.05,0-1.52.22-1.88,1.26l-8.3,22.89c-.36.97-.14,1.48.97,1.48h3.79c1.81,0,2.28-.4,2.64-1.52l.83-2.6h7.8l.83,2.6c.29,1.12.83,1.52,2.71,1.52h3.9c1.08,0,1.41-.51,1.05-1.48l-8.34-22.96ZM101.42,71.77l1.33-4.26c.72-2.42.69-5.02.69-5.02h.36s.07,2.6.79,5.06l1.33,4.22h-4.51Z"/>
        <path class="cls-4" d="M133.07,55.92h-17.87c-1.16,0-1.52.4-1.52,1.52v3.25c0,1.16.36,1.55,1.52,1.55h5.38v17.8c0,1.12.36,1.52,1.52,1.52h4.08c1.16,0,1.55-.4,1.55-1.52v-17.8h5.34c1.16,0,1.55-.4,1.55-1.55v-3.25c0-1.12-.4-1.52-1.55-1.52Z"/>
        <path class="cls-4" d="M139.07,55.92h-.7c-1.16,0-1.55.4-1.55,1.52v22.6c0,1.12.4,1.52,1.55,1.52h15.45c1.12,0,1.52-.4,1.52-1.52v-3.29c0-1.16-.4-1.52-1.52-1.52h-9.86v-3.47h7.62c1.16,0,1.55-.4,1.55-1.55v-3.25c0-1.12-.4-1.52-1.55-1.52h-7.62v-3.21h9.53c1.16,0,1.55-.4,1.55-1.55v-2.6c-.89-.12-1.77-.21-2.67-.34-4.34-.6-8.81-1.21-13.31-1.83Z"/>
        <path class="cls-4" d="M171.29,59.85c-4.02-.3-8.11-.75-12.24-1.26-1.17,1.32-1.8,2.97-1.8,4.87,0,7,5.92,7.76,10.14,8.34,2.38.32,4.22.72,4.22,2.13,0,1.55-1.44,2.06-3.86,2.06-2.02,0-3.43-.65-4.08-1.91-.54-1.05-1.05-1.16-2.13-.79l-3.39,1.23c-1.05.4-1.37.9-.97,1.98,1.37,3.76,5.13,5.6,10.51,5.6,6.39,0,11.19-2.92,11.19-8.23,0-6.82-5.42-7.83-9.6-8.41-2.6-.32-4.73-.65-4.73-2.2,0-1.27.98-1.88,3.43-1.88,1.66,0,2.96.51,3.65,1.88.58,1.05.98,1.19,1.95.76l3.61-1.55c1.08-.43,1.37-.98.87-2.02-.05-.09-.1-.17-.15-.26-.66-.02-1.32-.04-1.99-.06-1.57-.02-3.07-.16-4.62-.26Z"/>
        <path class="cls-3" d="M220.03,49.91c.68-.23,1.19-.41,1.54-.53.04,0,.1-.02.15-.03.13-.06.21-.09.29-.13.04-.02.09-.04.09-.04,0,0-.03,0-.03,0,.01,0,.03-.01.04-.02-.59-1.95-2.33-3.42-4.49-3.55-1.15-.07-2.22.27-3.11.88-1.18-1.45-2.92-2.43-4.93-2.55-2.28-.13-4.35.87-5.71,2.5-1.18-1.49-2.94-2.51-4.99-2.63-2.05-.12-3.92.68-5.27,2.03-1.27-1.01-2.84-1.65-4.57-1.76-3.59-.21-6.74,1.95-8.01,5.11-.57-.24-1.18-.41-1.83-.45-1.62-.1-3.1.54-4.17,1.6-.93-1.27-2.38-2.14-4.08-2.24-2.26-.13-4.27,1.12-5.22,3.02-.72-.93-1.8-1.56-3.06-1.64-.81-.05-1.56.15-2.23.5-.9-2.17-3.03-3.69-5.53-3.69-.88,0-1.72.2-2.47.55-.65-4.75-4.68-8.41-9.6-8.41-3.49,0-6.53,1.85-8.24,4.61-1.39-1.59-3.41-2.61-5.69-2.61-3.04,0-5.64,1.8-6.86,4.38-.61-.42-1.33-.7-2.12-.74-.76-.04-1.47.13-2.1.44-.76-2.44-3-4.22-5.69-4.22-2.19,0-4.08,1.19-5.13,2.94-.7-.71-1.65-1.19-2.73-1.25-1.06-.06-2.05.29-2.83.9-.82-3.71-4.11-6.48-8.06-6.48-2.79,0-5.25,1.39-6.75,3.51-.81-.41-1.71-.66-2.67-.66-1.93,0-3.62.93-4.72,2.34-1.17-2.68-3.84-4.56-6.96-4.56-1.7,0-3.25.58-4.51,1.52-1.5-2.11-3.95-3.5-6.73-3.5-4.02,0-7.36,2.87-8.11,6.66-.09,0-.18-.03-.27-.03-2.1,0-3.94,1.09-5.01,2.72-1.36-2.04-3.68-3.38-6.32-3.38-4.07,0-7.36,3.21-7.56,7.23-1.09-1.44-2.8-2.38-4.75-2.38-3.11,0-5.63,2.38-5.93,5.41-.12,0-.23-.04-.35-.04-2.12,0-3.96,1.1-5.03,2.76-1.46-2.42-4.09-4.06-7.13-4.06-4.61,0-8.35,3.74-8.35,8.35,0,.5.06.98.15,1.46.78-.23,3.03-.64,4.22-.85,1.17-.2,2.52-.42,4.02-.69,1.49-.27,3.16-.53,5-.8,1.84-.27,3.8-.6,5.91-.93,1.07-.16,2.17-.32,3.31-.48.97-.14,1.98-.28,3-.42.15-.02.29-.04.45-.06,1.98-.27,4.04-.59,6.18-.87.43-.06.85-.12,1.29-.17,2.61-.34,5.32-.69,8.13-1.05,2.81-.36,5.72-.67,8.71-1.03,5.97-.77,12.3-1.2,18.8-1.87,3.25-.21,6.56-.41,9.91-.63.84-.05,1.68-.11,2.52-.16l2.43-.04,2.59-.06,1.3-.03,1.22.03c1.63.03,3.27.07,4.91.1,1.68.09,3.38.19,5.07.28,1.7.07,3.39.25,5.09.38,1.7.15,3.4.27,5.09.47,6.8.63,13.57,1.56,20.26,2.43,2.15.3,4.27.59,6.4.88,4.51.62,8.97,1.23,13.31,1.83.9.13,1.77.22,2.67.34,1.34.18,2.67.35,3.99.51,4.13.5,8.23.95,12.24,1.26,1.55.11,3.05.24,4.62.26.67.02,1.33.04,1.99.06.87.02,1.74.03,2.64-.03.78-.03,1.55-.06,2.31-.09h.07s.19-.02.19-.02l.13-.02.26-.03.52-.06,1.03-.12c1.37-.16,2.71-.32,4.03-.47l.98-.12,1-.17c.66-.11,1.31-.22,1.96-.33,1.28-.22,2.54-.44,3.76-.65,2.39-.48,4.6-1,6.7-1.45,2.08-.49,4-.99,5.77-1.45,1.77-.46,3.36-.96,4.81-1.36,1.45-.4,2.72-.82,3.82-1.17.43-.13.8-.26,1.18-.38l1.82-.61Z"/>
      </g>
      <path class="cls-2" d="M220.03,49.91c.68-.23,1.19-.41,1.54-.53.04,0,.1-.02.15-.03.13-.06.21-.09.29-.13.04-.02.09-.04.09-.04,0,0-.03,0-.03,0,.01,0,.03-.01.04-.02-.59-1.95-2.33-3.42-4.49-3.55-1.15-.07-2.22.27-3.11.88-1.18-1.45-2.92-2.43-4.93-2.55-2.28-.13-4.35.87-5.71,2.5-1.18-1.49-2.94-2.51-4.99-2.63-2.05-.12-3.92.68-5.27,2.03-1.27-1.01-2.84-1.65-4.57-1.76-3.59-.21-6.74,1.95-8.01,5.11-.57-.24-1.18-.41-1.83-.45-1.62-.1-3.1.54-4.17,1.6-.93-1.27-2.38-2.14-4.08-2.24-2.26-.13-4.27,1.12-5.22,3.02-.72-.93-1.8-1.56-3.06-1.64-.81-.05-1.56.15-2.23.5-.9-2.17-3.03-3.69-5.53-3.69-.88,0-1.72.2-2.47.55-.65-4.75-4.68-8.41-9.6-8.41-3.49,0-6.53,1.85-8.24,4.61-1.39-1.59-3.41-2.61-5.69-2.61-3.04,0-5.64,1.8-6.86,4.38-.61-.42-1.33-.7-2.12-.74-.76-.04-1.47.13-2.1.44-.76-2.44-3-4.22-5.69-4.22-2.19,0-4.08,1.19-5.13,2.94-.7-.71-1.65-1.19-2.73-1.25-1.06-.06-2.05.29-2.83.9-.82-3.71-4.11-6.48-8.06-6.48-2.79,0-5.25,1.39-6.75,3.51-.81-.41-1.71-.66-2.67-.66-1.93,0-3.62.93-4.72,2.34-1.17-2.68-3.84-4.56-6.96-4.56-1.7,0-3.25.58-4.51,1.52-1.5-2.11-3.95-3.5-6.73-3.5-4.02,0-7.36,2.87-8.11,6.66-.09,0-.18-.03-.27-.03-2.1,0-3.94,1.09-5.01,2.72-1.36-2.04-3.68-3.38-6.32-3.38-4.07,0-7.36,3.21-7.56,7.23-1.09-1.44-2.8-2.38-4.75-2.38-3.11,0-5.63,2.38-5.93,5.41-.12,0-.23-.04-.35-.04-2.12,0-3.96,1.1-5.03,2.76-1.46-2.42-4.09-4.06-7.13-4.06-4.61,0-8.35,3.74-8.35,8.35,0,.5.06.98.15,1.46.78-.23,3.03-.64,4.22-.85,1.17-.2,2.52-.42,4.02-.69,1.49-.27,3.16-.53,5-.8,1.84-.27,3.8-.6,5.91-.93,1.07-.16,2.17-.32,3.31-.48.97-.14,1.98-.28,3-.42.15-.02.29-.04.45-.06,1.98-.27,4.04-.59,6.18-.87.43-.06.85-.12,1.29-.17,2.61-.34,5.32-.69,8.13-1.05,2.81-.36,5.72-.67,8.71-1.03,5.97-.77,12.3-1.2,18.8-1.87,3.25-.21,6.56-.41,9.91-.63.84-.05,1.68-.11,2.52-.16l2.43-.04,2.59-.06,1.3-.03,1.22.03c1.63.03,3.27.07,4.91.1,1.68.09,3.38.19,5.07.28,1.7.07,3.39.25,5.09.38,1.7.15,3.4.27,5.09.47,6.8.63,13.57,1.56,20.26,2.43,2.15.3,4.27.59,6.4.88,4.51.62,8.97,1.23,13.31,1.83.9.13,1.77.22,2.67.34,1.34.18,2.67.35,3.99.51,4.13.5,8.23.95,12.24,1.26,1.55.11,3.05.24,4.62.26.67.02,1.33.04,1.99.06.87.02,1.74.03,2.64-.03.78-.03,1.55-.06,2.31-.09h.07s.19-.02.19-.02l.13-.02.26-.03.52-.06,1.03-.12c1.37-.16,2.71-.32,4.03-.47l.98-.12,1-.17c.66-.11,1.31-.22,1.96-.33,1.28-.22,2.54-.44,3.76-.65,2.39-.48,4.6-1,6.7-1.45,2.08-.49,4-.99,5.77-1.45,1.77-.46,3.36-.96,4.81-1.36,1.45-.4,2.72-.82,3.82-1.17.43-.13.8-.26,1.18-.38l1.82-.61Z"/>
      <g>
        <path class="cls-1" d="M187.71,61.68c-.09-.44-.53-.81-1.37-.81-2.01,0-3.91,2.19-3.91,4.84,0,2.16,1.21,3.48,3.13,3.48s3.77-1.28,4.84-3.45c.27.01.67.23.81.4-1.21,2.66-3.34,4.81-6.4,4.81-2.84,0-4.74-1.96-4.74-5,0-3.38,2.39-6.83,6.07-6.83,2.54,0,3.66,1.62,3.66,3.01,0,.99-.56,1.93-1.56,1.93-.69,0-1.24-.56-1.24-1.26,0-.5.29-.93.71-1.13Z"/>
        <path class="cls-1" d="M198.31,62.48l-1.53,5.01c-.16.49-.18.94.26.94.64,0,1.47-1.1,2.26-2.7.27.01.67.23.81.4-.99,2.16-2.31,3.76-3.94,3.76-.93,0-1.36-.5-1.48-1.16-.64.71-1.47,1.16-2.37,1.16-1.43,0-2.39-.94-2.39-2.61,0-2.39,1.71-4.93,3.97-4.93.9,0,1.61.46,1.97,1.28l.36-1.16h2.09ZM194.13,64.28c-.99,0-1.99,1.43-1.99,2.67,0,.77.4,1.21,1.03,1.21,1.01,0,2.01-1.43,2.01-2.68,0-.76-.43-1.2-1.06-1.2Z"/>
        <path class="cls-1" d="M199.29,65.73c.3-.66.6-1.39.86-2.13-.3-.28-.5-.64-.5-1.1,0-.73.56-1.29,1.26-1.29.51,0,.9.27,1.1.63l-.43,1.1.39.14c1.54.61,2.4,1.2,1.89,2.88l-.46,1.51c-.16.49-.17.94.26.94.64,0,1.47-1.1,2.26-2.7.27.01.67.23.81.4-.99,2.16-2.31,3.76-3.94,3.76s-1.71-1.64-1.34-2.86l.41-1.33c.23-.76.27-1.13-.3-1.36l-.63-.27c-.23.69-.5,1.38-.81,2.06-.29-.02-.69-.23-.81-.4Z"/>
        <path class="cls-1" d="M190.94,82.25v-6.18s-3.56,6.18-3.56,6.18h-2.23l.18-5.97c.07-2.41-.84-2.93-1.63-2.93s-1.46.66-1.46,1.46c0,.87.73,1.6,1.58,1.41l.41,2.04c-2.26.51-3.8-1.16-3.8-3.04s1.51-3.4,3.41-3.4c2.79,0,3.63,2.07,3.53,4.78l-.11,3.14,3.56-6.23h2.14v6.7c1.79-1.74,3.47-4.53,3.47-6.33,0-.29-.04-.51-.13-.7h-.16c-.7,0-1.26-.56-1.26-1.26s.56-1.26,1.26-1.26c1.26,0,2,1.13,2,2.64,0,2.9-2.81,7.03-5.57,8.93h-1.66Z"/>
        <path class="cls-1" d="M205.84,74.97l-1.53,5.01c-.16.49-.18.94.26.94.64,0,1.47-1.1,2.26-2.7.27.01.67.23.81.4-.99,2.16-2.31,3.76-3.94,3.76-.93,0-1.36-.5-1.48-1.16-.64.71-1.47,1.16-2.37,1.16-1.43,0-2.39-.94-2.39-2.61,0-2.39,1.71-4.93,3.97-4.93.9,0,1.61.46,1.97,1.28l.36-1.16h2.09ZM201.65,76.77c-.99,0-1.99,1.43-1.99,2.67,0,.77.4,1.21,1.03,1.21,1.01,0,2.01-1.43,2.01-2.68,0-.76-.43-1.2-1.06-1.2Z"/>
        <path class="cls-1" d="M205.74,79.57c0-1.2.81-1.62,1.33-1.53.53-1,1.16-2.48,1.53-3.61l1.67.37c.54,1.74,1.83,3.16,1.83,4.85,0,.37-.06.73-.17,1.06.79-.56,1.31-1.42,1.84-2.48.27.01.67.23.81.4-.99,2.16-2.41,3.8-5.34,3.8-2.09,0-3.5-1.41-3.5-2.86ZM208.86,76.28c-.3.74-.64,1.49-1,2.17.17.2.29.46.29.74,0,.43-.24.8-.59,1,.11.49.56.86,1.17.86.73,0,1.24-.54,1.24-1.43,0-1-.71-2.13-1.11-3.34Z"/>
        <path class="cls-1" d="M215.57,72.25h2.09l-1.11,3.64c.61-.67,1.27-1.06,2.04-1.06,1.63,0,2.07,1.51,1.6,3.04l-.64,2.1c-.16.49-.17.94.26.94.64,0,1.47-1.1,2.26-2.7.27.01.67.23.81.4-.99,2.16-2.31,3.76-3.94,3.76s-1.71-1.64-1.34-2.86l.5-1.58c.23-.73.14-1.36-.59-1.36-.57,0-1.04.41-1.46.93l-1.44,4.74h-2.09l3.06-10Z"/>
      </g>
    </g>
  </g>
</svg>