<?xml version="1.0" encoding="UTF-8"?>
<svg id="Layer_2" xmlns="http://www.w3.org/2000/svg" viewBox="0 0 230.06 78.99">
  <defs>
    <style>
      .cls-1 {
        fill: #1c1c1a;
      }

      .cls-2 {
        fill: #cc3529;
      }

      .cls-2, .cls-3, .cls-4 {
        fill-rule: evenodd;
      }

      .cls-3 {
        fill: #188044;
      }

      .cls-4 {
        fill: #1b1b1a;
      }
    </style>
  </defs>
  <g id="Layer_2-2" data-name="Layer_2">
    <g>
      <path class="cls-3" d="M224.94,17.51c10.19,17.08,4.7,39.25-12.27,49.51-2.95,1.78-6.03,3.08-9.18,3.93l.04.79,2.16,7.25-15.51-8.96,8.36-15,2.24,7.52.21.7c2.76-.84,5.46-2.04,8.05-3.6,14.73-8.91,20.83-26.78,15.54-42.53"/>
      <path class="cls-2" d="M193.17,72.28c-9.25-2.44-16.74-7.8-21.86-16.38-4.9-8.21-6.17-17.59-4.31-26.26l.53.42,8.07,2.44-9.73-14.9-14.06,7.69,7.07,2.14.52.1c-2.16,8.91-.97,18.65,4.09,27.13,6.49,10.89,17.7,17.11,29.43,17.52"/>
      <g>
        <path class="cls-1" d="M6.02,48.79l.69.06.04-1.22-.09.02c-.91.22-2.13.16-3.2.11,0,0-.85-.03-1.1-.04l.03-4.57,3.66.03c.22,0,.4.03.55.08l.1.04.04-.08v-1.14l-6.74-.03v.13c.23.62.25,11.5.02,12.38l-.02.09,6.71.04.04-1.28-.09.02c-1.01.19-2.08.14-3.12.1,0,0-.93-.02-1.18-.03l.03-4.72,3.63.03Z"/>
        <path class="cls-1" d="M22.09,49.01l.03-1.64c0-1.87-.99-2.82-2.95-2.82-1.23,0-2.07.37-2.98,1.3-.57-.88-1.42-1.3-2.68-1.3-1.07,0-1.99.42-2.7,1.2v-.95l-2.22-.03.04.13c.21.68.21,8.9,0,9.66l-.02.09,2.29.04-.02-.09c-.21-.94-.13-3.43-.08-5.25l.04-1.6c0-1.14.98-1.66,1.96-1.66,1.07,0,1.54.49,1.54,1.58v6.31l-.08.65.07.05h2.25l-.04-.13c-.25-.85-.17-3.3-.11-5.1l.04-1.55c0-1.15.72-1.81,1.96-1.81,1.13,0,1.56.45,1.56,1.58v6.31l-.08.66.11.04h2.16l-.02-.09c-.21-.93-.13-3.63-.08-5.59Z"/>
        <path class="cls-1" d="M25.56,42.16c-.63,0-1.31.26-1.31.98,0,.64.47,1,1.33,1,.59,0,1.27-.26,1.27-1.02,0-.7-.67-.96-1.29-.96Z"/>
        <path class="cls-1" d="M24.38,44.85l.08.64v8.5l-.09.65.07.05h2.16l.02-.03s.04-.06-.03-.68v-8.5l.08-.6v-.08s-2.26-.04-2.26-.04l-.02.08Z"/>
        <path class="cls-1" d="M31.16,45.75v-.95l-2.15-.03.02.08c.19.9.15,8.97-.05,9.71l-.02.09,2.29.04-.02-.09c-.2-.92-.13-3.09-.08-4.69l.04-1.5c0-.77.19-1.35.57-1.71.34-.34.83-.49,1.46-.46h.38l.03-1.67h-.08c-1.12.05-1.91.3-2.39,1.18Z"/>
        <path class="cls-1" d="M42.57,53.4c-.21,0-.49-.07-.49-.74v-5.76c0-2.13-2.31-2.36-3.3-2.36-1.24,0-2.18.22-3.45.83l-.05.02v.07s.34,1.4.34,1.4l.12-.09c.84-.64,1.52-1.01,2.51-1.01.82,0,1.7.41,1.7,1.3s-1.01,1.21-2.19,1.55c-1.63.46-3.49,1-3.49,3.35,0,1.72,1.12,2.88,2.79,2.88,1.25,0,2.13-.41,2.99-1.39.19.74.55,1.39,1.7,1.39.61,0,1.16-.27,1.51-.5l.03-.02.02-1.13v-.19l-.19.13c-.18.12-.37.26-.55.26ZM39.95,51.32c0,1.17-.92,2.08-2.09,2.08-.9,0-1.51-.65-1.51-1.62,0-1.45,1.27-1.92,2.5-2.38,0,0,.82-.35,1.11-.47v2.38Z"/>
        <path class="cls-1" d="M47.5,53.57c-.41,0-.62-.26-.62-.78v-6.94l1.56.03.03-1.08-1.62-.03.03-1.26.04-.7v-.03l-.02-.02s-.05-.06-2.06.15h-.06s-.03.07-.03.07v1.82l-1.44-.03-.03,1.08,1.5.03-.03,6.97c0,1.36.63,2,1.98,2,.59,0,1.18-.13,1.7-.38l.04-.02.02-1.08v-.18l-.14.08c-.26.15-.55.29-.84.29Z"/>
        <path class="cls-1" d="M58.56,49.41c-.03-1.46-.5-4.86-4.32-4.86-2.89,0-4.68,2-4.68,5.23s1.85,5.08,5.07,5.08c1.27,0,2.2-.22,3.43-.83.04-.06.06-.09-.23-1.34l-.04-.16-.13.1c-.6.51-1.57,1.11-2.77,1.11-2.78,0-3.12-2.43-3.13-4.29l6.8.03v-.07ZM51.81,48.42c.29-1.82,1.09-2.79,2.33-2.79s2,.96,2.18,2.82l-4.51-.03Z"/>
        <path class="cls-1" d="M63.71,48.61c-1.02-.39-1.9-.72-1.9-1.54,0-.91.86-1.39,1.71-1.39.72,0,1.5.29,2.37.9l.08.05.06-.07.35-1.29-.05-.02c-1.04-.47-2.02-.7-2.99-.7-1.79,0-3.6.92-3.6,2.97,0,1.86,1.51,2.46,2.83,3,1.06.42,1.97.79,1.97,1.69,0,1.04-.93,1.52-1.79,1.52-1.09,0-1.9-.48-2.78-1.19l-.08-.07-.06.07-.37,1.42.05.03c1.04.56,2.15.87,3.22.87,1.89,0,3.9-.84,3.9-3.2,0-1.94-1.55-2.53-2.92-3.05Z"/>
        <path class="cls-1" d="M71.68,42.12v1.25h.07c.86-.14,1.73-.12,2.58-.08l.91.02-.03,10.68-.08.61v.08s.1,0,.1,0h2.38l-.02-.13-.08-.57v-10.71l2.64.03.83.08.04-1.32-9.33-.03-.03.07Z"/>
        <path class="cls-1" d="M83.83,45.75v-.95l-2.15-.03.02.08c.19.9.15,8.97-.06,9.71l-.02.09,2.29.04-.02-.09c-.2-.91-.13-3.09-.08-4.69l.04-1.5c0-.77.19-1.35.57-1.71.34-.34.83-.49,1.46-.46h.38l.03-1.67h-.07c-1.13.05-1.92.3-2.39,1.18Z"/>
        <path class="cls-1" d="M95.23,53.4c-.21,0-.48-.07-.48-.74v-5.76c0-2.13-2.31-2.36-3.29-2.36-1.25,0-2.18.22-3.45.83l-.05.02v.07s.34,1.4.34,1.4l.12-.09c.84-.64,1.52-1.01,2.51-1.01.82,0,1.7.41,1.7,1.3s-1.01,1.21-2.19,1.55c-1.64.47-3.49,1-3.49,3.36,0,1.72,1.12,2.88,2.79,2.88,1.25,0,2.13-.41,2.99-1.39.19.74.55,1.39,1.7,1.39.61,0,1.16-.27,1.51-.5l.03-.02v-1.13s.01-.19.01-.19l-.18.13c-.17.12-.38.26-.56.26ZM92.61,51.32c0,1.17-.92,2.08-2.1,2.08-.9,0-1.51-.65-1.51-1.62,0-1.45,1.27-1.92,2.5-2.38,0,0,.82-.35,1.11-.47v2.38Z"/>
        <path class="cls-1" d="M105.34,49.16l.03-1.7c0-1.83-1.19-2.92-3.2-2.92-1.37,0-2.23.42-2.94,1.41v-1.15l-2.15-.03.02.08c.18.85.14,9.1-.04,9.7l-.03.09.08.04h2.21l-.02-.09c-.2-.93-.13-3.15-.08-4.77l.04-1.51c0-1.39.83-2.21,2.21-2.21,1.14,0,1.79.6,1.79,1.63v6.25l-.08.65.06.05h2.21l-.02-.09c-.2-.99-.13-3.57-.08-5.44Z"/>
        <path class="cls-1" d="M111.11,48.61c-1.02-.39-1.9-.72-1.9-1.54,0-.91.86-1.39,1.71-1.39.72,0,1.49.29,2.36.9l.08.05.06-.07.35-1.29-.05-.02c-1.05-.47-2.03-.7-2.99-.7-1.79,0-3.6.92-3.6,2.97,0,1.86,1.51,2.46,2.83,3,1.06.42,1.97.79,1.97,1.69,0,1.04-.93,1.52-1.79,1.52-1.09,0-1.9-.48-2.77-1.19l-.09-.07-.06.07-.36,1.42.04.03c1.04.56,2.15.87,3.22.87,1.88,0,3.9-.84,3.9-3.2,0-1.94-1.55-2.53-2.92-3.05Z"/>
        <path class="cls-1" d="M120.37,44.55c-1.12,0-2.07.51-2.78,1.45v-1.2l-2.15-.03.02.08c.15.8.13,12.01-.03,12.62l-.02.09,2.27.04-.02-.09c-.09-.38-.13-.84-.13-1.4l.06-1.42s.02-.67.04-.98c.67.74,1.52,1.14,2.48,1.14,3.67,0,3.96-4.03,3.96-5.27s-.27-5.04-3.69-5.04ZM119.7,53.63c-1.91,0-2.13-2.18-2.13-3.82,0-1.79.26-3.86,2.25-3.86,1.36,0,2.02,1.23,2.02,3.76,0,1.78-.37,3.91-2.13,3.91Z"/>
        <path class="cls-1" d="M130,44.55c-2.8,0-4.62,1.97-4.62,5.02,0,2.56,1.22,5.29,4.64,5.29s4.64-2.65,4.64-5.14c0-3.19-1.78-5.18-4.66-5.18ZM130.01,53.85c-2.3,0-2.41-3.49-2.41-4.19s.12-4.09,2.41-4.09,2.42,3.16,2.42,4.13c0,.7-.12,4.16-2.42,4.16Z"/>
        <path class="cls-1" d="M138.55,45.75v-.95l-2.15-.03v.08c.21.89.17,8.97-.03,9.71l-.02.09,2.29.04-.02-.09c-.2-.91-.13-3.09-.08-4.69l.04-1.5c0-.77.19-1.35.57-1.71.34-.33.84-.49,1.46-.46h.38l.03-1.67h-.08c-1.13.05-1.91.3-2.38,1.18Z"/>
        <path class="cls-1" d="M146.88,53.29c-.26.15-.55.29-.84.29-.41,0-.62-.26-.62-.78v-6.94l1.56.03.03-1.08-1.62-.03.03-1.26.04-.7v-.03l-.02-.02s-.06-.06-2.06.15h-.06s-.03.07-.03.07v1.82l-1.44-.03-.04,1.08,1.51.03-.03,6.97c0,1.36.63,2,1.98,2,.6,0,1.17-.13,1.7-.38l.04-.02.02-1.08v-.18l-.15.08Z"/>
        <path class="cls-1" d="M138.45,32.2c.73.96,1.86,1.55,3.45,1.55,3.06,0,4.45-2.18,4.45-5.02s-1.44-5.07-4.46-5.07-4.43,2.18-4.43,4.93v.14s0,.06,0,.09h0c0,1.1-.28,2.89-1.73,2.89h-3.23v-2.84c0-2.81-1.45-5.07-4.47-5.07s-4.43,2.18-4.43,4.92,1.39,5.02,4.45,5.02h2.47c0,1.57-.43,4.07-2.47,4.07h-3.45v.8h3.45c2.98,0,4.45-2.09,4.45-4.87h2.5c1.58,0,2.73-.59,3.46-1.55ZM139.43,28.68c0-1.55.43-4.2,2.47-4.2s2.47,2.66,2.47,4.24v.11c0,.75-.13,1.84-.69,2.44-.93,1.01-2.56.99-3.53.02-.57-.6-.71-1.7-.71-2.46v-.15ZM127.3,31.72c-1.44,0-1.73-1.79-1.73-2.89,0-1.55.43-4.2,2.47-4.2s2.47,2.67,2.47,4.24v2.85h-3.2Z"/>
        <path class="cls-1" d="M32.17,33.75h3.01c1.58,0,2.73-.59,3.46-1.55.73.96,1.86,1.55,3.45,1.55,3.05,0,4.45-2.18,4.45-5.02s-1.45-5.07-4.47-5.07-4.43,2.18-4.43,4.93v.14s0,.06,0,.09h0c0,1.1-.29,2.89-1.72,2.89h-4.48c-1.44,0-1.73-1.79-1.73-2.89v-6.92c0-.19.02-.39.07-.6h-2.13c.06.21.08.41.08.6v6.82c0,2.84,1.39,5.02,4.44,5.02ZM39.63,28.68c0-1.55.43-4.2,2.47-4.2s2.46,2.66,2.46,4.24v.11c0,.75-.13,1.84-.69,2.44-.93,1.01-2.56.99-3.53.02-.57-.6-.71-1.7-.71-2.46v-.15Z"/>
        <path class="cls-1" d="M25.74,33.75v-4.87c0-1.08-.21-2.09-.65-2.91h-1.88c.43.9.55,2.05.55,2.89v4.87c0,1.57-.43,4.09-2.47,4.09h-3.45v.8h3.45c2.99,0,4.45-2.09,4.45-4.87Z"/>
        <path class="cls-1" d="M52.99,37.11l-.07.18.48.61c.32.07.64.11.97.11h2.35l-.09-.66h-1.57c-.15-.41-.25-.45-.25-.89,0-1.18.7-1,1.53-1l-.13-.74c-1.34,0-2.06-.1-2.06,1.67,0,.33,0,.33.11.57l.52.4h-.51c-.44,0-.87-.1-1.29-.25Z"/>
        <path class="cls-1" d="M18.68,33.75h2.12c-.05-.2-.07-.41-.07-.6v-11.24c0-.19.02-.39.07-.6h-2.12c.06.21.07.41.07.6v11.24c0,.19-.02.39-.07.6Z"/>
        <path class="cls-1" d="M119.57,33.75h2.12c-.06-.2-.07-.41-.07-.6v-11.24c0-.19.02-.39.07-.6h-2.12c.05.21.07.41.07.6v11.24c0,.19-.02.39-.07.6Z"/>
        <path class="cls-1" d="M51.74,31.76h-4.18l.82,2.03h5.45c3.06,0,4.45-2.19,4.45-5.02v-6.83c0-.18.01-.39.07-.6l-2.12.2c.06.21.07.41.07.6v6.71c0,1.1-.29,2.89-1.73,2.89h-.84c0-.07-.01-.13-.01-.2v-9.41c0-.18.02-.39.08-.59h-2.13c.06.2.07.41.07.59v9.41c0,.06,0,.13-.01.2Z"/>
        <path class="cls-1" d="M60.2,33.75h2.12c-.06-.2-.07-.41-.07-.6v-11.24c0-.19.02-.39.07-.6l-2.12.21c.05.21.07.41.07.6v11.04c0,.19-.02.39-.07.6Z"/>
        <path class="cls-1" d="M95.49,31.99c.58,1.08,1.61,1.76,3.28,1.76h14.71c2.89,0,4.17-2.15,4.17-4.81v-.21c0-2.74-1.55-4.7-4.43-4.7l-7.15-.11c-1.53,0-2.6.54-3.29,1.43v-.73c0-.18.02-.39.08-.59h-2.12c.05.2.07.41.07.59v6.93c0,.05,0,.11,0,.16h-2.77c-1.44,0-1.73-1.79-1.73-2.89h0s0-.04,0-.06v-6.83c0-.18.02-.39.07-.6l-2.12.2c.06.21.07.41.07.6v6.71c0,1.1-.29,2.89-1.73,2.89h-.85c0-.07-.01-.13-.01-.2v-9.41c0-.18.02-.39.08-.59h-2.12c.05.2.07.41.07.59v9.41c0,.06,0,.13-.01.2h-4.16l.82,2.03h5.45c1.72,0,2.91-.69,3.62-1.8ZM106.22,24.85h6.99c2.04,0,2.47,2.42,2.47,3.97,0,1.1-.29,2.89-1.73,2.89h-11.15c0-.05,0-.11,0-.16v-3.2c0-2.22,1.21-3.51,3.43-3.51Z"/>
        <path class="cls-1" d="M6.79,25.81c.55,0,1.15-.26,1.15-.92s-.63-.86-1.17-.86-1.19.22-1.19.87c0,.71.59.9,1.21.9Z"/>
        <path class="cls-1" d="M10.13,25.81c.56,0,1.15-.26,1.15-.92s-.63-.86-1.17-.86-1.18.22-1.18.87c0,.71.59.9,1.2.9Z"/>
        <path class="cls-1" d="M73.89,25.81c.55,0,1.15-.26,1.15-.92s-.63-.86-1.17-.86-1.18.22-1.18.87c0,.71.59.9,1.2.9Z"/>
        <path class="cls-1" d="M77.24,25.81c.56,0,1.15-.26,1.15-.92s-.63-.86-1.17-.86-1.18.22-1.18.87c0,.71.59.9,1.2.9Z"/>
        <path class="cls-1" d="M79.43,33.75c3.06,0,4.45-2.18,4.45-5.02v-2.15c0-.18.01-.39.07-.59h-2.12c.05.2.07.41.07.59v2.24c0,1.1-.29,2.89-1.73,2.89h-8.01c-1.22,0-4-.11-4-1.85v-3.9l-.95.02v3.86c0,3.21,2.82,3.9,5.47,3.9h6.76Z"/>
        <path class="cls-1" d="M5.56,33.75h6.76c3.06,0,4.45-2.18,4.45-5.02v-2.15c0-.18,0-.39.07-.59h-2.13c.05.2.07.41.07.59v2.24c0,1.1-.29,2.89-1.73,2.89H5.04c-1.22,0-4-.11-4-1.85v-3.9l-.95.02v3.86c0,3.21,2.82,3.9,5.46,3.9Z"/>
      </g>
      <path class="cls-4" d="M163.01,18.67c2.35-2.66,5.14-5.01,8.33-6.94,13.6-8.22,30.42-6.32,41.84,3.53l-.5.38-6.3,6.14,18.01-1.05-.16-16.35-5.22,5.09-.15.38c-11.39-10.86-28.98-13.24-43.08-4.71-5.65,3.42-10.03,8.16-12.98,13.59l-.17.3"/>
    </g>
  </g>
</svg>