<?xml version="1.0" encoding="UTF-8"?>
<svg id="Layer_2" xmlns="http://www.w3.org/2000/svg" viewBox="0 0 105.36 100.08">
  <defs>
    <style>
      .cls-1 {
        fill: #b14746;
      }
    </style>
  </defs>
  <g id="Layer_2-2" data-name="Layer_2">
    <g>
      <g>
        <g>
          <path class="cls-1" d="M105.21,84.09c-.31-2.41-1.38-4.6-3.03-6.38-2.39-2.58-4.83-5.1-7.27-7.63-4.04-4.21-8.08-8.41-12.13-12.61-1.02-1.06-1.83-1.05-2.86-.02-.27.27-.54.54-.86.75-.71.48-1.59.37-2.17-.24-.6-.62-.72-1.52-.24-2.26.25-.39.6-.72.91-1.07.74-.86.74-1.76-.01-2.61-.2-.22-.41-.43-.62-.65-.96-.99-1.92-1.98-2.91-3.01.14-.18.2-.27.27-.34,2.6-2.7,5.18-5.41,7.8-8.09.19-.2.61-.3.88-.25,2.59.46,5.16.39,7.7-.27,5.66-1.47,9.85-4.92,12.58-10.27,2.23-4.37,2.48-9.01,1.59-13.78-.22-1.18-1.3-1.78-2.27-1.3-.31.15-.57.43-.82.68-3.06,3.17-6.12,6.33-9.16,9.52-.36.37-.66.42-1.1.26-2.23-.79-4.46-1.56-6.7-2.32-.41-.14-.64-.37-.78-.82-.72-2.33-1.46-4.65-2.24-6.96-.18-.52-.06-.82.29-1.18,3.02-3.12,6.02-6.25,9.03-9.38.18-.18.36-.37.51-.57.79-1.06.33-2.43-.93-2.73-2.25-.54-4.51-.75-6.83-.44-4.06.53-7.65,2.16-10.63,5.05-4.99,4.84-6.97,10.86-6.02,17.89.08.61-.03.99-.44,1.42-11.31,11.73-22.6,23.48-33.88,35.24-.49.51-.94.66-1.59.53-2.22-.43-4.46-.35-6.65.14-4.82,1.06-8.76,3.63-11.67,7.79-3.39,4.84-4.43,10.25-3.28,16.1.59,3,1.85,5.7,3.69,8.09,3.4,4.42,7.86,6.92,13.24,7.52,2.89.32,5.75-.06,8.49-1.15,4.72-1.88,8.26-5.13,10.55-9.83,1.9-3.9,2.42-8.02,1.76-12.33-.04-.27.07-.66.25-.85,2.53-2.67,5.1-5.32,7.64-7.98.31-.32.5-.33.81,0,1,1.07,2.03,2.13,3.05,3.18.94.96,1.77.94,2.73,0,.29-.28.57-.58.89-.81.66-.47,1.62-.36,2.19.22.58.58.7,1.55.24,2.27-.21.32-.47.61-.73.89-1,1.07-1.02,1.92,0,2.97,6.22,6.47,12.45,12.95,18.68,19.41,3.64,3.77,8.06,5.08,12.92,3.57,6.78-2.1,10.06-8.05,9.12-15.38ZM44.7,74.06c-.6.62-.87,1.28-.67,2.16.5,2.2.57,4.42.22,6.65-1.02,6.53-5.89,12-12.04,13.52-7.41,1.84-14.88-1.78-18.33-8.86-4.11-8.46-.35-19.08,8.07-22.8,3.21-1.42,6.52-1.74,9.92-.96.95.22,1.67,0,2.37-.73,11.86-12.36,23.73-24.7,35.61-37.03.67-.69.93-1.39.72-2.38-.9-4.12-.39-8.07,1.61-11.76,2.35-4.34,5.9-7.06,10.57-8.13,1.13-.26,2.31-.28,3.47-.39.2-.02.4.03.79.05-.3.33-.46.51-.64.69-2.47,2.58-4.93,5.17-7.44,7.72-.74.75-.89,1.53-.56,2.52.99,3.01,1.94,6.04,2.9,9.06.27.84.75,1.38,1.59,1.67,2.97,1,5.94,2.03,8.89,3.08.88.32,1.56.12,2.21-.56,2.48-2.6,4.98-5.19,7.48-7.78.17-.18.35-.35.65-.65.04.39.1.62.09.86-.07,7.32-4.33,13.48-11.01,15.82-2.79.98-5.65,1.06-8.52.37-.89-.21-1.56.01-2.2.68-11.91,12.4-23.83,24.79-35.76,37.17ZM85.3,93.4c-4.85-5.04-9.7-10.09-14.56-15.13-.91-.95-1.82-1.91-2.75-2.85-.31-.31-.37-.54-.11-.94,1.34-2.13,1.06-4.77-.65-6.55-1.67-1.73-4.24-1.99-6.26-.6-.35.24-.56.24-.85-.08-.52-.59-1.06-1.17-1.64-1.7-.44-.41-.45-.68-.01-1.13,4.05-4.17,8.07-8.35,12.09-12.54.37-.38.69-.8,1.12-1.29.88.93,1.66,1.74,2.4,2.58.09.1.01.44-.09.61-1.74,2.87-.74,6.39,2.25,7.7,1.59.7,3.15.52,4.59-.46.39-.27.61-.26.94.09,5.81,6.07,11.63,12.12,17.45,18.19.2.21.39.45.76.88-.28.18-.52.29-.7.47-4.09,4.24-8.17,8.49-12.26,12.73q-.88.91-1.74.02ZM99.2,93.86c-2.44,2.56-6.96,3.55-10.18,2.05,4.16-4.31,8.27-8.57,12.47-12.91,1.32,3.2.74,7.69-2.29,10.86Z"/>
          <path class="cls-1" d="M45.18,41.7c-6.72-6.99-13.44-13.99-20.18-20.96-.36-.37-.89-.65-1.39-.79-1.58-.46-3.2-.82-4.78-1.27-.3-.09-.63-.35-.79-.63-1.67-2.98-3.3-5.98-4.95-8.96-.19-.33-.19-.55.09-.84,1.34-1.37,2.67-2.75,3.98-4.14.28-.29.5-.28.82-.09,2.89,1.73,5.79,3.44,8.67,5.18.23.14.45.45.52.73.45,1.69.81,3.41,1.28,5.09.15.54.44,1.09.82,1.48,6.65,6.95,13.32,13.87,19.99,20.8.16.16.33.32.62.59.55-.62,1.06-1.21,1.59-1.79.58-.62.58-.61-.02-1.24-6.44-6.7-12.89-13.4-19.32-20.11-.35-.36-.64-.86-.77-1.35-.45-1.67-.82-3.36-1.21-5.04-.16-.71-.51-1.25-1.14-1.62-3.59-2.12-7.17-4.26-10.75-6.37-.95-.56-1.53-.48-2.3.32-2.03,2.09-4.05,4.2-6.06,6.31-.75.79-.85,1.46-.33,2.41,2.05,3.75,4.11,7.49,6.17,11.23.31.56.75.91,1.36,1.06,1.26.32,2.5.69,3.76.96,1.3.27,2.35.85,3.31,1.86,6.17,6.5,12.39,12.93,18.6,19.39.19.19.39.37.53.5.77-.79,1.49-1.53,2.24-2.3-.1-.12-.21-.27-.34-.4Z"/>
        </g>
        <path class="cls-1" d="M35.96,80.39c-1.09,1.95-2.22,3.87-3.32,5.81-.21.37-.45.49-.85.48-1.13-.03-2.25,0-3.38,0-1.13,0-2.25.02-3.38-.02-.24,0-.56-.19-.68-.4-1.15-1.94-2.28-3.89-3.38-5.85-.11-.21-.12-.6,0-.8,1.09-1.95,2.2-3.88,3.35-5.8.13-.22.48-.43.73-.44,2.27-.03,4.55-.01,6.82-.03.39,0,.6.16.79.49,1.09,1.92,2.21,3.82,3.29,5.75.12.21.12.6.01.8Z"/>
      </g>
      <path class="cls-1" d="M22.81,54.35c-.73,0-1.4-.53-1.56-1.31-.18-.89.36-1.77,1.22-1.97,1.96-.44,3.97-.66,5.98-.66.88,0,1.59.74,1.59,1.66s-.71,1.66-1.59,1.66c-1.79,0-3.58.2-5.31.58-.11.02-.23.04-.34.04Z"/>
      <path class="cls-1" d="M1.59,81.67c-.88,0-1.59-.74-1.59-1.66,0-10.67,5.56-20.55,14.5-25.79.77-.45,1.74-.17,2.17.63.43.8.16,1.81-.6,2.26-7.95,4.66-12.88,13.43-12.88,22.91,0,.92-.71,1.66-1.59,1.66Z"/>
    </g>
  </g>
</svg>