<svg width="24" height="24" id="Layer_2" xmlns="http://www.w3.org/2000/svg" viewBox="0 0 19.76 16.21">
    <defs>
        <style>
            .cls-1 {
                fill: #25365a;
            }
        </style>
    </defs>
    <g id="Layer_2-2" data-name="Layer_2">
        <g>
            <path class="cls-1"
                d="M9.83,8.19C7.16,5.44,4.53,2.73,1.89,0,1.26.53.64,1.05.02,1.57c.09.1.16.17.22.24,1.9,1.96,3.8,3.91,5.7,5.88.39.4.38.64-.02,1.03-1.11,1.11-2.22,2.23-3.34,3.34-.85.85-1.71,1.69-2.59,2.57.65.55,1.27,1.06,1.9,1.59,2.65-2.68,5.28-5.34,7.93-8.02Z" />
            <path class="cls-1"
                d="M11.84,16.21c2.65-2.68,5.29-5.35,7.93-8.02C17.1,5.44,14.47,2.73,11.83,0c-.64.54-1.25,1.05-1.88,1.57.07.07.12.14.18.19,1.88,1.94,3.77,3.88,5.65,5.82.5.52.5.71,0,1.21-1.74,1.74-3.47,3.47-5.21,5.21-.21.21-.45.38-.69.58.72.6,1.33,1.11,1.96,1.63Z" />
        </g>
    </g>
</svg>