<?xml version="1.0" encoding="UTF-8"?>
<svg id="Layer_2" xmlns="http://www.w3.org/2000/svg" viewBox="0 0 165.42 117.18">
  <defs>
    <style>
      .cls-1 {
        fill: #85b2dc;
      }
    </style>
  </defs>
  <g id="Layer_2-2" data-name="Layer_2">
    <g>
      <g>
        <path class="cls-1" d="M141.8,105.93c-3.07-9.19-6.14-18.38-9.2-27.56-1.2-3.6-2.41-7.19-3.6-10.79-.48-1.44-1.38-2.46-2.84-2.7-.67-.11-.85-.45-1-1.01-.42-1.57-.91-3.13-1.26-4.72-.12-.57-.08-1.29.16-1.81,2.03-4.38,4.14-8.72,6.2-13.09,3.61-7.66,1.29-15.83-5.7-20.25-.83-.53-1.61-1.17-2.35-1.84-1.34-1.22-2.61-2.54-3.96-3.75-2.46-2.19-5.81-2.42-8.4-.64-.46.31-.87.69-1.4,1.1-.7-.85-1.36-1.68-2.06-2.48-7.57-8.6-16.87-13.89-27.95-15.77-6.06-1.03-12.1-.8-18.08.66-1.28.31-1.98,1.35-1.76,2.5.24,1.24,1.26,1.91,2.58,1.69,1.79-.3,3.58-.69,5.38-.89,5.39-.59,10.7-.14,15.93,1.37,9.63,2.79,17.42,8.37,23.4,16.68.2.28.26.85.14,1.19-.6,1.61-1.28,3.19-1.93,4.78-.09.22-.23.43-.34.62-7.93-11.97-18.55-19.01-32.7-19.02-14.18,0-24.83,7.03-32.78,19.05-.15-.3-.3-.57-.41-.85-.59-1.41-1.13-2.84-1.76-4.23-.32-.7-.24-1.21.21-1.82,3.05-4.17,6.64-7.75,10.88-10.58,1.65-1.11,3.42-2.03,5.13-3.04.95-.56,1.38-1.38,1.23-2.36-.14-.9-.84-1.71-1.73-1.74-.58-.02-1.21.18-1.75.45-6.18,3.14-11.45,7.49-15.8,13.03-.49.62-.78.74-1.44.16-1.84-1.64-4.02-2.16-6.31-1.36-1.16.4-2.27,1.15-3.21,1.98-2.32,2.04-4.36,4.41-7.06,5.99-.87.51-1.62,1.29-2.3,2.06-4.22,4.83-5,11.27-2.14,17.33,2.07,4.36,4.16,8.72,6.21,13.09.2.43.34,1.01.23,1.45-.43,1.8-.94,3.58-1.47,5.35-.07.25-.35.58-.56.61-1.78.26-2.71,1.41-3.27,3.1-4.26,12.79-8.54,25.57-12.82,38.35-.3.9-.16,1.71.52,2.38.58.57,1.28.77,2.05.51.84-.29,1.23-.98,1.5-1.81,4.12-12.36,8.26-24.72,12.38-37.08.21-.63.39-.91,1.1-.65,5.25,1.92,10.52,3.81,15.79,5.69.64.23.77.54.54,1.21-1.06,3.07-2.08,6.16-3.1,9.24-3.13,9.37-6.25,18.74-9.37,28.11-.46,1.39.04,2.55,1.22,2.96,1.18.42,2.26-.19,2.72-1.59,2.98-8.91,5.95-17.83,8.92-26.75.57-1.7,1.15-3.4,1.72-5.1.11-.06.22-.12.34-.17.25.36.44.8.76,1.08,2.22,1.98,4.32,4.14,6.72,5.84,11.86,8.39,24.85,10.73,38.78,7.27,2.41-.6,4.74-1.59,7.07-2.5,1.26-.49,1.68-1.73,1.18-2.9-.46-1.09-1.59-1.51-2.82-1.04-.2.08-.4.16-.6.24-8.38,3.57-17.02,4.34-25.83,2.35-9.16-2.06-16.86-6.81-23.14-14.07-.64-.74-.82-1.34-.43-2.27.74-1.76.68-3.43-.78-4.84-.12-.12-.21-.43-.15-.59.28-.8.6-1.58.98-2.52,7.79,12.58,18.59,19.46,32.84,19.45,14.26,0,25.06-6.94,32.79-19.46.53,1.49,1.66,2.75.08,4.07-.11.09-.14.28-.2.42-.55,1.25-.26,2.46.22,3.62.32.77.28,1.36-.35,1.95-2.36,2.2-4.67,4.45-7.03,6.64-1.1,1.02-1.38,2.14-.63,3.18.75,1.05,2.06,1.21,3.17.24,2.03-1.76,4-3.6,6-5.4.24-.22.47-.44.77-.71.17.47.29.8.4,1.13,3.42,10.25,6.83,20.49,10.29,30.73.2.59.65,1.18,1.15,1.53.72.51,1.54.33,2.23-.24.72-.59.93-1.47.58-2.53-3.87-11.61-7.74-23.21-11.61-34.82-.38-1.13-.74-2.27-1.12-3.42.34-.16.53-.26.73-.33,5.32-1.92,10.64-3.83,15.95-5.77.74-.27.81.2.99.71,4.14,12.39,8.28,24.78,12.43,37.17.49,1.45,1.61,2.11,2.75,1.67,1.23-.47,1.66-1.68,1.16-3.16ZM67.9,14.68c11.34-1.03,20.79,3.14,28.59,11.84-5,3.21-6.18,7.58-3.96,13.18-14.35-3.71-28.58-3.73-43,.01,2.19-5.59,1.06-9.95-3.93-13.16,6.01-6.96,13.39-11.07,22.3-11.88ZM85.15,47.08c.14,1.6-.09,3.25-.27,4.86-.19,1.78-.42,3.56-.8,5.31-.78,3.66-3.87,6.3-7.47,6.44-1.88.07-3.76.01-5.64.01v.02c-1.66,0-3.33.02-4.99,0-4.24-.06-7.48-2.89-8.19-7.23-.4-2.43-.69-4.88-.98-7.32-.22-1.88.24-3.62,1.21-5.21.8-1.31,1.94-2,3.42-2.17,6.4-.71,12.79-.72,19.19,0,2.41.27,4.27,2.31,4.52,5.28ZM35.13,65.53c-.63,1.66-1.27,3.31-1.94,5.05-2.48-.89-4.89-1.75-7.3-2.61-1.48-.53-2.95-1.12-4.45-1.6-.69-.22-.75-.58-.58-1.21.58-2.06,1.11-4.13,1.72-6.17.26-.87.13-1.61-.25-2.39-2.24-4.67-4.4-9.37-6.7-14.01-2.5-5.04-1.25-10.34,2.18-13.49.37-.34.74-.7,1.18-.92,2.72-1.43,4.63-3.88,6.91-5.86.68-.59,1.52-1.14,2.36-1.3,1.29-.25,2.23.53,2.82,1.97,1.48,3.58,2.96,7.17,4.43,10.76.02.06.04.12.07.18.44,1.19,1.05,2.22,2.43,2.3,1.38.07,2.09-.86,2.65-2.02.55-1.14,1.18-2.24,1.74-3.39.28-.57.54-.72,1.14-.39,2.67,1.46,3.55,3.81,2.42,6.76-3.61,9.45-7.22,18.9-10.84,28.35ZM60.59,82.72c-9.06-3.19-15.7-9.25-19.92-18.18-.31-.66.24-3.25.8-3.63.15-.1.41-.09.61-.07,4.45.64,8.91,1.28,13.36,1.96.32.05.64.33.89.57.73.69,1.45,1.38,2.12,2.13.34.38.7.83.81,1.31,1.08,5.13,2.11,10.26,3.15,15.4.06.3.07.61.13,1.1-.74-.23-1.35-.39-1.94-.6ZM100.7,66.04c-4.63,8.57-11.41,14.3-20.48,17.09-.17.05-.35.08-.75.16.28-1.45.52-2.73.78-4,.83-4.1,1.64-8.21,2.52-12.3.12-.56.55-1.09.93-1.55.42-.5,1.08-.83,1.4-1.37.7-1.16,1.75-1.36,2.9-1.52,3.97-.54,7.94-1.1,11.9-1.68.52-.08.83.02.98.56,0,.03.02.06.04.09.94,1.56.62,2.97-.22,4.53ZM120.64,66.37c-3.82,1.34-7.62,2.73-11.43,4.1-.08.03-.18.01-.37.02-.72-1.87-1.46-3.76-2.18-5.65-3.52-9.21-7.05-18.43-10.56-27.64-1.14-2.99-.25-5.4,2.47-6.81.5-.26.77-.2,1.02.31.65,1.31,1.34,2.59,2,3.89.52,1.01,1.27,1.68,2.41,1.62,1.14-.06,1.83-.77,2.27-1.83,1.54-3.77,3.09-7.53,4.65-11.29.99-2.39,3.01-2.86,4.88-1.14.94.87,1.86,1.78,2.78,2.67,1.33,1.29,2.72,2.45,4.29,3.45,4.45,2.8,6.15,8.6,3.94,13.52-2.25,5.01-4.67,9.95-7.04,14.9-.42.88-.54,1.7-.25,2.67.6,1.98,1.1,4,1.67,5.99.17.61.15.99-.55,1.23Z"/>
        <path class="cls-1" d="M70.97,54.16c-1.2-.03-2.15-1.05-2.14-2.29,0-1.22.99-2.26,2.17-2.28,1.21-.02,2.24,1.05,2.24,2.31,0,1.28-1.03,2.29-2.27,2.26Z"/>
      </g>
      <path class="cls-1" d="M76.48,117.18h-3.25c-1.14,0-2.07-.96-2.07-2.15s.92-2.15,2.07-2.15h3.25c1.14,0,2.07.96,2.07,2.15s-.92,2.15-2.07,2.15Z"/>
      <path class="cls-1" d="M163.35,117.18h-61.86c-1.14,0-2.07-.96-2.07-2.15s.92-2.15,2.07-2.15h61.86c1.14,0,2.07.96,2.07,2.15s-.92,2.15-2.07,2.15Z"/>
    </g>
  </g>
</svg>