<?xml version="1.0" encoding="UTF-8"?>
<svg id="Layer_2" xmlns="http://www.w3.org/2000/svg" viewBox="0 0 108.9 109.9">
  <defs>
    <style>
      .cls-1 {
        fill: #006051;
      }
    </style>
  </defs>
  <g id="Layer_2-2" data-name="Layer_2">
    <g>
      <path class="cls-1" d="M95.31,79.23c0,2.17-.03,4.06.03,5.95,0,.28.36.64.65.8,1.12.6,2.28,1.14,3.54,1.75-.53,1.13-1.04,2.2-1.6,3.38-.98-.46-1.91-.89-2.83-1.34-3.46-1.66-6.91-3.32-10.37-4.98-.8-.38-1.67-.48-2.23.25-.37.49-.63,1.3-.5,1.87.12.53.74,1.07,1.28,1.34,2.24,1.15,4.52,2.2,6.79,3.29.48.23.96.47,1.48.73-1.65,3.77-.07,7.46.07,11.16.08,2.12.42,4.23.66,6.43h-3.77c-.31-2.79-.64-5.59-.93-8.39-.24-2.27-.41-4.55-.67-6.82-.03-.28-.41-.61-.7-.76-1.59-.8-3.21-1.55-4.81-2.34-3.01-1.49-4.19-4.72-2.79-7.63,1.37-2.83,4.63-3.98,7.61-2.63,1.72.78,3.41,1.62,5.23,2.5v-8.66c-.73-.11-1.49-.19-2.23-.34-6.92-1.44-11.29-5.64-13.22-12.39-.2-.71-.44-.92-1.15-.92-19.68.02-39.36.01-59.04.02-1.42,0-2.07.59-2.07,1.93-.02,6.91,0,13.82,0,20.88.39-.15.69-.26.98-.4,1.85-.88,3.69-1.8,5.56-2.64,2.92-1.31,6.16-.16,7.51,2.63,1.37,2.81.3,6.04-2.55,7.54-1.64.87-3.36,1.59-5.01,2.45-.33.17-.67.62-.71.97-.45,3.96-.85,7.94-1.26,11.91-.1,1-.23,2-.36,3.08h-3.74c.12-1.29.23-2.58.37-3.86.35-3.24.79-6.47,1.02-9.71.09-1.3-.28-2.63-.46-4.12,2.38-1.15,4.95-2.39,7.52-3.63,1.75-.84,2.33-1.8,1.78-2.96-.55-1.17-1.63-1.31-3.43-.44-4.11,1.98-8.23,3.95-12.45,5.98-.55-1.14-1.08-2.23-1.63-3.37.44-.23.76-.49,1.12-.58,1.73-.44,2.24-1.53,2.03-3.25-.16-1.29-.03-2.62-.03-3.96-4.12,1.42-6.21,4.03-6.16,8.03.09,6.79.02,13.59.02,20.38,0,.46,0,.92,0,1.47H0c0-.45,0-.86,0-1.28,0-6.83,0-13.66,0-20.5,0-4.88,2.08-8.47,6.45-10.72,1.17-.6,2.74-1,3.32-1.98.59-.98.2-2.55.2-3.87.01-2.76,0-5.51,0-8.27.02-3.19,2.31-5.48,5.52-5.48,19.49,0,38.97,0,58.46,0,.46,0,.92,0,1.48,0,.43-5.36,2.64-9.73,6.98-12.89,3.22-2.34,6.86-3.37,10.83-3.15,7.63.42,14.13,6.33,15.44,13.96,1.22,7.13-2.65,16.62-13.34,19.25,1.58.84,3.03,1.64,4.5,2.38,4.42,2.24,6.54,5.85,6.53,10.78-.02,6.79,0,13.59,0,20.38,0,.42,0,.85,0,1.36h-3.82c0-.47,0-.93,0-1.39,0-6.68-.07-13.35.03-20.03.05-3.7-1.38-6.35-4.77-7.9-.77-.35-1.5-.78-2.5-1.31ZM105.07,58.46c.02-7.12-5.69-12.92-12.77-12.98-7.17-.05-13,5.75-13.04,12.98-.05,7.06,5.73,12.84,12.87,12.86,7.22.02,12.92-5.65,12.95-12.87Z"/>
      <path class="cls-1" d="M11.95,3.92V.02c1.55,0,3.06-.07,4.55.04.51.04,1.03.49,1.46.85,4.27,3.61,8.52,7.23,12.78,10.85.2.17.43.32.71.53,3.07-2.25,6.12-4.5,9.18-6.75,2.16-1.59,4.28-3.22,6.48-4.74.65-.45,1.54-.76,2.33-.77,4.73-.07,9.46-.04,14.27-.04v3.74c-.93,0-1.85,0-2.77,0-3.45,0-6.91-.03-10.36.03-.67.01-1.45.26-2,.65-5.71,4.15-11.45,8.26-17.03,12.59-1.9,1.47-3.94,1.63-6.08,1.83-2.51.24-5.03.39-7.52.74-2.17.3-3.71,1.59-4.76,3.8,1.34,0,2.52,0,3.69,0,1.24,0,2.48-.01,3.73,0,1.84.02,2.45.63,2.47,2.44.01,1.51,0,3.02,0,4.6.38.04.67.09.97.09,1.59,0,3.18-.04,4.77.02,2.18.08,4.08-.28,6.11-1.46,4.36-2.55,8.82-2.05,13.04.75.59.39,1.39.66,2.1.67,4.11.06,8.23.03,12.34.03h1.32v3.71h-11.86c.41,1.26.75,2.34,1.13,3.52h10.72v3.74c-3.03,0-6.01.08-8.98-.04-1.32-.05-1.81.31-2.15,1.63-1.43,5.62-6.48,9.31-12.22,9.12-5.78-.19-10.61-4.18-11.72-9.79-.17-.86-.55-.94-1.25-.93-5.28.02-10.56.01-15.84,0-2.12,0-2.7-.58-2.7-2.68,0-4.19-.02-8.39,0-12.58.02-4.08,1.71-7.24,5.28-9.34.39-.23.74-.67.91-1.1,1.1-2.85,2.13-5.73,3.22-8.58.25-.65.07-.98-.4-1.46-1.62-1.65-3.42-2.63-5.94-1.85ZM40.73,48.47c4.72,0,8.59-3.84,8.61-8.56.02-4.69-3.87-8.61-8.55-8.64-4.74-.02-8.68,3.9-8.68,8.64,0,4.69,3.9,8.55,8.62,8.55ZM28.48,37.7c.36-1.12.71-2.2,1.07-3.33H12.78v3.33h15.7ZM12.77,30.45h6.45v-3.13h-6.45v3.13Z"/>
      <path class="cls-1" d="M53.27,93.62c4.15,0,8.3-.02,12.45,0,2.31.02,4.26,1.72,4.56,3.86.34,2.43-.92,4.57-3.18,5.29-.61.19-1.29.25-1.94.25-7.99.02-15.98-.05-23.97.04-3.77.04-5.92-3.3-4.89-6.28.67-1.94,2.31-3.15,4.41-3.16,4.19-.03,8.38,0,12.57,0Z"/>
      <path class="cls-1" d="M43.65,17.61h20.06v3.86c-.46,0-.91,0-1.35,0-7.83-.05-15.67-.1-23.5-.15-.47,0-.99.11-1.38-.07-.65-.3-1.45-.66-1.76-1.23-.43-.79-.07-1.65.72-2.23,2.66-1.95,5.31-3.91,7.96-5.86,1.75-1.29,3.49-2.59,5.26-3.85.43-.3.96-.64,1.44-.65,4.18-.05,8.37-.03,12.62-.03v3.77c-1.04,0-2.07,0-3.11,0-2.64,0-5.28,0-7.91,0-.37,0-.83,0-1.1.19-2.7,1.94-5.37,3.91-8.05,5.88.03.12.07.24.1.36Z"/>
      <path class="cls-1" d="M27.04,109.9v-3.61h51.19v3.61H27.04Z"/>
      <path class="cls-1" d="M36.07,67.93c0-.46-.03-.93,0-1.39.07-1.04.73-1.71,1.78-1.76.93-.04,1.86-.06,2.78,0,1.02.07,1.65.66,1.71,1.7.06.96.06,1.94,0,2.9-.06,1.03-.68,1.62-1.71,1.69-.85.05-1.7.05-2.55.02-1.39-.05-2-.7-2.02-2.12,0-.35,0-.7,0-1.04h0Z"/>
      <path class="cls-1" d="M45.41,67.92c0-.58-.11-1.19.02-1.73.27-1.11,1.12-1.54,2.21-1.41,1.43.16,3.35-.73,3.95,1.38.31,1.11.16,2.39.02,3.57-.1.82-.77,1.32-1.66,1.34-.85.03-1.7.04-2.55.02-1.39-.05-1.99-.7-2.01-2.13,0-.35,0-.7,0-1.04.01,0,.02,0,.03,0Z"/>
      <path class="cls-1" d="M67.37,64.73c.5.04,1.15-.02,1.72.16.99.31,1.33,1.14,1.22,2.12-.15,1.38.7,3.24-1.14,3.88-1.2.42-2.78.43-3.98.01-1.98-.68-.99-2.65-1.17-4.08-.13-.97.36-1.69,1.28-1.96.61-.18,1.3-.09,2.08-.14Z"/>
      <path class="cls-1" d="M36.1,77.23c0-.58-.08-1.17.02-1.74.18-1.01.97-1.45,2.57-1.39,1.35.05,3.11-.57,3.59,1.39.28,1.13.15,2.4,0,3.58-.1.82-.78,1.31-1.67,1.33-.89.02-1.78.05-2.67,0-1.21-.05-1.83-.71-1.88-1.9-.02-.42,0-.85,0-1.28.01,0,.02,0,.03,0Z"/>
      <path class="cls-1" d="M45.38,77.2c0-.43-.02-.85,0-1.28.06-1.15.76-1.92,1.94-1.81,1.54.15,3.65-.94,4.29,1.51.26,1.01.11,2.16.03,3.24-.07.86-.64,1.44-1.51,1.5-1.04.08-2.09.08-3.13.01-.98-.07-1.53-.69-1.62-1.66-.05-.5,0-1.01,0-1.51,0,0,0,0,0,0Z"/>
      <path class="cls-1" d="M61.06,77.46c-.06.56.04,1.29-.22,1.85-.79,1.67-2.4,1-3.71,1.11-.99.09-2.07-.09-2.26-1.16-.23-1.3-.38-2.79.02-3.99.65-1.93,2.57-1,3.97-1.17.95-.12,1.73.28,2.02,1.2.2.64.13,1.37.18,2.16Z"/>
      <path class="cls-1" d="M67.18,74.04c.69.05,1.34,0,1.91.17.93.29,1.34,1.05,1.23,1.99-.16,1.41.75,3.34-1.13,4-1.23.43-2.87.43-4.08-.02-1.85-.69-.91-2.62-1.08-4.03-.11-.9.29-1.64,1.17-1.91.65-.2,1.37-.15,1.99-.2Z"/>
      <path class="cls-1" d="M36.06,86.6c0-.46-.02-.93,0-1.39.06-1.05.72-1.73,1.76-1.78.93-.05,1.86-.05,2.78,0,1.04.05,1.7.73,1.75,1.79.04.93.05,1.86,0,2.78-.06,1.03-.66,1.63-1.69,1.71-.77.06-1.55.04-2.32.03-1.69-.03-2.27-.62-2.28-2.33,0-.27,0-.54,0-.81h0Z"/>
      <path class="cls-1" d="M45.38,86.5c0-.43-.02-.85,0-1.28.06-1.05.71-1.75,1.74-1.8.93-.05,1.86-.04,2.78,0,1.05.05,1.71.72,1.76,1.77.05.89.04,1.78,0,2.67-.04,1.14-.67,1.79-1.8,1.86-.73.05-1.47.03-2.2.02-1.71-.03-2.29-.62-2.3-2.31,0-.31,0-.62,0-.93h0Z"/>
      <path class="cls-1" d="M54.7,86.59c0-.46-.02-.93,0-1.39.06-1.05.72-1.73,1.76-1.78.93-.04,1.86-.05,2.78,0,1.02.06,1.66.64,1.73,1.68.06.96.06,1.94,0,2.9-.05,1.04-.66,1.63-1.69,1.71-.77.06-1.55.04-2.32.03-1.69-.03-2.27-.62-2.28-2.33,0-.27,0-.54,0-.81h0Z"/>
      <path class="cls-1" d="M70.31,86.6c0,.46.03.93,0,1.39-.09,1.03-.66,1.65-1.69,1.71-.96.06-1.94.06-2.9,0-1.03-.06-1.63-.68-1.69-1.72-.05-.93-.04-1.86,0-2.79.05-1.09.74-1.75,1.87-1.79.81-.03,1.63-.02,2.44,0,1.27.03,1.93.67,1.99,1.92.02.42,0,.85,0,1.28,0,0,0,0,0,0Z"/>
      <path class="cls-1" d="M54.7,67.96c0-.46-.02-.93,0-1.39.06-1.05.72-1.73,1.76-1.78.93-.05,1.86-.05,2.78,0,1.04.05,1.7.73,1.75,1.79.04.93.05,1.86,0,2.78-.06,1.03-.66,1.63-1.69,1.71-.77.06-1.55.04-2.32.03-1.69-.03-2.27-.62-2.28-2.33,0-.27,0-.54,0-.81h0Z"/>
      <path class="cls-1" d="M19.37,64.82h7.74v3.63h-7.74v-3.63Z"/>
      <path class="cls-1" d="M27.16,71.14v3.58h-7.8v-3.58h7.8Z"/>
      <path class="cls-1" d="M101.21,56.69c-1.08.72-2.05,1.36-3.1,2.06-1.51-1.91-3.38-3.14-5.91-3.13-2.49,0-4.37,1.12-5.92,3.13-1.01-.66-2.01-1.3-3.14-2.03,2.06-3.03,4.86-4.7,8.41-4.89,4-.22,7.19,1.45,9.65,4.86Z"/>
      <path class="cls-1" d="M93.94,64.56c-1.2-1.02-2.37-.95-3.54-.02-.95-.81-1.86-1.57-2.76-2.34,2.17-2.91,6.62-2.93,9.08-.02-.9.76-1.8,1.53-2.79,2.38Z"/>
      <path class="cls-1" d="M40.69,33.71c3.45-.02,6.25,2.74,6.26,6.17,0,3.32-2.8,6.18-6.12,6.23-3.38.05-6.3-2.79-6.32-6.15-.02-3.43,2.75-6.22,6.19-6.25ZM38.35,39.91c0,1.34,1.01,2.35,2.35,2.37,1.38.02,2.42-1.03,2.41-2.43-.01-1.35-1-2.35-2.34-2.36-1.4-.01-2.42,1.01-2.41,2.42Z"/>
    </g>
  </g>
</svg>