<?xml version="1.0" encoding="UTF-8"?>
<svg id="Layer_2" xmlns="http://www.w3.org/2000/svg" viewBox="0 0 38.52 63.49">
  <defs>
    <style>
      .cls-1 {
        fill: #243548;
      }

      .cls-2 {
        fill: #eed191;
      }

      .cls-3 {
        fill: #089ece;
      }

      .cls-4 {
        opacity: .63;
      }

      .cls-4, .cls-5 {
        fill: #fff;
      }

      .cls-6 {
        fill: #f1f2f1;
      }

      .cls-7 {
        fill: #334963;
      }

      .cls-8 {
        fill: #dfba73;
      }

      .cls-9 {
        fill: #ba524d;
      }
    </style>
  </defs>
  <g id="Layer_1-2" data-name="Layer_1">
    <g>
      <g>
        <path class="cls-6" d="M10.2.22h18.83c2.87,0,5.19,2.33,5.19,5.19v45.24c0,7.05-5.72,12.77-12.77,12.77h-4.98c-7.05,0-12.77-5.72-12.77-12.77V6.72C3.7,3.13,6.61.22,10.2.22Z" transform="translate(-.72 .44) rotate(-1.31)"/>
        <rect class="cls-5" x="6.93" y="9.74" width="24.19" height="35.07" transform="translate(-.62 .44) rotate(-1.31)"/>
        <path class="cls-5" d="M38.52,44.12c-.01-1.05-1.52-.84-3.02-.82-1.5.02-2.41-.17-2.4.88.01,1.05,1.23,1.89,2.73,1.88,1.5-.02,2.7-.89,2.69-1.94Z"/>
        <path class="cls-5" d="M5.42,44.88c-.01-1.05-1.52-.84-3.02-.82-1.5.02-2.41-.17-2.4.88.01,1.05,1.23,1.89,2.73,1.88,1.5-.02,2.7-.89,2.69-1.94Z"/>
        <g>
          <rect class="cls-3" x="22.55" y="58.69" width=".65" height="4.65" transform="translate(-1.39 .54) rotate(-1.31)"/>
          <rect class="cls-3" x="16.39" y="58.83" width=".65" height="4.65" transform="translate(-1.39 .4) rotate(-1.31)"/>
          <rect class="cls-3" x="21.56" y=".15" width=".65" height="6.2" transform="translate(-.07 .5) rotate(-1.31)"/>
          <rect class="cls-3" x="15.39" y=".29" width=".65" height="6.2" transform="translate(-.07 .36) rotate(-1.31)"/>
        </g>
      </g>
      <g>
        <g>
          <path class="cls-5" d="M27.89,60.19c.82.8,1.82-.53,2.95-1.69,1.14-1.16,1.98-1.72,1.16-2.52-.82-.8-2.41-.51-3.54.66-1.14,1.16-1.39,2.76-.57,3.56Z"/>
          <path class="cls-2" d="M28.02,59.99c.75.74,1.67-.48,2.72-1.55,1.05-1.07,1.82-1.58,1.07-2.32-.75-.74-2.21-.47-3.26.6s-1.28,2.53-.53,3.27Z"/>
          <path class="cls-8" d="M28.55,56.72c.14-.14.29-.27.44-.38-.94,1.06-1.13,2.43-.4,3.14.39.38.83.23,1.31-.15-.7.71-1.33,1.2-1.87.67-.75-.74-.52-2.2.53-3.27Z"/>
          <path class="cls-6" d="M31.11,56.7c.2.41.23.81.43.72.2-.1.38-.59.18-1.01-.2-.41-.7-.59-.9-.49-.2.1.09.37.29.78Z"/>
        </g>
        <g>
          <path class="cls-5" d="M10.63,60.18c-.85.77-1.8-.58-2.9-1.78-1.1-1.2-1.93-1.79-1.08-2.56s2.42-.43,3.52.77c1.1,1.2,1.3,2.8.46,3.57Z"/>
          <path class="cls-2" d="M10.51,59.97c-.78.71-1.65-.54-2.66-1.64-1.01-1.1-1.77-1.64-1-2.35.78-.71,2.23-.4,3.24.71,1.01,1.1,1.2,2.57.42,3.29Z"/>
          <path class="cls-8" d="M10.09,56.68c-.13-.15-.28-.28-.42-.4.9,1.09,1.05,2.46.3,3.15-.41.37-.84.21-1.3-.19.67.73,1.29,1.24,1.85.73.78-.71.59-2.18-.42-3.29Z"/>
          <path class="cls-6" d="M7.53,56.58c-.21.41-.26.8-.45.7-.19-.1-.36-.6-.14-1.01.21-.41.72-.56.91-.46.19.1-.1.36-.32.77Z"/>
        </g>
        <g>
          <path class="cls-9" d="M31.42,3.5c-.5.46-1.43-.15-2.54-.85-1.11-.7-1.98-1.22-1.48-1.68.5-.46,1.81-.27,2.92.43s1.6,1.64,1.1,2.11Z"/>
          <path class="cls-4" d="M31.42,3.06c.12-.37-.22-.86-.39-.92-.17-.06-.05.26-.18.63-.12.37-.45.66-.28.71.17.06.72-.06.85-.43Z"/>
        </g>
        <g>
          <path class="cls-9" d="M5.21,5.78c.6.34,1.35-.48,2.27-1.42s1.64-1.65,1.05-1.98c-.6-.34-1.82.15-2.74,1.09-.92.94-1.18,1.97-.58,2.31Z"/>
          <path class="cls-4" d="M5.11,5.35c-.21-.33.01-.88.17-.98.16-.1.11.24.32.57s.59.53.43.63c-.16.1-.71.11-.92-.22Z"/>
        </g>
      </g>
      <g>
        <path class="cls-1" d="M7.33,44.9c.12,5.27,5.4,9.46,12.15,9.31h0c6.74-.15,12.16-4.59,12.04-9.86"/>
        <path class="cls-7" d="M8.38,44.88c.11,4.91,4.62,8.83,10.37,8.7l1.2-.03-.2-8.93-11.36.26Z"/>
        <polygon class="cls-1" points="33.8 27.32 31.63 27.37 32.01 43.8 34.15 42.52 33.8 27.32"/>
        <polygon class="cls-1" points="33.42 10.93 31.23 9.63 31.61 26.27 33.77 26.22 33.42 10.93"/>
        <polygon class="cls-1" points="6.31 28.27 4.15 28.32 4.49 43.31 6.69 44.7 6.31 28.27"/>
        <polygon class="cls-1" points="5.91 10.53 3.78 12.09 4.12 27.22 6.29 27.17 5.91 10.53"/>
        <path class="cls-1" d="M6.53,9.99c-.06-2.76,5.07-5.14,11.81-5.3h0c6.74-.15,12.31,1.98,12.37,4.75"/>
        <path class="cls-7" d="M7.58,9.97c-.06-2.58,4.18-4.52,9.92-4.65l1.34.05.1,4.34-11.36.26Z"/>
      </g>
    </g>
  </g>
</svg>