<?xml version="1.0" encoding="UTF-8"?>
<svg id="Layer_2" xmlns="http://www.w3.org/2000/svg" viewBox="0 0 55.82 60.71">
  <defs>
    <style>
      .cls-1 {
        fill: #243548;
      }

      .cls-2 {
        fill: #eed191;
      }

      .cls-3 {
        fill: #089ece;
      }

      .cls-4 {
        fill: #f1f2f1;
      }

      .cls-5 {
        fill: #fff;
      }

      .cls-6 {
        fill: #334963;
      }

      .cls-7 {
        fill: #dfba73;
      }

      .cls-8 {
        fill: #ba524d;
      }
    </style>
  </defs>
  <g id="Layer_1-2" data-name="Layer_1">
    <g>
      <g>
        <path class="cls-4" d="M17.61.03h18.83c2.87,0,5.19,2.33,5.19,5.19v45.24c0,7.05-5.72,12.77-12.77,12.77h-4.98c-7.05,0-12.77-5.72-12.77-12.77V6.52C11.12,2.94,14.03.03,17.61.03Z" transform="translate(25.26 -9.54) rotate(38.27)"/>
        <rect class="cls-5" x="17.22" y="10.63" width="24.19" height="35.07" transform="translate(23.75 -12.11) rotate(38.27)"/>
        <path class="cls-5" d="M33.61,53.57c.66-.82-.64-1.62-1.8-2.56-1.16-.94-1.75-1.67-2.41-.85-.66.82-.26,2.25.91,3.19,1.16.94,2.64,1.04,3.31.22Z"/>
        <path class="cls-5" d="M7.62,33.06c.66-.82-.64-1.62-1.8-2.56-1.16-.94-1.75-1.67-2.41-.85-.66.82-.26,2.25.91,3.19,1.16.94,2.64,1.04,3.31.22Z"/>
        <g>
          <rect class="cls-3" x="10.47" y="54.3" width=".65" height="4.65" transform="translate(37.39 5.49) rotate(38.27)"/>
          <rect class="cls-3" x="5.62" y="50.47" width=".65" height="4.65" transform="translate(33.98 7.67) rotate(38.27)"/>
          <rect class="cls-3" x="41.67" y="4.54" width=".65" height="6.2" transform="translate(13.76 -24.37) rotate(38.27)"/>
        </g>
      </g>
      <g>
        <g>
          <path class="cls-2" d="M15.41,59.11c.11,1.05,1.6.69,3.08.53,1.49-.16,2.42-.06,2.3-1.11-.11-1.05-1.41-1.77-2.9-1.61-1.49.16-2.6,1.14-2.49,2.18Z"/>
          <path class="cls-4" d="M19.89,58.54c-.11.44-.34.77-.13.82.21.05.67-.22.78-.66.11-.44-.16-.9-.38-.95-.21-.05-.16.34-.27.79Z"/>
        </g>
        <g>
          <path class="cls-2" d="M1.92,47.93c-1.05.05-.93-1.47-1.01-2.96-.08-1.49-.32-2.39.73-2.45,1.05-.05,1.97,1.11,2.04,2.61.08,1.49-.72,2.75-1.77,2.8Z"/>
          <path class="cls-7" d="M3.69,45.13c-.01-.2-.04-.39-.07-.58,0,1.41-.76,2.57-1.77,2.62-.55.03-.78-.37-.88-.98.05,1,.2,1.77.96,1.74,1.05-.05,1.85-1.31,1.77-2.8Z"/>
        </g>
        <path class="cls-8" d="M54.03,17.73c-.68.04-1-1.03-1.41-2.28-.41-1.25-.75-2.2-.07-2.24.68-.04,1.57.94,1.98,2.19.41,1.25.19,2.29-.49,2.33Z"/>
        <path class="cls-8" d="M32.38,2.79c.25.64,1.35.49,2.66.35s2.32-.22,2.07-.86c-.25-.64-1.5-1.04-2.81-.9-1.31.14-2.16.77-1.92,1.41Z"/>
      </g>
      <g>
        <path class="cls-1" d="M9.07,34.29c-3.26,4.14-1.86,10.74,3.43,14.91h0c5.29,4.18,12.3,4.21,15.56.07"/>
        <path class="cls-6" d="M9.9,34.95c-3.04,3.86-2.07,9.75,2.44,13.31l.94.74,5.54-7.02-8.92-7.04Z"/>
        <polygon class="cls-1" points="40.68 37.61 38.98 36.27 28.8 49.17 31.26 49.55 40.68 37.61"/>
        <polygon class="cls-1" points="50.84 24.74 49.97 22.34 39.66 35.41 41.36 36.75 50.84 24.74"/>
        <polygon class="cls-1" points="18.89 20.83 17.19 19.49 7.91 31.26 8.71 33.73 18.89 20.83"/>
      </g>
    </g>
  </g>
</svg>