<?xml version="1.0" encoding="UTF-8"?>
<svg id="Layer_2" xmlns="http://www.w3.org/2000/svg" viewBox="0 0 390.92 60.14">
  <defs>
    <style>
      .cls-1, .cls-2 {
        fill: #1d1d1b;
      }

      .cls-1, .cls-3, .cls-4 {
        fill-rule: evenodd;
      }

      .cls-5 {
        fill: #a1cee7;
      }

      .cls-6 {
        fill: #439ccd;
      }

      .cls-7 {
        fill: #231f20;
      }

      .cls-8 {
        fill: #2669a1;
      }

      .cls-9 {
        fill: #9b9a9a;
      }

      .cls-3 {
        fill: #3f8b51;
      }

      .cls-4 {
        fill: #cf2e2d;
      }
    </style>
  </defs>
  <g id="Layer_1-2" data-name="Layer_1">
    <g>
      <rect class="cls-7" x="186.2" y="5.25" width=".89" height="49.65"/>
      <g id="Layer_2-2" data-name="Layer_2">
        <g id="Layer_1-2">
          <path class="cls-3" d="M387.02,13.32c7.76,13.01,3.58,29.89-9.34,37.71-2.18,1.32-4.54,2.33-7,2.99l.03.6,1.64,5.52-11.81-6.83,6.37-11.43,1.71,5.73.16.54c2.15-.66,4.21-1.58,6.13-2.74,11.22-6.78,15.86-20.39,11.83-32.38"/>
          <path class="cls-4" d="M362.83,55.02c-7.05-1.85-12.75-5.94-16.65-12.48-3.59-6.01-4.76-13.16-3.28-20l.4.32,6.15,1.86-7.41-11.34-10.7,5.85,5.38,1.63.39.08c-1.72,7.03-.6,14.45,3.12,20.66,4.7,7.98,13.15,13.01,22.41,13.34"/>
          <path class="cls-1" d="M339.87,14.2c9.88-11.17,26.9-12.32,38.21-2.59l-.38.29-4.8,4.68,13.72-.81-.12-12.45-3.98,3.88-.12.29c-10.9-10.36-28.13-9.93-38.49.97-1.65,1.74-3.07,3.68-4.21,5.79l-.13.23"/>
          <path class="cls-2" d="M215.72,32.1c.17.47.19,8.75,0,9.43v.06s5.1.03,5.1.03l.03-.98h-.07c-.79.13-1.58.15-2.37.08l-.9-.03c0-.1.02-3.49.02-3.59l2.76.02h0l.52.05.03-.93-.07.02c-.69.17-1.61.12-2.43.08l-.84-.03c0-.1.02-3.38.02-3.48l2.79.02c.14,0,.29.02.42.06l.07.03.03-.06v-.88h-5.12s0,.09,0,.09Z"/>
          <path class="cls-2" d="M228.05,34.9c-.44-.66-1.08-.99-2.04-.99-.79,0-1.54.33-2.06.92v-.72l-1.69-.02.03.1c.16.52.16,6.78,0,7.36l-.02.06,1.74.03v-.06c-.17-.71-.11-2.62-.07-4l.03-1.21c0-.87.75-1.26,1.49-1.26.81,0,1.18.37,1.18,1.21v4.8l-.06.49.05.04h1.72l-.03-.1c-.19-.65-.13-2.52-.08-3.88l.03-1.18c0-.87.55-1.38,1.5-1.38.86,0,1.19.34,1.19,1.21v4.8l-.06.5.08.03h1.65l-.02-.06c-.16-.71-.1-2.76-.06-4.26l.02-1.25c0-1.43-.76-2.15-2.25-2.15-.93-.01-1.58.27-2.27.98Z"/>
          <path class="cls-2" d="M234.19,32.82c0,.49.36.76,1.01.76.45,0,.97-.2.97-.78,0-.54-.51-.73-.98-.73s-.99.2-.99.74Z"/>
          <path class="cls-2" d="M234.29,34.14l.06.49v6.47l-.07.49.05.04h1.64l.02-.02s.03-.05-.03-.52v-6.47l.06-.46v-.06l-1.73-.03v.06Z"/>
          <path class="cls-2" d="M241.27,33.93c-.85.03-1.46.22-1.81.9v-.73l-1.64-.02v.06c.16.68.13,6.83-.02,7.39v.06s1.72.03,1.72.03v-.06c-.17-.7-.11-2.36-.08-3.57l.03-1.14c0-.59.14-1.03.44-1.31.31-.27.71-.4,1.11-.35h.29l.02-1.27h-.06Z"/>
          <path class="cls-2" d="M248.56,40.45c-.12.1-.27.17-.42.2-.16,0-.37-.06-.37-.56v-4.39c0-1.61-1.75-1.8-2.51-1.8-.91,0-1.81.21-2.62.63l-.04.02v.05l.26,1.07.09-.07c.64-.48,1.16-.77,1.91-.77.63,0,1.29.31,1.29.99s-.77.92-1.66,1.18c-1.25.35-2.66.76-2.66,2.55,0,1.31.85,2.19,2.12,2.19.95,0,1.61-.32,2.28-1.06.14.56.42,1.06,1.29,1.06.41-.02.81-.15,1.15-.38h.02s.01-.87.01-.87v-.15l-.16.1ZM246.14,39.07c0,.87-.69,1.58-1.56,1.59-.01,0-.03,0-.04,0-.69,0-1.15-.5-1.15-1.23,0-1.11.97-1.47,1.9-1.81l.84-.36v1.81Z"/>
          <path class="cls-2" d="M249.87,32.65h-.05l-.02.05v1.39l-1.09-.02-.03.82,1.14.02c0,.1-.02,5.31-.02,5.31,0,1.04.48,1.53,1.51,1.53.45,0,.89-.1,1.3-.29h.03s.01-.83.01-.83v-.13l-.11.06c-.19.13-.41.2-.64.22-.31,0-.47-.2-.47-.59v-5.28l1.19.02.02-.83-1.23-.02c0-.1.02-.96.02-.96l.03-.53v-.02l-.02-.02s-.04-.04-1.57.12Z"/>
          <path class="cls-2" d="M259.74,39.98l-.1.08c-.58.52-1.33.82-2.11.85-2.12,0-2.38-1.85-2.39-3.27l5.18.02v-.06c-.02-1.11-.38-3.71-3.29-3.71-2.2,0-3.56,1.52-3.56,3.98s1.41,3.87,3.86,3.87c.91.02,1.81-.2,2.62-.64.03-.04.04-.06-.18-1.02l-.04-.12ZM256.95,34.74c.97,0,1.52.73,1.66,2.15l-3.43-.02c.21-1.39.83-2.12,1.77-2.12h0Z"/>
          <path class="cls-2" d="M261.21,36.17c0,1.41,1.15,1.88,2.16,2.28.81.32,1.5.6,1.5,1.29,0,.79-.71,1.16-1.37,1.16-.83,0-1.44-.36-2.12-.9l-.06-.05-.05.06-.28,1.09.04.02c.75.42,1.59.65,2.45.66,1.44,0,2.97-.64,2.97-2.44,0-1.48-1.18-1.92-2.23-2.32-.78-.3-1.45-.55-1.45-1.17,0-.7.66-1.06,1.31-1.06.55,0,1.14.22,1.81.69l.06.04.04-.05.27-.98-.04-.02c-.71-.34-1.49-.52-2.27-.53-1.37,0-2.75.7-2.75,2.26Z"/>
          <path class="cls-2" d="M270.31,32.05v.95h.06c.65-.09,1.31-.11,1.96-.06l.7.02c0,.1-.02,8.14-.02,8.14l-.06.47v.06h1.9l-.02-.1-.06-.43v-8.16l2.01.02h0l.63.06.03-1.01-7.1-.02-.03.05Z"/>
          <path class="cls-2" d="M281.38,33.93c-.86.03-1.46.22-1.81.9v-.73l-1.64-.02.02.06c.14.68.11,6.83-.04,7.39l-.02.06,1.74.03-.02-.06c-.16-.7-.1-2.36-.06-3.57l.03-1.14c0-.59.15-1.03.44-1.31.31-.27.71-.4,1.11-.35h.27l.02-1.27h-.04Z"/>
          <path class="cls-2" d="M288.67,40.45c-.12.11-.27.18-.43.2-.16,0-.37-.06-.37-.56v-4.39c0-1.61-1.76-1.8-2.51-1.8-.91,0-1.81.21-2.62.63l-.04.02v.05l.26,1.07.09-.07c.64-.48,1.16-.77,1.91-.77.62,0,1.3.31,1.3.99s-.77.92-1.66,1.18c-1.25.35-2.66.76-2.66,2.56,0,1.31.85,2.19,2.12,2.19.95,0,1.61-.32,2.28-1.06.14.56.4,1.06,1.29,1.06.41-.02.81-.15,1.15-.38h.03s.01-.87.01-.87v-.15l-.15.1ZM286.25,39.06c0,.87-.69,1.58-1.56,1.59-.01,0-.03,0-.04,0-.69,0-1.15-.5-1.15-1.23,0-1.11.97-1.47,1.9-1.81l.84-.36v1.82Z"/>
          <path class="cls-2" d="M291.29,34.98v-.88l-1.64-.02v.06c.15.64.12,6.93-.02,7.39l-.02.07.06.03h1.68v-.06c-.17-.71-.12-2.4-.08-3.64l.03-1.15c0-1.06.63-1.69,1.68-1.69.87,0,1.37.46,1.37,1.25v4.76l-.06.49.05.04h1.68v-.06c-.17-.75-.11-2.72-.07-4.15l.03-1.29c0-1.39-.91-2.22-2.44-2.22-1.04,0-1.69.32-2.24,1.06Z"/>
          <path class="cls-2" d="M297.32,36.17c0,1.41,1.14,1.88,2.16,2.28.81.32,1.5.6,1.5,1.29,0,.79-.71,1.16-1.36,1.16-.83,0-1.44-.36-2.11-.9l-.07-.05-.05.06-.27,1.09.03.02c.75.42,1.59.65,2.45.66,1.43,0,2.97-.64,2.97-2.44,0-1.48-1.18-1.92-2.23-2.32-.77-.3-1.44-.55-1.44-1.17,0-.7.66-1.06,1.31-1.06.55,0,1.14.22,1.8.69l.06.04.04-.05.27-.98-.04-.02c-.71-.34-1.49-.52-2.28-.53-1.38,0-2.75.7-2.75,2.26Z"/>
          <path class="cls-2" d="M307.39,33.9c-.84,0-1.63.41-2.12,1.11v-.91l-1.64-.02v.06c.13.6.11,9.14,0,9.61l-.02.07,1.72.03v-.07c-.09-.35-.12-.71-.11-1.07l.05-1.08s.02-.51.03-.74c.47.55,1.16.87,1.89.87,2.8,0,3.02-3.07,3.02-4.01-.01-.89-.21-3.84-2.82-3.84ZM306.89,40.82c-1.46,0-1.62-1.66-1.62-2.91,0-1.37.2-2.94,1.71-2.94,1.04,0,1.54.94,1.54,2.87,0,1.36-.28,2.98-1.63,2.98h0Z"/>
          <path class="cls-2" d="M314.72,33.9c-2.13,0-3.52,1.5-3.52,3.83,0,1.94.93,4.03,3.53,4.03s3.53-2.01,3.53-3.91c0-2.43-1.36-3.94-3.55-3.94ZM314.73,40.99c-1.75,0-1.84-2.66-1.84-3.19s.09-3.12,1.84-3.12,1.84,2.42,1.84,3.15c0,.53-.09,3.17-1.84,3.17Z"/>
          <path class="cls-2" d="M323.05,33.93c-.86.03-1.46.22-1.81.9v-.73l-1.64-.02v.06c.15.68.12,6.83-.03,7.39l-.02.06,1.74.03-.02-.06c-.15-.7-.1-2.36-.06-3.57l.03-1.14c0-.59.15-1.03.44-1.31.31-.26.71-.39,1.11-.35h.29l.03-1.27h-.05Z"/>
          <path class="cls-2" d="M324.92,32.65h-.05l-.02.05v1.39l-1.09-.02-.03.82,1.15.02c0,.1-.02,5.31-.02,5.31,0,1.04.48,1.53,1.51,1.53.45,0,.89-.1,1.3-.29h.03s.02-.83.02-.83v-.13l-.11.06c-.19.13-.42.21-.65.22-.31,0-.47-.2-.47-.59v-5.28l1.18.02.03-.83-1.23-.02c0-.1.02-.96.02-.96l.03-.53v-.02l-.02-.02s-.04-.04-1.56.12Z"/>
          <path class="cls-2" d="M321.9,21.98c0,2.12-1.11,3.71-3.38,3.71h-5.28c-2.33,0-3.39-1.66-3.39-3.83s1.19-3.75,3.37-3.75c2.3,0,3.4,1.72,3.4,3.86v3.71c0,2.12-1.12,3.71-3.39,3.71h-2.63v-.6h2.63c1.55,0,1.88-1.92,1.88-3.11v-3.71c0-1.19-.31-3.22-1.88-3.22s-1.88,2.01-1.88,3.2c0,.84.22,2.2,1.32,2.2h6.4c1.1,0,1.31-1.36,1.31-2.2"/>
          <path class="cls-2" d="M245.9,21.98c0,2.12-1.11,3.71-3.38,3.71h-2.29c-2.33,0-3.39-1.66-3.39-3.83v-5.2c0-.15-.02-.31-.06-.46h1.61c-.04.15-.06.3-.06.46v5.28c0,.84.22,2.2,1.32,2.2h3.41c1.09,0,1.31-1.36,1.31-2.2"/>
          <path class="cls-2" d="M233.82,21.96v3.71c0,1.19-.33,3.11-1.88,3.11h-2.63v.6h2.63c2.27,0,3.39-1.59,3.39-3.71v-3.71c.02-.77-.15-1.53-.5-2.22h-1.43c.29.7.44,1.45.42,2.21Z"/>
          <path class="cls-2" d="M258.85,28.43h-1.2c-.11-.32-.19-.34-.19-.68,0-.9.54-.76,1.17-.76l-.09-.57c-1.02,0-1.57-.08-1.57,1.27-.02.15,0,.3.08.44l.4.31h-.39c-.34,0-.67-.07-.98-.19l-.06.14.36.46c.24.06.49.08.74.09h1.79l-.07-.5Z"/>
          <path class="cls-2" d="M230.01,16.67c0-.15-.02-.31-.06-.46h1.61c-.04.15-.06.3-.06.46v8.56c0,.15.02.31.06.45h-1.61c.04-.15.06-.3.06-.45v-8.56Z"/>
          <path class="cls-2" d="M306.83,16.67c0-.15-.02-.31-.06-.46h1.61c-.04.15-.06.3-.06.46v8.56c0,.15.02.31.06.45h-1.61c.04-.15.06-.3.06-.45v-8.56Z"/>
          <path class="cls-2" d="M292.5,18.74c0-.15-.02-.3-.06-.45h1.61c-.04.15-.06.3-.06.45v5.28c0,.15.02.31.06.45h-1.61c.04-.15.06-.3.06-.45v-5.28Z"/>
          <path class="cls-2" d="M284.09,16.85c0-.15-.02-.3-.06-.45h1.61c-.04.15-.06.3-.06.45v7.17c0,.15.02.31.06.45h-1.61c.04-.15.06-.3.06-.45v-7.17Z"/>
          <path class="cls-2" d="M255.14,16.85c0-.15-.02-.3-.06-.45h1.61c-.04.15-.06.3-.06.45v7.17c0,.15.02.31.06.45h-1.61c.04-.15.06-.3.06-.45v-7.17Z"/>
          <path class="cls-2" d="M263.18,16.21c-.04.15-.06.3-.06.46v8.56c0,.15.02.31.06.45h-1.61c.04-.15.05-.3.05-.45v-8.41c0-.15-.02-.31-.05-.46l1.61-.16Z"/>
          <path class="cls-2" d="M247.76,18c-2.19,0-3.37,1.66-3.37,3.75v.11c0,2.16,1.06,3.83,3.38,3.83s3.39-1.66,3.39-3.83-1.1-3.86-3.4-3.86ZM249.65,21.94c0,.57-.1,1.41-.52,1.86-.72.75-1.91.77-2.66.04-.01-.01-.02-.02-.03-.03h0c-.43-.46-.54-1.29-.54-1.87v-.11c0-1.18.33-3.2,1.88-3.2s1.88,2.03,1.88,3.22v.08Z"/>
          <path class="cls-2" d="M323.77,18c-2.19,0-3.37,1.66-3.37,3.75v.11c0,2.16,1.06,3.83,3.38,3.83s3.39-1.66,3.39-3.83-1.1-3.86-3.4-3.86ZM325.66,21.94c0,.57-.1,1.41-.52,1.86-.72.75-1.91.77-2.66.04-.01-.01-.02-.02-.03-.03h0c-.43-.46-.55-1.3-.55-1.87v-.11c0-1.18.33-3.2,1.88-3.2s1.88,2.03,1.88,3.22v.08Z"/>
          <path class="cls-2" d="M289.06,16.7c0-.15.02-.31.06-.46l-1.61.16c.04.15.06.3.06.45v5.11c0,.84-.22,2.2-1.32,2.2h-5.34l.63,1.55h4.15c2.33,0,3.38-1.67,3.38-3.83v-5.19Z"/>
          <path class="cls-2" d="M260.1,16.7c0-.15.02-.31.06-.46l-1.61.16c.04.15.06.3.06.45v5.11c0,.84-.22,2.2-1.32,2.2h-5.34l.62,1.55h4.15c2.33,0,3.39-1.67,3.39-3.83v-5.19Z"/>
          <path class="cls-2" d="M221.77,18.94c0,.5-.45.7-.87.7-.47,0-.92-.14-.92-.69,0-.5.48-.67.9-.67s.89.16.89.65Z"/>
          <path class="cls-2" d="M224.31,18.94c0,.5-.45.7-.87.7-.47,0-.92-.14-.92-.69,0-.5.48-.67.9-.67s.89.16.89.65Z"/>
          <path class="cls-2" d="M272.87,18.94c0,.5-.45.7-.87.7-.46,0-.92-.14-.92-.69,0-.5.48-.67.9-.67s.89.16.89.65Z"/>
          <path class="cls-2" d="M275.42,18.94c0,.5-.45.7-.88.7-.47,0-.91-.14-.91-.69,0-.5.48-.67.9-.67s.89.16.89.65Z"/>
          <path class="cls-2" d="M278.09,21.85v.09c0,.84-.22,2.2-1.32,2.2h-6.1c-.93,0-3.04-.09-3.04-1.41v-2.97l-.72.02v2.94c0,2.44,2.14,2.97,4.16,2.97h5.15c2.33,0,3.39-1.66,3.39-3.83v-1.63c0-.15.02-.3.06-.45h-1.61c.04.15.05.3.05.45v1.63Z"/>
          <path class="cls-2" d="M226.98,21.85v.09c0,.84-.22,2.2-1.32,2.2h-6.1c-.93,0-3.05-.09-3.05-1.41v-2.97l-.72.02v2.94c0,2.45,2.14,2.97,4.16,2.97h5.15c2.33,0,3.39-1.66,3.39-3.83v-1.63c0-.15.02-.3.06-.45h-1.61c.04.15.06.3.06.45v1.63Z"/>
          <path class="cls-2" d="M293.24,24.14v-2.12c0-2.16.92-3.83,3.26-3.83l5.44.08c2.19,0,3.37,1.49,3.37,3.58v.16c0,2.03-.98,3.66-3.18,3.66h-11.2c-2.27,0-2.99-1.63-2.99-3.75h1.11c0,.84.22,2.2,1.32,2.2h12.11c1.1,0,1.32-1.36,1.32-2.2,0-1.18-.33-3.02-1.88-3.02h-5.32c-1.69,0-2.62.98-2.62,2.67v2.42"/>
        </g>
      </g>
      <g>
        <g>
          <path class="cls-9" d="M59.52,16.48c-1.85,0-3.33-1.51-3.41-3.07-.03-.52,0-1.52.81-2.58.87.79,1.47,1.31,1.47,1.31,0,0-.44.59-.3,1.28.1.53.65,1.05,1.35,1.05h6.08c.55,0,.87-.32.87-.91v-3.83h2.07v3.71c0,.87-.21,3.06-2.77,3.06h-6.17ZM61.83,9.9v1.75h-2.08v-1.75h2.08ZM64.84,9.9v1.75h-2.08v-1.75h2.08Z"/>
          <path class="cls-9" d="M69.69,6.89h2.1l1.86,7.57c.32-.08.52-.4.52-.82v-6.96h2.05v6.38c.03.85.56,1.4,1.46,1.4h1.02v2.02h-.9c-1.07,0-1.72-.47-2.13-.99-.4.55-1.06.99-2.2.99h-3.74l.81-2.02h1.03l-1.87-7.57Z"/>
          <path class="cls-9" d="M82.38,11.37c1.17-1.4,3-1.84,3.95-1.84,1.87,0,4.15,1.19,4.15,3.56,0,2.07-1.64,3.39-3.54,3.39h-8.33v-2.02h1.9v-4.39h2.01l-.14,1.31ZM86.79,14.46c.84,0,1.58-.59,1.58-1.34,0-1.26-1.28-1.63-1.91-1.67-2.33-.17-3.75,1.76-4.03,3.01h4.36Z"/>
          <path class="cls-9" d="M94.71,16.48h-2.04V6.63h2.04v9.85Z"/>
          <path class="cls-9" d="M98.22,17.1c.35.11.84.21,1.32.21.32,0,1.45.02,1.81-.84h-1.14c-2.04,0-3.59-1.52-3.59-3.47s1.4-3.3,3.59-3.3h3.3v4.74h2.22v2.02h-2.27c-.27,2.05-2.19,2.64-3.65,2.6-.36-.01-.79-.09-1.06-.17l-.53-1.81ZM101.44,11.54h-1.29c-.9,0-1.41.77-1.41,1.47,0,.76.52,1.44,1.41,1.44h1.29v-2.92Z"/>
          <path class="cls-9" d="M105.65,16.48v-2.02h1.72c.55,0,.87-.35.87-.94v-.7c0-1.75,1.2-3.62,3.54-3.62s3.6,1.87,3.6,3.62-1.26,3.83-3.6,3.83c-1.17,0-1.96-.49-2.51-.97-.27.35-.9.81-1.81.81h-1.81ZM111.78,10.85c-1.06,0-1.44.99-1.44,1.96,0,1.08.38,2.08,1.44,2.08s1.49-.87,1.49-2.08c0-1.08-.38-1.96-1.49-1.96Z"/>
          <path class="cls-9" d="M125.48,11.67s0-.71-.88-.71c-.35,0-.84.18-.91.85h-1.93c.08-1.96,1.93-2.28,2.81-2.28,1.95,0,3.01.82,3.01,2.64v2.28h2.13v2.02h-8.27v-2.02h4.04v-2.78Z"/>
          <path class="cls-9" d="M137.79,16.48c.26.3.32.56.32.82,0,1.14-1.19,1.94-2.72,1.94-2.15,0-3.04-1.5-3.3-2.77h-2.66v-2.02h2.66v-3.44c0-1.46,1.05-2.49,2.55-2.49h-.03c1.5,0,2.6,1.11,2.6,2.49v2.04c0,.87-.11,1.16-.35,1.4h3.1v2.02h-2.18ZM135.48,17.71c.37,0,.71-.5.71-.79,0-.35-.43-.52-.9-.55h-1.31c.03.15.33,1.34,1.49,1.34ZM134.29,14.61c.41,0,.94-.56.94-1.08v-2.42c0-.26-.23-.56-.61-.56-.35,0-.56.3-.56.56v3.5h.23Z"/>
          <path class="cls-9" d="M144.55,9.23c1.25.02,3.15.4,3.68,3.39-.35.62-.85,1.17-1.46,1.84h2.61v2.02h-3.13c-.62,0-1.17-.17-1.7-.41-.55.24-1.11.41-1.73.41h-3.13v-2.02h2.6c-.63-.67-1.11-1.22-1.45-1.85.51-2.99,2.42-3.36,3.68-3.37h.03ZM143.04,12.3c.2.4.7,1.05,1.5,1.61.81-.58,1.31-1.22,1.51-1.61-.35-1.05-1.26-1.23-1.51-1.23s-1.17.15-1.5,1.23Z"/>
          <path class="cls-9" d="M149.33,16.48v-2.02h1.72c.55,0,.87-.35.87-.94v-.7c0-1.75,1.2-3.62,3.54-3.62s3.6,1.87,3.6,3.62-1.26,3.83-3.6,3.83c-1.17,0-1.96-.49-2.51-.97-.27.35-.9.81-1.81.81h-1.81ZM155.45,10.85c-1.06,0-1.45.99-1.45,1.96,0,1.08.38,2.08,1.45,2.08s1.49-.87,1.49-2.08c0-1.08-.38-1.96-1.49-1.96Z"/>
          <path class="cls-9" d="M62.58,30c-1.34,0-1.96-.64-2.25-1.33-.29.33-.89.79-1.82.73-1.32-.07-2.38-1.21-2.39-2.4-.04-2.14,1.64-2.9,3.96-2.92v-.46l1.88-.45v4.21c0,.53.3.81.79.81h1.18v1.81h-1.35ZM58.49,21.05v1.57h-1.89v-1.57h1.89ZM60.07,25.21c-.96,0-2.13.39-2.17,1.66-.01.46.25,1.23,1.04,1.25.61.01,1.12-.42,1.12-1.29v-1.61ZM61.24,21.05v1.57h-1.89v-1.57h1.89Z"/>
          <path class="cls-9" d="M68.23,26.71c-.43.5-1,.72-1.72.72-.96,0-2.08-.67-2.04-1.86.08-2.43,2.61-2.23,5.66-2.23v3.94c-.01.77-.19,2.73-2.53,2.73h-3.72v-1.81h3.57c.49,0,.79-.28.79-.81v-.66h0ZM67.36,20.57v1.57h-1.89v-1.57h1.89ZM66.26,25.33c0,.5.39.87.92.87,1.03,0,1.07-1.11,1.07-1.83-.65-.01-1.99-.03-1.99.96ZM70.11,20.57v1.57h-1.89v-1.57h1.89Z"/>
          <path class="cls-9" d="M74.63,30c-2.33,0-2.5-1.95-2.5-2.73v-6.07h1.86v6.17c0,.53.31.81.79.81h1.2v1.81h-1.35Z"/>
          <path class="cls-9" d="M75.58,32.34v-1.56h1.89v1.56h-1.89ZM77.75,30c.86,0,1.59-.38,1.92-.95.36.49.97.95,1.99.95h.82v-1.81h-.93c-.83,0-1.33-.52-1.33-1.32v-2.5h-1.88v2.73c0,.77-.39,1.08-1.11,1.08h-1.38v1.81h1.9ZM78.34,32.34v-1.56h1.89v1.56h-1.89Z"/>
          <path class="cls-9" d="M82.36,30v-1.81h1.64c.5,0,.79-.28.79-.81v-3h1.89v3.19c.03.9.53,1.41,1.13,1.41.92,0,1.1-.68,1.11-1.33v-3.27h1.88v3.19c.03.9.53,1.41,1.13,1.41.92,0,1.1-.68,1.11-1.33v-3.68h1.88v2.97c.03.76.51,1.25,1.34,1.25h.92v1.81h-.81c-.86,0-1.43-.33-1.81-.72-.33.6-.9.99-1.82.99s-1.54-.37-2.12-1.15c-.27.66-1.29,1.15-1.99,1.15-.95,0-1.75-.22-2.32-1.34-.33.58-.96,1.07-2.13,1.07h-1.81Z"/>
          <path class="cls-9" d="M97.05,30v-1.81h1.38c.72,0,1.11-.31,1.11-1.08v-5.9h1.88v5.67c0,.8.5,1.32,1.33,1.32h.93v1.81h-.82c-1.02,0-1.63-.46-1.99-.95-.33.57-1.06.95-1.92.95h-1.9Z"/>
          <path class="cls-9" d="M103.61,30v-1.81h1.64c.5,0,.81-.28.81-.81v-6.17h1.88v6.07c0,.77-.18,2.73-2.52,2.73h-1.81Z"/>
          <path class="cls-9" d="M115.47,30c-1.7,0-3.04-1.34-3.11-2.74-.03-.46,0-1.36.74-2.31.79.71,1.35,1.17,1.35,1.17,0,0-.4.53-.28,1.14.1.48.6.94,1.24.94h5.56c.5,0,.79-.28.79-.81v-3.42h1.89v3.31c0,.77-.2,2.73-2.53,2.73h-5.64ZM117.58,24.13v1.56h-1.91v-1.56h1.91ZM120.33,24.13v1.56h-1.9v-1.56h1.9Z"/>
          <path class="cls-9" d="M127.5,30h-1.86v-8.79h1.86v8.79Z"/>
          <path class="cls-9" d="M131.45,23.95h1.89v5.17c0,2.22-1.68,3.34-3.36,3.2-.86-.07-1.54-.38-1.54-.38l-.3-1.51s.79.31,1.6.31c.67,0,1.71-.41,1.72-1.7v-5.1Z"/>
          <path class="cls-9" d="M137.85,30c-2.34,0-2.5-1.95-2.5-2.73v-6.07h1.87v6.17c0,.53.31.81.79.81h1.2v1.81h-1.35Z"/>
          <path class="cls-9" d="M139.12,30v-1.81h1.57c.5,0,.79-.31.79-.84v-.62c0-1.56,1.1-3.23,3.24-3.23s3.29,1.67,3.29,3.23-1.15,3.42-3.29,3.42c-1.07,0-1.79-.43-2.29-.87-.25.31-.82.72-1.66.72h-1.65ZM144.72,24.98c-.97,0-1.32.88-1.32,1.75,0,.96.35,1.86,1.32,1.86s1.36-.77,1.36-1.86c0-.96-.35-1.75-1.36-1.75Z"/>
          <path class="cls-9" d="M149.14,21.44h1.92l1.7,6.76c.29-.07.47-.35.47-.73v-6.21h1.88v6.03c0,.77-.18,2.73-2.52,2.73h-3.42l.74-1.81h.94l-1.71-6.76ZM151.33,32.66c.25,0,.63-.11.78-.42l-.46-.41c-.06.16-.28.15-.29.15h-.61v-.3c0-.2.06-.37.25-.37.11,0,.24.05.25.24h.7c-.06-.64-.36-.91-.95-.91-.65,0-.92.49-.92,1.03v.3h-.37l-.21.68h1.83Z"/>
          <path class="cls-9" d="M158.97,30h-1.86v-8.79h1.86v8.79Z"/>
        </g>
        <g>
          <path class="cls-9" d="M56,42.96v-6.26h4.28v1.37h-2.73v1.05h2.33v1.37h-2.33v1.1h2.73v1.37h-4.28Z"/>
          <path class="cls-9" d="M66.26,42.96v-3l-.89,1.55h-.99l-.89-1.55v3h-1.55v-6.26h1.52l1.41,2.76,1.41-2.76h1.52v6.26h-1.54Z"/>
          <path class="cls-9" d="M69.63,42.96v-6.26h1.55v6.26h-1.55Z"/>
          <path class="cls-9" d="M76.19,42.96l-1.11-2.33h-.52v2.33h-1.55v-6.26h2.49c1.4,0,2.15.99,2.15,2.01,0,.85-.53,1.39-1.03,1.64l1.36,2.61h-1.79ZM75.43,38.07h-.88v1.27h.88c.42,0,.67-.31.67-.63s-.25-.63-.67-.63Z"/>
          <path class="cls-9" d="M82.85,42.96l-.29-.93h-1.94l-.31.93h-1.62l2.29-6.26h1.19l2.29,6.26h-1.62ZM81.62,39.07l-.56,1.67h1.09l-.53-1.67Z"/>
          <path class="cls-9" d="M87.85,38.06v4.89h-1.54v-4.89h-1.55v-1.37h4.64v1.37h-1.55Z"/>
          <path class="cls-9" d="M90.86,42.96v-6.26h4.28v1.37h-2.73v1.05h2.33v1.37h-2.33v1.1h2.73v1.37h-4.28Z"/>
          <path class="cls-9" d="M98.58,43.01c-.96,0-1.75-.18-2.39-.83l.99-.99c.33.33.9.44,1.41.44.61,0,.9-.2.9-.56,0-.15-.04-.27-.12-.37-.08-.08-.21-.14-.42-.17l-.76-.11c-.56-.08-.98-.26-1.26-.55-.29-.3-.43-.72-.43-1.26,0-1.14.87-1.98,2.3-1.98.9,0,1.58.21,2.12.75l-.97.97c-.4-.4-.92-.37-1.19-.37-.54,0-.76.31-.76.58,0,.08.03.19.12.29.08.08.21.16.43.19l.76.1c.56.08.97.26,1.23.52.34.33.47.79.47,1.37,0,1.27-1.1,1.97-2.43,1.97Z"/>
          <path class="cls-9" d="M107.83,38.06v4.89h-1.55v-4.89h-1.55v-1.37h4.64v1.37h-1.55Z"/>
          <path class="cls-9" d="M114.01,42.96l-1.11-2.33h-.52v2.33h-1.55v-6.26h2.49c1.4,0,2.15.99,2.15,2.01,0,.85-.53,1.39-1.03,1.64l1.36,2.61h-1.79ZM113.25,38.07h-.87v1.27h.87c.42,0,.67-.31.67-.63s-.25-.63-.67-.63Z"/>
          <path class="cls-9" d="M120.67,42.96l-.29-.93h-1.94l-.31.93h-1.62l2.29-6.26h1.2l2.29,6.26h-1.62ZM119.44,39.07l-.57,1.67h1.1l-.53-1.67Z"/>
          <path class="cls-9" d="M127.04,42.96l-2.01-3.15v3.15h-1.55v-6.26h1.35l2.02,3.15v-3.15h1.55v6.26h-1.35Z"/>
          <path class="cls-9" d="M132.02,43.01c-.96,0-1.75-.18-2.38-.83l.99-.99c.33.33.9.44,1.4.44.61,0,.9-.2.9-.56,0-.15-.04-.27-.12-.37-.08-.08-.21-.14-.41-.17l-.76-.11c-.56-.08-.98-.26-1.26-.55-.29-.3-.44-.72-.44-1.26,0-1.14.87-1.98,2.3-1.98.9,0,1.58.21,2.12.75l-.97.97c-.4-.4-.92-.37-1.19-.37-.54,0-.76.31-.76.58,0,.08.03.19.12.29.08.08.21.16.43.19l.76.1c.57.08.97.26,1.24.52.34.33.47.79.47,1.37,0,1.27-1.11,1.97-2.43,1.97Z"/>
          <path class="cls-9" d="M138.52,40.72h-.95v2.24h-1.55v-6.26h2.49c1.39,0,2.15.99,2.15,2.01s-.75,2.01-2.15,2.01ZM138.44,38.07h-.87v1.27h.87c.42,0,.67-.31.67-.63s-.25-.63-.67-.63Z"/>
          <path class="cls-9" d="M146.07,42.3c-.46.46-.99.71-1.76.71s-1.3-.25-1.76-.71c-.66-.66-.64-1.54-.64-2.48s-.03-1.82.64-2.48c.46-.46.99-.71,1.76-.71s1.3.25,1.76.71c.66.66.63,1.54.63,2.48s.03,1.82-.63,2.48ZM144.93,38.28c-.12-.15-.34-.27-.62-.27s-.5.12-.62.27c-.14.18-.23.4-.23,1.54s.09,1.35.23,1.53c.11.15.33.28.62.28s.5-.13.62-.28c.14-.19.23-.39.23-1.53s-.09-1.36-.23-1.54Z"/>
          <path class="cls-9" d="M151.52,42.96l-1.11-2.33h-.52v2.33h-1.55v-6.26h2.49c1.4,0,2.15.99,2.15,2.01,0,.85-.53,1.39-1.03,1.64l1.36,2.61h-1.8ZM150.76,38.07h-.88v1.27h.88c.42,0,.67-.31.67-.63s-.25-.63-.67-.63Z"/>
          <path class="cls-9" d="M157.38,38.06v4.89h-1.55v-4.89h-1.55v-1.37h4.64v1.37h-1.55Z"/>
          <path class="cls-9" d="M60.95,52.73c-.5.5-1.22.71-1.98.71h-2.72v-7.25h2.72c.76,0,1.47.21,1.98.71.85.85.76,1.77.76,2.91s.09,2.07-.76,2.91ZM59.71,48.19c-.16-.24-.41-.41-.86-.41h-.79v4.07h.79c.45,0,.7-.16.86-.41.15-.2.2-.4.2-1.63s-.05-1.43-.2-1.63Z"/>
          <path class="cls-9" d="M67.32,53.45l-1.3-2.7h-.61v2.7h-1.8v-7.25h2.91c1.63,0,2.5,1.14,2.5,2.33,0,.99-.62,1.61-1.19,1.89l1.59,3.03h-2.09ZM66.43,47.79h-1.02v1.47h1.02c.49,0,.78-.36.78-.73s-.29-.73-.78-.73Z"/>
          <path class="cls-9" d="M70.98,53.45v-7.25h1.8v7.25h-1.8Z"/>
          <path class="cls-9" d="M77.94,53.45h-1.34l-2.42-7.25h1.87l1.24,4.05,1.21-4.05h1.88l-2.43,7.25Z"/>
          <path class="cls-9" d="M81.77,53.45v-7.25h1.8v7.25h-1.8Z"/>
          <path class="cls-9" d="M89.86,53.45l-2.35-3.65v3.65h-1.8v-7.25h1.58l2.35,3.65v-3.65h1.8v7.25h-1.58Z"/>
          <path class="cls-9" d="M98.25,52.69c-.63.64-1.33.82-2.13.82-.86,0-1.51-.28-2.04-.82-.77-.76-.74-1.78-.74-2.87s-.03-2.11.74-2.87c.54-.53,1.15-.81,2.04-.81,1.89,0,2.69,1.21,2.86,2.4h-1.81c-.15-.55-.43-.81-1.05-.81-.33,0-.58.14-.71.32-.17.21-.27.46-.27,1.78s.1,1.58.27,1.79c.13.17.38.31.71.31.38,0,.64-.11.8-.29.21-.2.28-.5.28-.77v-.1h-1.08v-1.49h2.88v1.01c0,1.17-.19,1.85-.74,2.41Z"/>
          <path class="cls-9" d="M103.83,53.45v-7.25h1.8v7.25h-1.8Z"/>
          <path class="cls-9" d="M111.92,53.45l-2.35-3.65v3.65h-1.8v-7.25h1.58l2.35,3.65v-3.65h1.8v7.25h-1.58Z"/>
          <path class="cls-9" d="M117.73,53.51c-1.12,0-2.04-.2-2.78-.96l1.15-1.14c.38.38,1.05.51,1.64.51.71,0,1.05-.24,1.05-.65,0-.17-.04-.32-.14-.43-.09-.09-.25-.16-.48-.19l-.89-.12c-.65-.09-1.15-.31-1.47-.64-.34-.35-.5-.84-.5-1.46,0-1.32,1.01-2.29,2.68-2.29,1.05,0,1.84.25,2.47.87l-1.13,1.12c-.46-.46-1.07-.43-1.39-.43-.63,0-.88.36-.88.67,0,.09.03.22.14.34.09.09.25.18.5.21l.89.12c.66.09,1.13.29,1.44.6.39.38.55.92.55,1.59,0,1.48-1.29,2.28-2.83,2.28Z"/>
          <path class="cls-9" d="M125.57,47.78v5.66h-1.8v-5.66h-1.81v-1.59h5.41v1.59h-1.8Z"/>
          <path class="cls-9" d="M129.08,53.45v-7.25h1.81v7.25h-1.81Z"/>
          <path class="cls-9" d="M136.19,47.78v5.66h-1.8v-5.66h-1.8v-1.59h5.41v1.59h-1.8Z"/>
          <path class="cls-9" d="M142.35,53.51c-1.53,0-2.77-1.02-2.77-2.61v-4.71h1.8v4.67c0,.67.37,1.06.97,1.06s.99-.39.99-1.06v-4.67h1.81v4.71c0,1.59-1.27,2.61-2.79,2.61Z"/>
          <path class="cls-9" d="M150.33,47.78v5.66h-1.8v-5.66h-1.8v-1.59h5.41v1.59h-1.8Z"/>
          <path class="cls-9" d="M153.84,53.45v-7.25h4.99v1.59h-3.19v1.21h2.72v1.59h-2.72v1.27h3.19v1.59h-4.99Z"/>
        </g>
        <g>
          <path class="cls-5" d="M12.66,9.25l-.72.4c-.64.36-1.26.75-1.86,1.17l2.58,4.57v-6.15Z"/>
          <path class="cls-8" d="M5.47,27.44c.69-4.67,3.22-8.96,7-11.83l.19-.14v-.07l-2.58-4.57C3.82,15.18,0,22.38,0,30.09c0,2.91.54,5.75,1.56,8.39l3.92-11.03h-.01Z"/>
          <path class="cls-5" d="M46.86,28.8l-.04-.52c-.08-1.07-.24-2.14-.47-3.2l-.08-.38h-.04l-4.64,4.09h5.27Z"/>
          <path class="cls-8" d="M40.97,25.31c.27,1,.46,2.02.55,3.05l.04.44h.03l4.64-4.09h-5.42l.17.61Z"/>
          <polygon points="5.49 27.44 5.47 27.44 5.48 27.45 5.49 27.44"/>
          <polygon class="cls-8" points="12.26 32.24 12.26 27.44 5.49 27.44 5.48 27.45 12.26 32.24"/>
          <path class="cls-6" d="M25.11,6.7c-.56-.04-1.12-.06-1.66-.06-3.18,0-6.26.62-9.17,1.86l-.22.09,11.49,3.4v-5.26l-.45-.03Z"/>
          <path class="cls-8" d="M46.89,30.4h-5.28l-.02.46c-.15,3.48-1.26,6.77-3.23,9.59l8.53-10.01v-.05Z"/>
          <path class="cls-5" d="M38.36,40.45c-.24.34-.49.68-.76,1.01l-.63.78h6.52l.14-.24c1.99-3.36,3.11-7.2,3.24-11.12l.02-.45-8.53,10.01Z"/>
          <path class="cls-6" d="M14.7,46.01c-.77-.42-1.52-.91-2.22-1.45-3.92-2.97-6.47-7.42-7.06-12.27h6.84v-.06l-6.77-4.79-3.92,11.03c1.93,5.02,5.56,9.32,10.39,12.04.25.14.51.28.76.41l2.24-4.56v-.22l-.25-.14Z"/>
          <path class="cls-8" d="M14.28,51.68l.67.28v-5.58l-2.24,4.56c.52.27,1.04.52,1.57.74Z"/>
          <path class="cls-8" d="M37.55,48.81c1.58-1.2,3.02-2.59,4.28-4.18l.62-.78h-7.15l2.25,4.96Z"/>
          <path class="cls-6" d="M31.9,14.01c3.64,1.92,6.53,5.02,8.19,8.8l.13.29h5.62l-.22-.64c-2.79-8.1-9.75-14.03-18.18-15.48l-.56-.1,5.02,7.16v-.03Z"/>
          <path class="cls-6" d="M35.3,43.85l-.13.11c-1.01.85-2.1,1.59-3.26,2.2v-.04l-5.03,7.1v.06l.56-.1c3.7-.64,7.16-2.15,10.12-4.38l-2.25-4.96h0Z"/>
        </g>
        <g>
          <path class="cls-8" d="M17.27,35.77v16.95l.36.09c1.35.34,2.75.57,4.15.67l.51.04v-14.56c-2.03-.44-3.8-1.6-5.03-3.19Z"/>
          <path class="cls-8" d="M22.3,21.95v-9.99c.92-.06,1.81-.05,2.73.03l.52.04v-.04l-11.49-3.4-.08.03v5.93l.71-.39c.83-.45,1.69-.84,2.57-1.16v12.13c1.23-1.59,2.99-2.74,5.03-3.19Z"/>
          <g>
            <path class="cls-8" d="M31.9,26.49v-12.44l-5.02-7.16h0s0,15.29,0,15.29c2.19.72,3.99,2.28,5.03,4.31Z"/>
            <path class="cls-8" d="M26.88,38.72v14.52l5.03-7.1v-11.72c-1.04,2.02-2.84,3.59-5.03,4.31Z"/>
          </g>
        </g>
      </g>
    </g>
  </g>
</svg>