<?xml version="1.0" encoding="UTF-8"?>
<svg id="Layer_2" xmlns="http://www.w3.org/2000/svg" viewBox="0 0 141.53 141.36">
  <defs>
    <style>
      .cls-1 {
        fill: #90cae4;
      }

      .cls-2 {
        opacity: .22;
      }
    </style>
  </defs>
  <g id="Layer_1-2" data-name="Layer_1">
    <g class="cls-2">
      <g>
        <path class="cls-1" d="M40.05,89.18l8.79-3.42-5.32-13.88,30.91,13.78-8.14,18.01c-.77,1.75-2.54,2.61-4.5,1.73l-21.89-9.62c-1.37-.6-2.21-1.87-2.18-3.31.03-1.45.94-2.74,2.32-3.27Z"/>
        <path class="cls-1" d="M100.94,101.86c-1.66.64-3.52-.19-4.15-1.85l-2.02-5.28,11.45,5.11-5.28,2.02Z"/>
        <path class="cls-1" d="M77.79,50.44c-1.64-4.28-6.45-6.42-10.73-4.78l-7.57,2.9c-1.71.66-3.08,1.83-4,3.27l-13.7-6.11c2.52-4.93,6.78-8.99,12.35-11.12l7.57-2.9c12-4.6,25.45,1.4,30.05,13.4l10.59,27.63-19.32-8.61-5.24-13.66Z"/>
        <path class="cls-1" d="M4.72,96.13c13.71,35.77,54.07,55,92.68,40.2,34.22-13.12,52.93-55.49,40.04-89.05C123.24,10.33,83.68-9.85,45.42,4.81,11.44,17.83-10,57.73,4.72,96.13ZM125.16,86.9l-15.24-6.79-5.72-2.55-19.32-8.61-30.66-13.67-13.87-6.18-10.43-4.65-7.55-3.37c6.52-10.55,16.33-18.94,27.98-23.4,30.81-11.81,62.66,4.44,74.09,34.2,4.3,11.19,4.22,23.59.72,35.03ZM17.58,91.2c-4.78-12.47-4.82-25.14-1.37-36.5l20.79,9.27,4.22,1.88,19.32,8.61,8.26,3.68,7.5,3.34,16.17,7.21,18.32,8.17,1.05.47,7.22,3.22c-6.21,10.25-15.45,18.65-26.85,23.02-31.09,11.92-63.58-3.56-74.62-32.37Z"/>
      </g>
    </g>
  </g>
</svg>