<?xml version="1.0" encoding="UTF-8"?>
<svg id="Layer_2" xmlns="http://www.w3.org/2000/svg" viewBox="0 0 153.13 152.96">
  <defs>
    <style>
      .cls-1 {
        fill: #90cae4;
      }

      .cls-2 {
        opacity: .22;
      }
    </style>
  </defs>
  <g id="Layer_1-2" data-name="Layer_1">
    <g class="cls-2">
      <path class="cls-1" d="M119.31,135.14c1.45-3.48,27.35-66.73,28.87-70.51.41-1.01.89-2.05,1.36-3.12,1.93-4.27,4.12-9.1,3.48-14.01-.11-.88-.33-1.76-.67-2.59-2.08-4.92-7.54-7.24-11.95-9.09l-.98-.43c-7.31-3.12-71.41-29.37-78.83-32.28l-.98-.37c-5.01-2-11.87-4.73-17.21-.54-3.9,3.05-5.73,8.03-7.35,12.43-.4,1.1-.81,2.16-1.22,3.18L4.95,88.32c-.41,1.01-.87,2.06-1.36,3.12-1.93,4.25-4.12,9.1-3.48,14.01.11.89.35,1.77.7,2.6,2.06,4.91,7.54,7.24,11.93,9.09l.98.43c7.35,3.14,71.46,29.39,78.83,32.28l1,.38c5.01,2,11.87,4.73,17.19.53,3.9-3.05,5.73-8.03,7.35-12.43.42-1.09.81-2.16,1.22-3.18ZM69.61,94.87l-13.29-5.44-8.16,19.92-21.56-8.83L57.81,24.3l34.85,14.27c20.8,8.52,29.45,24.64,22.32,42.06-7.09,17.31-24.57,22.76-45.37,14.24ZM84.41,55.01l-11.98-4.91-9.14,22.33,11.98,4.91c8.93,3.66,15.1,1.35,17.95-5.62,2.9-7.08.12-13.05-8.81-16.71Z"/>
    </g>
  </g>
</svg>