<?xml version="1.0" encoding="UTF-8"?>
<svg id="Layer_2" xmlns="http://www.w3.org/2000/svg" viewBox="0 0 113.52 113.52">
  <defs>
    <style>
      .cls-1 {
        fill: #90cae4;
      }

      .cls-2 {
        opacity: .22;
      }
    </style>
  </defs>
  <g id="Layer_1-2" data-name="Layer_1">
    <g class="cls-2">
      <path class="cls-1" d="M0,56.75c0,31.83,25.44,56.77,57.9,56.77,14.01,0,28.18-6.13,38.87-16.79,10.66-10.65,16.76-24.67,16.75-38.5C113.51,25.57,88.57,0,56.75,0c-14.35,0-28.68,5.83-39.32,15.99C6.19,26.73,0,41.2,0,56.75ZM82.74,44.76c-.97-2.13-2.19-4.12-3.63-5.95l-2.72,3.63c-.36.49-.87.8-1.44.91-.61.11-1.24-.03-1.73-.39-.51-.36-.84-.91-.94-1.57l-2.2-15.23c-.19-1.2.64-2.36,1.94-2.6l15.24-2.2c.93-.13,1.83.3,2.3,1.09.47.8.43,1.8-.13,2.56l-3.09,4.12c.34.37.69.74,1.01,1.13,2.49,2.89,4.55,6.13,6.15,9.63,4.33,9.53,4.87,20.55,1.49,30.21-1.31,3.76-3.14,7.29-5.47,10.49-.14.2-.6.83-1.43.99-.11.01-.23.03-.37.03-.41,0-.96-.13-1.53-.6l-5.56-4.64c-1.09-.9-1.23-1.93-.41-3.09,1.53-2.17,2.74-4.54,3.63-7.06,2.39-6.83,1.99-14.65-1.1-21.45ZM19.65,71.34c.24-.57.71-.99,1.4-1.23l6.8-2.5c.23-.09.43-.14.59-.17.57-.11,1.63-.09,2.3,1.36,1.11,2.4,2.56,4.64,4.3,6.67,4.72,5.49,11.69,9.05,19.12,9.78,2.33.21,4.66.16,6.96-.19l-1.79-4.16c-.29-.66-.26-1.4.07-2.03.33-.6.9-1.01,1.57-1.14.43-.09.89-.04,1.32.13l14.31,5.72c.54.21,1,.66,1.24,1.23.24.57.26,1.19.04,1.76l-5.72,14.29c-.3.74-.93,1.26-1.7,1.4-1.04.2-2.12-.36-2.54-1.34l-2.03-4.73c-.49.11-.99.21-1.47.3-3.76.71-7.59.89-11.4.51-10.43-1.01-20.24-6.05-26.93-13.82-2.6-3.02-4.73-6.37-6.35-9.98-.11-.26-.46-1.01-.1-1.86ZM10.86,48.05c-.5-.64-.63-1.47-.34-2.21.27-.76.94-1.31,1.73-1.46.23-.04.46-.06.7-.03l5.1.61c.14-.49.31-.97.47-1.44,1.26-3.6,3.03-7,5.26-10.13,6.1-8.52,15.36-14.49,25.44-16.41,3.9-.74,7.87-.9,11.81-.5.27.03,1.1.11,1.66.84.37.49.5,1.1.37,1.83l-1.24,7.15c-.17,1.07-.71,1.71-1.62,1.87-.24.06-.51.06-.86.03-2.63-.24-5.29-.11-7.93.39-7.1,1.36-13.68,5.6-18.02,11.68-1.36,1.9-2.47,3.96-3.33,6.12l4.52.54c.94.11,1.71.76,1.97,1.66.24.9-.07,1.83-.83,2.42l-12.09,9.53c-.27.21-.61.37-.99.44-.86.16-1.72-.16-2.24-.83l-9.53-12.09Z"/>
    </g>
  </g>
</svg>