<?xml version="1.0" encoding="UTF-8"?>
<svg id="Layer_2" xmlns="http://www.w3.org/2000/svg" viewBox="0 0 437.1 694.37">
  <defs>
    <style>
      .cls-1, .cls-2, .cls-3 {
        fill: none;
        stroke-miterlimit: 10;
      }

      .cls-1, .cls-3 {
        stroke: #fff;
        stroke-width: 7.5px;
      }

      .cls-2 {
        stroke: #edac46;
        stroke-width: 2.34px;
      }

      .cls-3 {
        stroke-dasharray: 25.2 25.2;
      }
    </style>
  </defs>
  <g id="Layer_1-2" data-name="Layer_1">
    <g>
      <g>
        <path class="cls-1" d="M106.05,361.58c-2.97,2.92-5.82,5.95-8.56,9.1"/>
        <path class="cls-3" d="M82.5,390.9c-15.59,24.9-24.54,54.38-24.35,85.97.53,88.42,71.91,159.35,160.33,159.35,85.05,0,156.9-69.22,160.35-154.19,2.74-67.54-40.82-126.17-102.45-150.46-33.09-13.04-69.09-15.77-102.86-26.48-29.33-9.3-54.98-31.79-69.36-58.81-9.66-18.15-14.54-38.57-14.56-59.11-.06-71.4,57.24-128.87,128.64-129,71.3-.13,129.13,57.62,129.13,128.88,0,18.01-3.69,35.15-10.36,50.72"/>
        <path class="cls-1" d="M331.49,249.07c-2.01,3.66-4.2,7.21-6.54,10.64"/>
      </g>
      <g>
        <path class="cls-2" d="M141.83,406.56c-17.36,19.19-26.84,44.03-26.69,69.96.17,27.61,10.96,53.44,30.39,72.76,19.43,19.31,45.34,29.95,72.96,29.95,26.31,0,51.62-10.41,71.27-29.31,19.66-18.92,31.07-43.85,32.14-70.2,1.19-29.39-12.83-58.71-37.51-78.44-17.6-14.07-44.79-20.77-73.57-27.88-26.34-6.5-53.58-13.22-80.13-26.46-34.36-17.13-59.49-41.31-76.84-73.91-13.87-26.06-21.21-55.74-21.24-85.83-.04-49.74,19.19-96.45,54.15-131.51C121.74,20.63,168.39,1.27,218.13,1.17c.12,0,.24,0,.36,0,49.58,0,96.2,19.28,131.3,54.32,35.19,35.12,54.56,81.84,54.56,131.55,0,31.75-8.16,63.11-23.6,90.7"/>
        <path class="cls-2" d="M281.31,222.07c6.03-10.77,9.08-22.55,9.08-35.03,0-19.23-7.5-37.3-21.11-50.89-13.58-13.55-31.61-21.01-50.79-21.01-.05,0-.09,0-.14,0-19.32.04-37.39,7.5-50.87,21.03-13.49,13.53-20.9,31.62-20.89,50.94.01,11.52,2.74,22.73,7.88,32.4,13.23,24.86,37.78,31.93,83.65,43.24,37.63,9.28,80.29,19.81,117.44,49.51,52.88,42.27,82.87,106.6,80.22,172.07-2.26,55.86-26.06,108.32-67,147.71-40.99,39.44-94.36,61.15-150.29,61.15-57.92,0-112.36-22.4-153.29-63.08C24.26,589.43,1.52,535.13,1.17,477.2c-.33-54.5,19.61-106.74,56.15-147.12"/>
      </g>
    </g>
  </g>
</svg>