<?xml version="1.0" encoding="UTF-8"?>
<svg id="Layer_2" xmlns="http://www.w3.org/2000/svg" viewBox="0 0 136.58 136.86">
  <defs>
    <style>
      .cls-1 {
        fill: #90cae4;
      }

      .cls-2 {
        opacity: .22;
      }
    </style>
  </defs>
  <g id="Layer_1-2" data-name="Layer_1">
    <g class="cls-2">
      <g>
        <path class="cls-1" d="M57.09,24.21l7.37,1.68c1.54.35,2.5,1.88,2.15,3.41l-2.54,11.16-9.6-15.5c.67-.65,1.64-.97,2.62-.74Z"/>
        <path class="cls-1" d="M32.9,80.01l8.17,1.82,6.01-26.42,9.99,15.87-3.07,13.49,8.15,1.9c1.28.3,2.24,1.31,2.45,2.58.21,1.26-.37,2.48-1.5,3.18l-18,11.2c-1.43.91-3.16.67-4.17-.95l-11.38-17.88c-.72-1.12-.71-2.47.03-3.52.74-1.05,2.04-1.55,3.32-1.27Z"/>
        <path class="cls-1" d="M89.65,81.73l-9.95-16.06,3.13-13.74-8.15-1.9c-1.28-.3-2.24-1.31-2.45-2.58-.21-1.26.37-2.48,1.49-3.18l18-11.2c1.43-.91,3.15-.67,4.17.95l11.38,17.88c.72,1.12.7,2.47-.03,3.51-.74,1.06-2.04,1.55-3.32,1.27l-8.17-1.82-6.11,26.86Z"/>
        <path class="cls-1" d="M79.73,112.48l-7.37-1.68c-1.54-.35-2.5-1.88-2.15-3.41l2.55-11.19,9.7,15.42c-.67.73-1.69,1.1-2.73.87Z"/>
        <path class="cls-1" d="M1.71,53.18c-8.22,36.14,13.88,73.31,52.9,82.19,34.58,7.87,72.41-16.14,80.11-50.06C143.18,47.95,122.23,10.43,83.57,1.64,49.24-6.17,10.53,14.37,1.71,53.18ZM96.64,99.62l-8.13-12.92-9.99-15.87-15.69-24.93-9.99-15.87-.63-.99-6.69-10.63c10.92-4.97,23.32-6.44,35.09-3.77,31.13,7.08,47.99,37.28,41.18,67.36-2.56,11.31-9.3,21.24-18.27,28.56l-6.88-10.93ZM14.7,56.13c2.87-12.6,9.65-22.81,18.53-30.09l11.83,18.8,3.24,5.15,9.99,15.87,15.69,24.93,9.99,15.87,1.31,2.07,5.98,9.51c-10.51,4.9-22.46,6.68-33.97,4.06-31.41-7.15-49.21-37.07-42.59-66.17Z"/>
      </g>
    </g>
  </g>
</svg>